0
SECTION
2
HEADER
9
$INSUNITS
70
4
0
ENDSEC
0
SECTION
2
TABLES
0
TABLE
2
LAYER
0
LAYER
2
OUTLINE
70
0
62
7
6
CONTINUOUS
0
LAYER
2
HOLES
70
0
62
1
6
CONTINUOUS
0
LAYER
2
TEXT
70
0
62
3
6
CONTINUOUS
0
ENDTAB
0
ENDSEC
0
SECTION
2
ENTITIES
0
LINE
8
OUTLINE
10
-160.0
20
-130.0
30
0
11
160.0
21
-130.0
31
0
0
LINE
8
OUTLINE
10
160.0
20
-130.0
30
0
11
160.0
21
130.0
31
0
0
LINE
8
OUTLINE
10
160.0
20
130.0
30
0
11
-160.0
21
130.0
31
0
0
LINE
8
OUTLINE
10
-160.0
20
130.0
30
0
11
-160.0
21
-130.0
31
0
0
CIRCLE
8
HOLES
10
0
20
0
30
0
40
85.0
0
CIRCLE
8
HOLES
10
150
20
120
30
0
40
2.75
0
CIRCLE
8
HOLES
10
150
20
-120
30
0
40
2.75
0
CIRCLE
8
HOLES
10
-150
20
120
30
0
40
2.75
0
CIRCLE
8
HOLES
10
-150
20
-120
30
0
40
2.75
0
CIRCLE
8
HOLES
10
63.63961030678928
20
63.63961030678928
30
0
40
2.75
0
CIRCLE
8
HOLES
10
-63.63961030678927
20
63.63961030678928
30
0
40
2.75
0
CIRCLE
8
HOLES
10
-63.639610306789294
20
-63.63961030678927
30
0
40
2.75
0
CIRCLE
8
HOLES
10
63.63961030678926
20
-63.639610306789294
30
0
40
2.75
0
TEXT
8
TEXT
10
-150.0
20
115.0
30
0
40
4.0
1
CSM V3 WOOD UPPER DECK V1.0
0
TEXT
8
TEXT
10
-150.0
20
105.0
30
0
40
4.0
1
MATERIAL: Baltic Birch Plywood 12mm
0
TEXT
8
TEXT
10
-150.0
20
95.0
30
0
40
4.0
1
SIZE: 320 x 260 mm
0
TEXT
8
TEXT
10
-150.0
20
85.0
30
0
40
4.0
1
HOLES: 8x Dia 5.5 + 1x Dia 170
0
ENDSEC
0
EOF
