0
SECTION
2
HEADER
9
$INSUNITS
70
4
0
ENDSEC
0
SECTION
2
TABLES
0
TABLE
2
LAYER
0
LAYER
2
OUTLINE
70
0
62
7
6
CONTINUOUS
0
LAYER
2
HOLES
70
0
62
1
6
CONTINUOUS
0
LAYER
2
TEXT
70
0
62
3
6
CONTINUOUS
0
ENDTAB
0
ENDSEC
0
SECTION
2
ENTITIES
0
LINE
8
OUTLINE
10
-250.0
20
-200.0
30
0
11
250.0
21
-200.0
31
0
0
LINE
8
OUTLINE
10
250.0
20
-200.0
30
0
11
250.0
21
200.0
31
0
0
LINE
8
OUTLINE
10
250.0
20
200.0
30
0
11
-250.0
21
200.0
31
0
0
LINE
8
OUTLINE
10
-250.0
20
200.0
30
0
11
-250.0
21
-200.0
31
0
0
CIRCLE
8
HOLES
10
0
20
0
30
0
40
50.0
0
CIRCLE
8
HOLES
10
-242
20
-90
30
0
40
2.25
0
CIRCLE
8
HOLES
10
-148
20
-90
30
0
40
2.25
0
CIRCLE
8
HOLES
10
-242
20
90
30
0
40
2.25
0
CIRCLE
8
HOLES
10
-148
20
90
30
0
40
2.25
0
CIRCLE
8
HOLES
10
101.7
20
-30.3
30
0
40
2.75
0
CIRCLE
8
HOLES
10
68.3
20
-30.3
30
0
40
2.75
0
CIRCLE
8
HOLES
10
68.3
20
-63.7
30
0
40
2.75
0
CIRCLE
8
HOLES
10
101.7
20
-63.7
30
0
40
2.75
0
CIRCLE
8
HOLES
10
158
20
-47
30
0
40
1.75
0
CIRCLE
8
HOLES
10
242
20
-47
30
0
40
1.75
0
CIRCLE
8
HOLES
10
153
20
52
30
0
40
1.6
0
CIRCLE
8
HOLES
10
247
20
52
30
0
40
1.6
0
CIRCLE
8
HOLES
10
153
20
98
30
0
40
1.6
0
CIRCLE
8
HOLES
10
247
20
98
30
0
40
1.6
0
CIRCLE
8
HOLES
10
-68
20
153
30
0
40
1.6
0
CIRCLE
8
HOLES
10
-32
20
167
30
0
40
1.6
0
CIRCLE
8
HOLES
10
32
20
153
30
0
40
1.6
0
CIRCLE
8
HOLES
10
68
20
167
30
0
40
1.6
0
CIRCLE
8
HOLES
10
-22
20
180
30
0
40
1.6
0
CIRCLE
8
HOLES
10
22
20
180
30
0
40
1.6
0
TEXT
8
TEXT
10
-240.0
20
185.0
30
0
40
4.0
1
CSM V3 WOOD BASE V1.1 - 500x400x18 Hardwood
0
TEXT
8
TEXT
10
-240.0
20
175.0
30
0
40
4.0
1
21 electrical holes + 1x Ø100 take-down
0
ENDSEC
0
EOF
