solid 
 facet normal -1.000000e+00  0.000000e+00  0.000000e+00
   outer loop
     vertex -8.250000e+01 -5.000000e+01  1.000000e+01
     vertex -8.250000e+01  5.000000e+01  0.000000e+00
     vertex -8.250000e+01 -5.000000e+01  0.000000e+00
   endloop
 endfacet
 facet normal -1.000000e+00  0.000000e+00  0.000000e+00
   outer loop
     vertex -8.250000e+01 -5.000000e+01  1.000000e+01
     vertex -8.250000e+01  5.000000e+01  1.000000e+01
     vertex -8.250000e+01  5.000000e+01  0.000000e+00
   endloop
 endfacet
 facet normal  0.000000e+00 -1.000000e+00 -0.000000e+00
   outer loop
     vertex  8.250000e+01 -5.000000e+01  1.000000e+01
     vertex -8.250000e+01 -5.000000e+01  0.000000e+00
     vertex  8.250000e+01 -5.000000e+01  0.000000e+00
   endloop
 endfacet
 facet normal -0.000000e+00 -1.000000e+00  0.000000e+00
   outer loop
     vertex  8.250000e+01 -5.000000e+01  1.000000e+01
     vertex -8.250000e+01 -5.000000e+01  1.000000e+01
     vertex -8.250000e+01 -5.000000e+01  0.000000e+00
   endloop
 endfacet
 facet normal  0.000000e+00  0.000000e+00  1.000000e+00
   outer loop
     vertex -7.750000e+01  4.500000e+01  1.000000e+01
     vertex -8.250000e+01  5.000000e+01  1.000000e+01
     vertex -8.250000e+01 -5.000000e+01  1.000000e+01
   endloop
 endfacet
 facet normal  0.000000e+00  0.000000e+00  1.000000e+00
   outer loop
     vertex -7.750000e+01  4.500000e+01  1.000000e+01
     vertex -8.250000e+01 -5.000000e+01  1.000000e+01
     vertex -7.750000e+01 -4.500000e+01  1.000000e+01
   endloop
 endfacet
 facet normal  0.000000e+00  0.000000e+00  1.000000e+00
   outer loop
     vertex  8.250000e+01 -5.000000e+01  1.000000e+01
     vertex  7.750000e+01 -4.500000e+01  1.000000e+01
     vertex -7.750000e+01 -4.500000e+01  1.000000e+01
   endloop
 endfacet
 facet normal  0.000000e+00  0.000000e+00  1.000000e+00
   outer loop
     vertex  8.250000e+01 -5.000000e+01  1.000000e+01
     vertex -7.750000e+01 -4.500000e+01  1.000000e+01
     vertex -8.250000e+01 -5.000000e+01  1.000000e+01
   endloop
 endfacet
 facet normal  0.000000e+00  0.000000e+00  1.000000e+00
   outer loop
     vertex  8.250000e+01  5.000000e+01  1.000000e+01
     vertex  7.750000e+01  4.500000e+01  1.000000e+01
     vertex  7.750000e+01 -4.500000e+01  1.000000e+01
   endloop
 endfacet
 facet normal  0.000000e+00  0.000000e+00  1.000000e+00
   outer loop
     vertex  8.250000e+01  5.000000e+01  1.000000e+01
     vertex  7.750000e+01 -4.500000e+01  1.000000e+01
     vertex  8.250000e+01 -5.000000e+01  1.000000e+01
   endloop
 endfacet
 facet normal  0.000000e+00  0.000000e+00  1.000000e+00
   outer loop
     vertex  8.250000e+01  5.000000e+01  1.000000e+01
     vertex -8.250000e+01  5.000000e+01  1.000000e+01
     vertex -7.750000e+01  4.500000e+01  1.000000e+01
   endloop
 endfacet
 facet normal  0.000000e+00  0.000000e+00  1.000000e+00
   outer loop
     vertex  8.250000e+01  5.000000e+01  1.000000e+01
     vertex -7.750000e+01  4.500000e+01  1.000000e+01
     vertex  7.750000e+01  4.500000e+01  1.000000e+01
   endloop
 endfacet
 facet normal  0.000000e+00  1.000000e+00  0.000000e+00
   outer loop
     vertex  8.250000e+01  5.000000e+01  1.000000e+01
     vertex  8.250000e+01  5.000000e+01  0.000000e+00
     vertex -8.250000e+01  5.000000e+01  0.000000e+00
   endloop
 endfacet
 facet normal  0.000000e+00  1.000000e+00  0.000000e+00
   outer loop
     vertex  8.250000e+01  5.000000e+01  1.000000e+01
     vertex -8.250000e+01  5.000000e+01  0.000000e+00
     vertex -8.250000e+01  5.000000e+01  1.000000e+01
   endloop
 endfacet
 facet normal -0.000000e+00  0.000000e+00 -1.000000e+00
   outer loop
     vertex  8.250000e+01  5.000000e+01  0.000000e+00
     vertex -8.250000e+01 -5.000000e+01  0.000000e+00
     vertex -8.250000e+01  5.000000e+01  0.000000e+00
   endloop
 endfacet
 facet normal  0.000000e+00 -0.000000e+00 -1.000000e+00
   outer loop
     vertex  8.250000e+01  5.000000e+01  0.000000e+00
     vertex  8.250000e+01 -5.000000e+01  0.000000e+00
     vertex -8.250000e+01 -5.000000e+01  0.000000e+00
   endloop
 endfacet
 facet normal  1.000000e+00  0.000000e+00  0.000000e+00
   outer loop
     vertex  8.250000e+01 -5.000000e+01  1.000000e+01
     vertex  8.250000e+01 -5.000000e+01  0.000000e+00
     vertex  8.250000e+01  5.000000e+01  0.000000e+00
   endloop
 endfacet
 facet normal  1.000000e+00 -0.000000e+00  0.000000e+00
   outer loop
     vertex  8.250000e+01 -5.000000e+01  1.000000e+01
     vertex  8.250000e+01  5.000000e+01  0.000000e+00
     vertex  8.250000e+01  5.000000e+01  1.000000e+01
   endloop
 endfacet
 facet normal  0.000000e+00  1.000000e+00  0.000000e+00
   outer loop
     vertex  7.750000e+01 -4.500000e+01  1.000000e+01
     vertex  7.750000e+01 -4.500000e+01  9.700000e+00
     vertex -7.750000e+01 -4.500000e+01  9.700000e+00
   endloop
 endfacet
 facet normal  0.000000e+00  1.000000e+00  0.000000e+00
   outer loop
     vertex  7.750000e+01 -4.500000e+01  1.000000e+01
     vertex -7.750000e+01 -4.500000e+01  9.700000e+00
     vertex -7.750000e+01 -4.500000e+01  1.000000e+01
   endloop
 endfacet
 facet normal -1.000000e+00  0.000000e+00  0.000000e+00
   outer loop
     vertex  7.750000e+01 -4.500000e+01  1.000000e+01
     vertex  7.750000e+01  4.500000e+01  9.700000e+00
     vertex  7.750000e+01 -4.500000e+01  9.700000e+00
   endloop
 endfacet
 facet normal -1.000000e+00  0.000000e+00  0.000000e+00
   outer loop
     vertex  7.750000e+01 -4.500000e+01  1.000000e+01
     vertex  7.750000e+01  4.500000e+01  1.000000e+01
     vertex  7.750000e+01  4.500000e+01  9.700000e+00
   endloop
 endfacet
 facet normal  0.000000e+00 -1.000000e+00 -0.000000e+00
   outer loop
     vertex  7.750000e+01  4.500000e+01  1.000000e+01
     vertex -7.750000e+01  4.500000e+01  9.700000e+00
     vertex  7.750000e+01  4.500000e+01  9.700000e+00
   endloop
 endfacet
 facet normal -0.000000e+00 -1.000000e+00  0.000000e+00
   outer loop
     vertex  7.750000e+01  4.500000e+01  1.000000e+01
     vertex -7.750000e+01  4.500000e+01  1.000000e+01
     vertex -7.750000e+01  4.500000e+01  9.700000e+00
   endloop
 endfacet
 facet normal  1.000000e+00  0.000000e+00  0.000000e+00
   outer loop
     vertex -7.750000e+01 -4.500000e+01  1.000000e+01
     vertex -7.750000e+01 -4.500000e+01  9.700000e+00
     vertex -7.750000e+01  4.500000e+01  9.700000e+00
   endloop
 endfacet
 facet normal  1.000000e+00 -0.000000e+00  0.000000e+00
   outer loop
     vertex -7.750000e+01 -4.500000e+01  1.000000e+01
     vertex -7.750000e+01  4.500000e+01  9.700000e+00
     vertex -7.750000e+01  4.500000e+01  1.000000e+01
   endloop
 endfacet
 facet normal  0.000000e+00  0.000000e+00  1.000000e+00
   outer loop
     vertex  7.750000e+01  4.500000e+01  9.700000e+00
     vertex -7.750000e+01  4.500000e+01  9.700000e+00
     vertex -7.750000e+01 -4.500000e+01  9.700000e+00
   endloop
 endfacet
 facet normal  0.000000e+00  0.000000e+00  1.000000e+00
   outer loop
     vertex  7.750000e+01  4.500000e+01  9.700000e+00
     vertex -7.750000e+01 -4.500000e+01  9.700000e+00
     vertex  7.750000e+01 -4.500000e+01  9.700000e+00
   endloop
 endfacet
endsolid
