solid 
 facet normal -1.000000e+00  0.000000e+00  0.000000e+00
   outer loop
     vertex -7.730000e+01 -4.480000e+01  9.700000e+00
     vertex -7.730000e+01  4.480000e+01  9.600000e+00
     vertex -7.730000e+01 -4.480000e+01  9.600000e+00
   endloop
 endfacet
 facet normal -1.000000e+00  0.000000e+00  0.000000e+00
   outer loop
     vertex -7.730000e+01 -4.480000e+01  9.700000e+00
     vertex -7.730000e+01  4.480000e+01  9.700000e+00
     vertex -7.730000e+01  4.480000e+01  9.600000e+00
   endloop
 endfacet
 facet normal  1.000000e+00  0.000000e+00  0.000000e+00
   outer loop
     vertex  7.730000e+01 -4.480000e+01  9.700000e+00
     vertex  7.730000e+01 -4.480000e+01  9.600000e+00
     vertex  7.730000e+01  4.480000e+01  9.600000e+00
   endloop
 endfacet
 facet normal  1.000000e+00 -0.000000e+00  0.000000e+00
   outer loop
     vertex  7.730000e+01 -4.480000e+01  9.700000e+00
     vertex  7.730000e+01  4.480000e+01  9.600000e+00
     vertex  7.730000e+01  4.480000e+01  9.700000e+00
   endloop
 endfacet
 facet normal  0.000000e+00 -1.000000e+00 -0.000000e+00
   outer loop
     vertex  7.730000e+01 -4.480000e+01  9.700000e+00
     vertex -7.730000e+01 -4.480000e+01  9.600000e+00
     vertex  7.730000e+01 -4.480000e+01  9.600000e+00
   endloop
 endfacet
 facet normal -0.000000e+00 -1.000000e+00  0.000000e+00
   outer loop
     vertex  7.730000e+01 -4.480000e+01  9.700000e+00
     vertex -7.730000e+01 -4.480000e+01  9.700000e+00
     vertex -7.730000e+01 -4.480000e+01  9.600000e+00
   endloop
 endfacet
 facet normal  0.000000e+00  1.000000e+00  0.000000e+00
   outer loop
     vertex  7.730000e+01  4.480000e+01  9.700000e+00
     vertex  7.730000e+01  4.480000e+01  9.600000e+00
     vertex -7.730000e+01  4.480000e+01  9.600000e+00
   endloop
 endfacet
 facet normal  0.000000e+00  1.000000e+00  0.000000e+00
   outer loop
     vertex  7.730000e+01  4.480000e+01  9.700000e+00
     vertex -7.730000e+01  4.480000e+01  9.600000e+00
     vertex -7.730000e+01  4.480000e+01  9.700000e+00
   endloop
 endfacet
 facet normal -0.000000e+00  0.000000e+00 -1.000000e+00
   outer loop
     vertex  7.730000e+01  4.480000e+01  9.600000e+00
     vertex -7.730000e+01 -4.480000e+01  9.600000e+00
     vertex -7.730000e+01  4.480000e+01  9.600000e+00
   endloop
 endfacet
 facet normal  0.000000e+00 -0.000000e+00 -1.000000e+00
   outer loop
     vertex  7.730000e+01  4.480000e+01  9.600000e+00
     vertex  7.730000e+01 -4.480000e+01  9.600000e+00
     vertex -7.730000e+01 -4.480000e+01  9.600000e+00
   endloop
 endfacet
 facet normal  0.000000e+00  0.000000e+00  1.000000e+00
   outer loop
     vertex  7.730000e+01  4.480000e+01  9.700000e+00
     vertex -7.730000e+01  4.480000e+01  9.700000e+00
     vertex -7.730000e+01 -4.480000e+01  9.700000e+00
   endloop
 endfacet
 facet normal  0.000000e+00  0.000000e+00  1.000000e+00
   outer loop
     vertex  7.730000e+01  4.480000e+01  9.700000e+00
     vertex -7.730000e+01 -4.480000e+01  9.700000e+00
     vertex  7.730000e+01 -4.480000e+01  9.700000e+00
   endloop
 endfacet
endsolid
