solid 
 facet normal -1.000000e+00  0.000000e+00  0.000000e+00
   outer loop
     vertex -4.800000e+01 -2.800000e+01  3.300000e+01
     vertex -4.800000e+01  2.800000e+01  0.000000e+00
     vertex -4.800000e+01 -2.800000e+01  0.000000e+00
   endloop
 endfacet
 facet normal -1.000000e+00  0.000000e+00  0.000000e+00
   outer loop
     vertex -4.800000e+01 -2.800000e+01  3.300000e+01
     vertex -4.800000e+01  2.800000e+01  3.300000e+01
     vertex -4.800000e+01  2.800000e+01  0.000000e+00
   endloop
 endfacet
 facet normal  0.000000e+00 -1.000000e+00 -0.000000e+00
   outer loop
     vertex  4.800000e+01 -2.800000e+01  3.300000e+01
     vertex -4.800000e+01 -2.800000e+01  0.000000e+00
     vertex  4.800000e+01 -2.800000e+01  0.000000e+00
   endloop
 endfacet
 facet normal -0.000000e+00 -1.000000e+00  0.000000e+00
   outer loop
     vertex  4.800000e+01 -2.800000e+01  3.300000e+01
     vertex -4.800000e+01 -2.800000e+01  3.300000e+01
     vertex -4.800000e+01 -2.800000e+01  0.000000e+00
   endloop
 endfacet
 facet normal  0.000000e+00  0.000000e+00  1.000000e+00
   outer loop
     vertex -4.500000e+01 -2.000000e+01  3.300000e+01
     vertex -4.800000e+01 -2.800000e+01  3.300000e+01
     vertex -4.500000e+01 -2.200000e+01  3.300000e+01
   endloop
 endfacet
 facet normal  0.000000e+00  0.000000e+00  1.000000e+00
   outer loop
     vertex -4.500000e+01 -1.500000e+01  3.300000e+01
     vertex -4.800000e+01 -2.800000e+01  3.300000e+01
     vertex -4.500000e+01 -2.000000e+01  3.300000e+01
   endloop
 endfacet
 facet normal  0.000000e+00  0.000000e+00  1.000000e+00
   outer loop
     vertex -4.500000e+01 -1.300000e+01  3.300000e+01
     vertex -4.800000e+01 -2.800000e+01  3.300000e+01
     vertex -4.500000e+01 -1.500000e+01  3.300000e+01
   endloop
 endfacet
 facet normal  0.000000e+00  0.000000e+00  1.000000e+00
   outer loop
     vertex -4.500000e+01 -8.000000e+00  3.300000e+01
     vertex -4.800000e+01 -2.800000e+01  3.300000e+01
     vertex -4.500000e+01 -1.300000e+01  3.300000e+01
   endloop
 endfacet
 facet normal  0.000000e+00  0.000000e+00  1.000000e+00
   outer loop
     vertex -4.500000e+01 -6.000000e+00  3.300000e+01
     vertex -4.800000e+01 -2.800000e+01  3.300000e+01
     vertex -4.500000e+01 -8.000000e+00  3.300000e+01
   endloop
 endfacet
 facet normal  0.000000e+00  0.000000e+00  1.000000e+00
   outer loop
     vertex -4.800000e+01  2.800000e+01  3.300000e+01
     vertex -4.500000e+01  6.000000e+00  3.300000e+01
     vertex -4.500000e+01  8.000000e+00  3.300000e+01
   endloop
 endfacet
 facet normal  0.000000e+00  0.000000e+00  1.000000e+00
   outer loop
     vertex -4.800000e+01  2.800000e+01  3.300000e+01
     vertex -4.500000e+01  1.300000e+01  3.300000e+01
     vertex -4.500000e+01  1.500000e+01  3.300000e+01
   endloop
 endfacet
 facet normal  0.000000e+00  0.000000e+00  1.000000e+00
   outer loop
     vertex -4.800000e+01  2.800000e+01  3.300000e+01
     vertex -4.500000e+01  2.000000e+01  3.300000e+01
     vertex -4.500000e+01  2.200000e+01  3.300000e+01
   endloop
 endfacet
 facet normal  0.000000e+00  0.000000e+00  1.000000e+00
   outer loop
     vertex -4.800000e+01  2.800000e+01  3.300000e+01
     vertex -4.500000e+01  1.000000e+00  3.300000e+01
     vertex -4.500000e+01  6.000000e+00  3.300000e+01
   endloop
 endfacet
 facet normal  0.000000e+00  0.000000e+00  1.000000e+00
   outer loop
     vertex -4.800000e+01  2.800000e+01  3.300000e+01
     vertex -4.500000e+01  8.000000e+00  3.300000e+01
     vertex -4.500000e+01  1.300000e+01  3.300000e+01
   endloop
 endfacet
 facet normal  0.000000e+00  0.000000e+00  1.000000e+00
   outer loop
     vertex -4.800000e+01  2.800000e+01  3.300000e+01
     vertex -4.500000e+01  1.500000e+01  3.300000e+01
     vertex -4.500000e+01  2.000000e+01  3.300000e+01
   endloop
 endfacet
 facet normal  0.000000e+00  0.000000e+00  1.000000e+00
   outer loop
     vertex  4.500000e+01 -2.200000e+01  3.300000e+01
     vertex -4.800000e+01 -2.800000e+01  3.300000e+01
     vertex  4.800000e+01 -2.800000e+01  3.300000e+01
   endloop
 endfacet
 facet normal  0.000000e+00  0.000000e+00  1.000000e+00
   outer loop
     vertex  4.500000e+01 -2.200000e+01  3.300000e+01
     vertex -4.500000e+01 -2.200000e+01  3.300000e+01
     vertex -4.800000e+01 -2.800000e+01  3.300000e+01
   endloop
 endfacet
 facet normal  0.000000e+00  0.000000e+00  1.000000e+00
   outer loop
     vertex  4.800000e+01 -2.400000e+01  3.300000e+01
     vertex  4.500000e+01 -2.200000e+01  3.300000e+01
     vertex  4.800000e+01 -2.800000e+01  3.300000e+01
   endloop
 endfacet
 facet normal  0.000000e+00  0.000000e+00  1.000000e+00
   outer loop
     vertex  4.500000e+01 -2.000000e+01  3.300000e+01
     vertex -4.500000e+01 -1.500000e+01  3.300000e+01
     vertex -4.500000e+01 -2.000000e+01  3.300000e+01
   endloop
 endfacet
 facet normal  0.000000e+00  0.000000e+00  1.000000e+00
   outer loop
     vertex  4.500000e+01 -2.000000e+01  3.300000e+01
     vertex  4.500000e+01 -2.200000e+01  3.300000e+01
     vertex  4.800000e+01 -2.400000e+01  3.300000e+01
   endloop
 endfacet
 facet normal  0.000000e+00  0.000000e+00  1.000000e+00
   outer loop
     vertex  4.500000e+01 -1.500000e+01  3.300000e+01
     vertex -4.500000e+01 -1.500000e+01  3.300000e+01
     vertex  4.500000e+01 -2.000000e+01  3.300000e+01
   endloop
 endfacet
 facet normal  0.000000e+00  0.000000e+00  1.000000e+00
   outer loop
     vertex  4.500000e+01 -1.500000e+01  3.300000e+01
     vertex  4.500000e+01 -2.000000e+01  3.300000e+01
     vertex  4.800000e+01 -2.400000e+01  3.300000e+01
   endloop
 endfacet
 facet normal  0.000000e+00  0.000000e+00  1.000000e+00
   outer loop
     vertex  4.500000e+01 -1.300000e+01  3.300000e+01
     vertex -4.500000e+01 -8.000000e+00  3.300000e+01
     vertex -4.500000e+01 -1.300000e+01  3.300000e+01
   endloop
 endfacet
 facet normal  0.000000e+00  0.000000e+00  1.000000e+00
   outer loop
     vertex  4.500000e+01 -1.300000e+01  3.300000e+01
     vertex  4.500000e+01 -1.500000e+01  3.300000e+01
     vertex  4.800000e+01 -2.400000e+01  3.300000e+01
   endloop
 endfacet
 facet normal  0.000000e+00  0.000000e+00  1.000000e+00
   outer loop
     vertex  4.500000e+01 -8.000000e+00  3.300000e+01
     vertex -4.500000e+01 -8.000000e+00  3.300000e+01
     vertex  4.500000e+01 -1.300000e+01  3.300000e+01
   endloop
 endfacet
 facet normal  0.000000e+00  0.000000e+00  1.000000e+00
   outer loop
     vertex  4.500000e+01 -8.000000e+00  3.300000e+01
     vertex  4.500000e+01 -1.300000e+01  3.300000e+01
     vertex  4.800000e+01 -2.400000e+01  3.300000e+01
   endloop
 endfacet
 facet normal  0.000000e+00  0.000000e+00  1.000000e+00
   outer loop
     vertex  4.500000e+01 -6.000000e+00  3.300000e+01
     vertex  4.500000e+01 -8.000000e+00  3.300000e+01
     vertex  4.800000e+01 -2.400000e+01  3.300000e+01
   endloop
 endfacet
 facet normal  0.000000e+00  0.000000e+00  1.000000e+00
   outer loop
     vertex  4.500000e+01 -1.000000e+00  3.300000e+01
     vertex -4.500000e+01 -6.000000e+00  3.300000e+01
     vertex  4.500000e+01 -6.000000e+00  3.300000e+01
   endloop
 endfacet
 facet normal  0.000000e+00  0.000000e+00  1.000000e+00
   outer loop
     vertex  4.500000e+01 -1.000000e+00  3.300000e+01
     vertex -4.500000e+01 -1.000000e+00  3.300000e+01
     vertex -4.500000e+01 -6.000000e+00  3.300000e+01
   endloop
 endfacet
 facet normal  0.000000e+00  0.000000e+00  1.000000e+00
   outer loop
     vertex  4.500000e+01 -1.000000e+00  3.300000e+01
     vertex  4.500000e+01 -6.000000e+00  3.300000e+01
     vertex  4.800000e+01 -2.400000e+01  3.300000e+01
   endloop
 endfacet
 facet normal  0.000000e+00  0.000000e+00  1.000000e+00
   outer loop
     vertex  4.500000e+01  1.000000e+00  3.300000e+01
     vertex -4.500000e+01  6.000000e+00  3.300000e+01
     vertex -4.500000e+01  1.000000e+00  3.300000e+01
   endloop
 endfacet
 facet normal  0.000000e+00  0.000000e+00  1.000000e+00
   outer loop
     vertex  4.500000e+01  6.000000e+00  3.300000e+01
     vertex -4.500000e+01  6.000000e+00  3.300000e+01
     vertex  4.500000e+01  1.000000e+00  3.300000e+01
   endloop
 endfacet
 facet normal  0.000000e+00  0.000000e+00  1.000000e+00
   outer loop
     vertex  4.500000e+01  8.000000e+00  3.300000e+01
     vertex -4.500000e+01  1.300000e+01  3.300000e+01
     vertex -4.500000e+01  8.000000e+00  3.300000e+01
   endloop
 endfacet
 facet normal  0.000000e+00  0.000000e+00  1.000000e+00
   outer loop
     vertex  4.500000e+01  1.300000e+01  3.300000e+01
     vertex -4.500000e+01  1.300000e+01  3.300000e+01
     vertex  4.500000e+01  8.000000e+00  3.300000e+01
   endloop
 endfacet
 facet normal  0.000000e+00  0.000000e+00  1.000000e+00
   outer loop
     vertex  4.500000e+01  1.500000e+01  3.300000e+01
     vertex -4.500000e+01  2.000000e+01  3.300000e+01
     vertex -4.500000e+01  1.500000e+01  3.300000e+01
   endloop
 endfacet
 facet normal  0.000000e+00  0.000000e+00  1.000000e+00
   outer loop
     vertex  4.500000e+01  2.000000e+01  3.300000e+01
     vertex -4.500000e+01  2.000000e+01  3.300000e+01
     vertex  4.500000e+01  1.500000e+01  3.300000e+01
   endloop
 endfacet
 facet normal  0.000000e+00  0.000000e+00  1.000000e+00
   outer loop
     vertex  4.800000e+01  2.400000e+01  3.300000e+01
     vertex  4.500000e+01  2.000000e+01  3.300000e+01
     vertex  4.500000e+01  1.500000e+01  3.300000e+01
   endloop
 endfacet
 facet normal  0.000000e+00  0.000000e+00  1.000000e+00
   outer loop
     vertex  4.800000e+01  2.400000e+01  3.300000e+01
     vertex  4.500000e+01  1.000000e+00  3.300000e+01
     vertex  4.500000e+01 -1.000000e+00  3.300000e+01
   endloop
 endfacet
 facet normal  0.000000e+00  0.000000e+00  1.000000e+00
   outer loop
     vertex  4.800000e+01  2.400000e+01  3.300000e+01
     vertex  4.500000e+01  8.000000e+00  3.300000e+01
     vertex  4.500000e+01  6.000000e+00  3.300000e+01
   endloop
 endfacet
 facet normal  0.000000e+00  0.000000e+00  1.000000e+00
   outer loop
     vertex  4.800000e+01  2.400000e+01  3.300000e+01
     vertex  4.500000e+01  1.500000e+01  3.300000e+01
     vertex  4.500000e+01  1.300000e+01  3.300000e+01
   endloop
 endfacet
 facet normal  0.000000e+00  0.000000e+00  1.000000e+00
   outer loop
     vertex  4.800000e+01  2.400000e+01  3.300000e+01
     vertex  4.500000e+01  2.200000e+01  3.300000e+01
     vertex  4.500000e+01  2.000000e+01  3.300000e+01
   endloop
 endfacet
 facet normal  0.000000e+00  0.000000e+00  1.000000e+00
   outer loop
     vertex  4.800000e+01  2.400000e+01  3.300000e+01
     vertex  4.500000e+01 -1.000000e+00  3.300000e+01
     vertex  4.800000e+01 -2.400000e+01  3.300000e+01
   endloop
 endfacet
 facet normal  0.000000e+00  0.000000e+00  1.000000e+00
   outer loop
     vertex  4.800000e+01  2.400000e+01  3.300000e+01
     vertex  4.500000e+01  6.000000e+00  3.300000e+01
     vertex  4.500000e+01  1.000000e+00  3.300000e+01
   endloop
 endfacet
 facet normal  0.000000e+00  0.000000e+00  1.000000e+00
   outer loop
     vertex  4.800000e+01  2.400000e+01  3.300000e+01
     vertex  4.500000e+01  1.300000e+01  3.300000e+01
     vertex  4.500000e+01  8.000000e+00  3.300000e+01
   endloop
 endfacet
 facet normal  0.000000e+00  0.000000e+00  1.000000e+00
   outer loop
     vertex  4.800000e+01  2.800000e+01  3.300000e+01
     vertex -4.500000e+01  2.200000e+01  3.300000e+01
     vertex  4.500000e+01  2.200000e+01  3.300000e+01
   endloop
 endfacet
 facet normal  0.000000e+00  0.000000e+00  1.000000e+00
   outer loop
     vertex  4.800000e+01  2.800000e+01  3.300000e+01
     vertex -4.800000e+01  2.800000e+01  3.300000e+01
     vertex -4.500000e+01  2.200000e+01  3.300000e+01
   endloop
 endfacet
 facet normal  0.000000e+00  0.000000e+00  1.000000e+00
   outer loop
     vertex  4.800000e+01  2.800000e+01  3.300000e+01
     vertex  4.500000e+01  2.200000e+01  3.300000e+01
     vertex  4.800000e+01  2.400000e+01  3.300000e+01
   endloop
 endfacet
 facet normal  0.000000e+00  0.000000e+00  1.000000e+00
   outer loop
     vertex -4.800000e+01  2.800000e+01  3.300000e+01
     vertex -4.800000e+01 -2.800000e+01  3.300000e+01
     vertex -4.500000e+01 -6.000000e+00  3.300000e+01
   endloop
 endfacet
 facet normal  0.000000e+00  0.000000e+00  1.000000e+00
   outer loop
     vertex -4.800000e+01  2.800000e+01  3.300000e+01
     vertex -4.500000e+01 -6.000000e+00  3.300000e+01
     vertex -4.500000e+01 -1.000000e+00  3.300000e+01
   endloop
 endfacet
 facet normal  0.000000e+00  0.000000e+00  1.000000e+00
   outer loop
     vertex -4.800000e+01  2.800000e+01  3.300000e+01
     vertex -4.500000e+01 -1.000000e+00  3.300000e+01
     vertex -4.500000e+01  1.000000e+00  3.300000e+01
   endloop
 endfacet
 facet normal  0.000000e+00  1.000000e+00  0.000000e+00
   outer loop
     vertex  4.800000e+01  2.800000e+01  3.300000e+01
     vertex  4.800000e+01  2.800000e+01  0.000000e+00
     vertex -4.800000e+01  2.800000e+01  0.000000e+00
   endloop
 endfacet
 facet normal  0.000000e+00  1.000000e+00  0.000000e+00
   outer loop
     vertex  4.800000e+01  2.800000e+01  3.300000e+01
     vertex -4.800000e+01  2.800000e+01  0.000000e+00
     vertex -4.800000e+01  2.800000e+01  3.300000e+01
   endloop
 endfacet
 facet normal -0.000000e+00  0.000000e+00 -1.000000e+00
   outer loop
     vertex  4.800000e+01  2.800000e+01  0.000000e+00
     vertex -4.800000e+01 -2.800000e+01  0.000000e+00
     vertex -4.800000e+01  2.800000e+01  0.000000e+00
   endloop
 endfacet
 facet normal  0.000000e+00 -0.000000e+00 -1.000000e+00
   outer loop
     vertex  4.800000e+01  2.800000e+01  0.000000e+00
     vertex  4.800000e+01 -2.800000e+01  0.000000e+00
     vertex -4.800000e+01 -2.800000e+01  0.000000e+00
   endloop
 endfacet
 facet normal  1.000000e+00  0.000000e+00  0.000000e+00
   outer loop
     vertex  4.800000e+01  2.800000e+01  3.300000e+01
     vertex  4.800000e+01  2.400000e+01  1.900000e+01
     vertex  4.800000e+01  2.800000e+01  0.000000e+00
   endloop
 endfacet
 facet normal  1.000000e+00 -0.000000e+00  0.000000e+00
   outer loop
     vertex  4.800000e+01  2.400000e+01  3.300000e+01
     vertex  4.800000e+01  2.400000e+01  1.900000e+01
     vertex  4.800000e+01  2.800000e+01  3.300000e+01
   endloop
 endfacet
 facet normal  1.000000e+00  0.000000e+00  0.000000e+00
   outer loop
     vertex  4.800000e+01 -2.400000e+01  1.900000e+01
     vertex  4.800000e+01 -2.800000e+01  0.000000e+00
     vertex  4.800000e+01  2.800000e+01  0.000000e+00
   endloop
 endfacet
 facet normal  1.000000e+00 -0.000000e+00  0.000000e+00
   outer loop
     vertex  4.800000e+01 -2.400000e+01  1.900000e+01
     vertex  4.800000e+01  2.800000e+01  0.000000e+00
     vertex  4.800000e+01  2.400000e+01  1.900000e+01
   endloop
 endfacet
 facet normal  1.000000e+00 -0.000000e+00  0.000000e+00
   outer loop
     vertex  4.800000e+01 -2.800000e+01  3.300000e+01
     vertex  4.800000e+01 -2.400000e+01  1.900000e+01
     vertex  4.800000e+01 -2.400000e+01  3.300000e+01
   endloop
 endfacet
 facet normal  1.000000e+00  0.000000e+00  0.000000e+00
   outer loop
     vertex  4.800000e+01 -2.800000e+01  3.300000e+01
     vertex  4.800000e+01 -2.800000e+01  0.000000e+00
     vertex  4.800000e+01 -2.400000e+01  1.900000e+01
   endloop
 endfacet
 facet normal  0.000000e+00  0.000000e+00  1.000000e+00
   outer loop
     vertex  4.800000e+01  2.400000e+01  3.300000e+01
     vertex  4.800000e+01 -2.400000e+01  3.300000e+01
     vertex  5.600000e+01 -2.400000e+01  3.300000e+01
   endloop
 endfacet
 facet normal  0.000000e+00  0.000000e+00  1.000000e+00
   outer loop
     vertex  5.600000e+01  2.400000e+01  3.300000e+01
     vertex  4.800000e+01  2.400000e+01  3.300000e+01
     vertex  5.600000e+01 -2.400000e+01  3.300000e+01
   endloop
 endfacet
 facet normal  0.000000e+00  1.000000e+00  0.000000e+00
   outer loop
     vertex  4.500000e+01 -2.200000e+01  3.300000e+01
     vertex  4.500000e+01 -2.200000e+01  3.000000e+01
     vertex -4.500000e+01 -2.200000e+01  3.000000e+01
   endloop
 endfacet
 facet normal  0.000000e+00  1.000000e+00  0.000000e+00
   outer loop
     vertex  4.500000e+01 -2.200000e+01  3.300000e+01
     vertex -4.500000e+01 -2.200000e+01  3.000000e+01
     vertex -4.500000e+01 -2.200000e+01  3.300000e+01
   endloop
 endfacet
 facet normal -1.000000e+00  0.000000e+00  0.000000e+00
   outer loop
     vertex  4.500000e+01 -2.200000e+01  3.300000e+01
     vertex  4.500000e+01 -2.000000e+01  3.000000e+01
     vertex  4.500000e+01 -2.200000e+01  3.000000e+01
   endloop
 endfacet
 facet normal -1.000000e+00  0.000000e+00  0.000000e+00
   outer loop
     vertex  4.500000e+01 -2.200000e+01  3.300000e+01
     vertex  4.500000e+01 -2.000000e+01  3.300000e+01
     vertex  4.500000e+01 -2.000000e+01  3.000000e+01
   endloop
 endfacet
 facet normal  1.000000e+00  0.000000e+00  0.000000e+00
   outer loop
     vertex -4.500000e+01 -2.200000e+01  3.300000e+01
     vertex -4.500000e+01 -2.200000e+01  3.000000e+01
     vertex -4.500000e+01 -2.000000e+01  3.000000e+01
   endloop
 endfacet
 facet normal  1.000000e+00 -0.000000e+00  0.000000e+00
   outer loop
     vertex -4.500000e+01 -2.200000e+01  3.300000e+01
     vertex -4.500000e+01 -2.000000e+01  3.000000e+01
     vertex -4.500000e+01 -2.000000e+01  3.300000e+01
   endloop
 endfacet
 facet normal  0.000000e+00 -1.000000e+00 -0.000000e+00
   outer loop
     vertex  4.500000e+01 -2.000000e+01  3.300000e+01
     vertex -4.500000e+01 -2.000000e+01  3.000000e+01
     vertex  4.500000e+01 -2.000000e+01  3.000000e+01
   endloop
 endfacet
 facet normal -0.000000e+00 -1.000000e+00  0.000000e+00
   outer loop
     vertex  4.500000e+01 -2.000000e+01  3.300000e+01
     vertex -4.500000e+01 -2.000000e+01  3.300000e+01
     vertex -4.500000e+01 -2.000000e+01  3.000000e+01
   endloop
 endfacet
 facet normal  0.000000e+00  1.000000e+00  0.000000e+00
   outer loop
     vertex  4.500000e+01 -1.500000e+01  3.300000e+01
     vertex  4.500000e+01 -1.500000e+01  3.000000e+01
     vertex -4.500000e+01 -1.500000e+01  3.000000e+01
   endloop
 endfacet
 facet normal  0.000000e+00  1.000000e+00  0.000000e+00
   outer loop
     vertex  4.500000e+01 -1.500000e+01  3.300000e+01
     vertex -4.500000e+01 -1.500000e+01  3.000000e+01
     vertex -4.500000e+01 -1.500000e+01  3.300000e+01
   endloop
 endfacet
 facet normal -1.000000e+00  0.000000e+00  0.000000e+00
   outer loop
     vertex  4.500000e+01 -1.500000e+01  3.300000e+01
     vertex  4.500000e+01 -1.300000e+01  3.000000e+01
     vertex  4.500000e+01 -1.500000e+01  3.000000e+01
   endloop
 endfacet
 facet normal -1.000000e+00  0.000000e+00  0.000000e+00
   outer loop
     vertex  4.500000e+01 -1.500000e+01  3.300000e+01
     vertex  4.500000e+01 -1.300000e+01  3.300000e+01
     vertex  4.500000e+01 -1.300000e+01  3.000000e+01
   endloop
 endfacet
 facet normal  1.000000e+00  0.000000e+00  0.000000e+00
   outer loop
     vertex -4.500000e+01 -1.500000e+01  3.300000e+01
     vertex -4.500000e+01 -1.500000e+01  3.000000e+01
     vertex -4.500000e+01 -1.300000e+01  3.000000e+01
   endloop
 endfacet
 facet normal  1.000000e+00 -0.000000e+00  0.000000e+00
   outer loop
     vertex -4.500000e+01 -1.500000e+01  3.300000e+01
     vertex -4.500000e+01 -1.300000e+01  3.000000e+01
     vertex -4.500000e+01 -1.300000e+01  3.300000e+01
   endloop
 endfacet
 facet normal  0.000000e+00 -1.000000e+00 -0.000000e+00
   outer loop
     vertex  4.500000e+01 -1.300000e+01  3.300000e+01
     vertex -4.500000e+01 -1.300000e+01  3.000000e+01
     vertex  4.500000e+01 -1.300000e+01  3.000000e+01
   endloop
 endfacet
 facet normal -0.000000e+00 -1.000000e+00  0.000000e+00
   outer loop
     vertex  4.500000e+01 -1.300000e+01  3.300000e+01
     vertex -4.500000e+01 -1.300000e+01  3.300000e+01
     vertex -4.500000e+01 -1.300000e+01  3.000000e+01
   endloop
 endfacet
 facet normal  0.000000e+00  1.000000e+00  0.000000e+00
   outer loop
     vertex  4.500000e+01 -8.000000e+00  3.300000e+01
     vertex  4.500000e+01 -8.000000e+00  3.000000e+01
     vertex -4.500000e+01 -8.000000e+00  3.000000e+01
   endloop
 endfacet
 facet normal  0.000000e+00  1.000000e+00  0.000000e+00
   outer loop
     vertex  4.500000e+01 -8.000000e+00  3.300000e+01
     vertex -4.500000e+01 -8.000000e+00  3.000000e+01
     vertex -4.500000e+01 -8.000000e+00  3.300000e+01
   endloop
 endfacet
 facet normal -1.000000e+00  0.000000e+00  0.000000e+00
   outer loop
     vertex  4.500000e+01 -8.000000e+00  3.300000e+01
     vertex  4.500000e+01 -6.000000e+00  3.000000e+01
     vertex  4.500000e+01 -8.000000e+00  3.000000e+01
   endloop
 endfacet
 facet normal -1.000000e+00  0.000000e+00  0.000000e+00
   outer loop
     vertex  4.500000e+01 -8.000000e+00  3.300000e+01
     vertex  4.500000e+01 -6.000000e+00  3.300000e+01
     vertex  4.500000e+01 -6.000000e+00  3.000000e+01
   endloop
 endfacet
 facet normal  1.000000e+00  0.000000e+00  0.000000e+00
   outer loop
     vertex -4.500000e+01 -8.000000e+00  3.300000e+01
     vertex -4.500000e+01 -8.000000e+00  3.000000e+01
     vertex -4.500000e+01 -6.000000e+00  3.000000e+01
   endloop
 endfacet
 facet normal  1.000000e+00 -0.000000e+00  0.000000e+00
   outer loop
     vertex -4.500000e+01 -8.000000e+00  3.300000e+01
     vertex -4.500000e+01 -6.000000e+00  3.000000e+01
     vertex -4.500000e+01 -6.000000e+00  3.300000e+01
   endloop
 endfacet
 facet normal  0.000000e+00 -1.000000e+00 -0.000000e+00
   outer loop
     vertex  4.500000e+01 -6.000000e+00  3.300000e+01
     vertex -4.500000e+01 -6.000000e+00  3.000000e+01
     vertex  4.500000e+01 -6.000000e+00  3.000000e+01
   endloop
 endfacet
 facet normal -0.000000e+00 -1.000000e+00  0.000000e+00
   outer loop
     vertex  4.500000e+01 -6.000000e+00  3.300000e+01
     vertex -4.500000e+01 -6.000000e+00  3.300000e+01
     vertex -4.500000e+01 -6.000000e+00  3.000000e+01
   endloop
 endfacet
 facet normal  0.000000e+00  1.000000e+00  0.000000e+00
   outer loop
     vertex  4.500000e+01 -1.000000e+00  3.300000e+01
     vertex  4.500000e+01 -1.000000e+00  3.000000e+01
     vertex -4.500000e+01 -1.000000e+00  3.000000e+01
   endloop
 endfacet
 facet normal  0.000000e+00  1.000000e+00  0.000000e+00
   outer loop
     vertex  4.500000e+01 -1.000000e+00  3.300000e+01
     vertex -4.500000e+01 -1.000000e+00  3.000000e+01
     vertex -4.500000e+01 -1.000000e+00  3.300000e+01
   endloop
 endfacet
 facet normal -1.000000e+00  0.000000e+00  0.000000e+00
   outer loop
     vertex  4.500000e+01 -1.000000e+00  3.300000e+01
     vertex  4.500000e+01  1.000000e+00  3.000000e+01
     vertex  4.500000e+01 -1.000000e+00  3.000000e+01
   endloop
 endfacet
 facet normal -1.000000e+00  0.000000e+00  0.000000e+00
   outer loop
     vertex  4.500000e+01 -1.000000e+00  3.300000e+01
     vertex  4.500000e+01  1.000000e+00  3.300000e+01
     vertex  4.500000e+01  1.000000e+00  3.000000e+01
   endloop
 endfacet
 facet normal  1.000000e+00  0.000000e+00  0.000000e+00
   outer loop
     vertex -4.500000e+01 -1.000000e+00  3.300000e+01
     vertex -4.500000e+01 -1.000000e+00  3.000000e+01
     vertex -4.500000e+01  1.000000e+00  3.000000e+01
   endloop
 endfacet
 facet normal  1.000000e+00 -0.000000e+00  0.000000e+00
   outer loop
     vertex -4.500000e+01 -1.000000e+00  3.300000e+01
     vertex -4.500000e+01  1.000000e+00  3.000000e+01
     vertex -4.500000e+01  1.000000e+00  3.300000e+01
   endloop
 endfacet
 facet normal  0.000000e+00 -1.000000e+00 -0.000000e+00
   outer loop
     vertex  4.500000e+01  1.000000e+00  3.300000e+01
     vertex -4.500000e+01  1.000000e+00  3.000000e+01
     vertex  4.500000e+01  1.000000e+00  3.000000e+01
   endloop
 endfacet
 facet normal -0.000000e+00 -1.000000e+00  0.000000e+00
   outer loop
     vertex  4.500000e+01  1.000000e+00  3.300000e+01
     vertex -4.500000e+01  1.000000e+00  3.300000e+01
     vertex -4.500000e+01  1.000000e+00  3.000000e+01
   endloop
 endfacet
 facet normal  0.000000e+00  1.000000e+00  0.000000e+00
   outer loop
     vertex  4.500000e+01  6.000000e+00  3.300000e+01
     vertex  4.500000e+01  6.000000e+00  3.000000e+01
     vertex -4.500000e+01  6.000000e+00  3.000000e+01
   endloop
 endfacet
 facet normal  0.000000e+00  1.000000e+00  0.000000e+00
   outer loop
     vertex  4.500000e+01  6.000000e+00  3.300000e+01
     vertex -4.500000e+01  6.000000e+00  3.000000e+01
     vertex -4.500000e+01  6.000000e+00  3.300000e+01
   endloop
 endfacet
 facet normal -1.000000e+00  0.000000e+00  0.000000e+00
   outer loop
     vertex  4.500000e+01  6.000000e+00  3.300000e+01
     vertex  4.500000e+01  8.000000e+00  3.000000e+01
     vertex  4.500000e+01  6.000000e+00  3.000000e+01
   endloop
 endfacet
 facet normal -1.000000e+00  0.000000e+00  0.000000e+00
   outer loop
     vertex  4.500000e+01  6.000000e+00  3.300000e+01
     vertex  4.500000e+01  8.000000e+00  3.300000e+01
     vertex  4.500000e+01  8.000000e+00  3.000000e+01
   endloop
 endfacet
 facet normal  1.000000e+00  0.000000e+00  0.000000e+00
   outer loop
     vertex -4.500000e+01  6.000000e+00  3.300000e+01
     vertex -4.500000e+01  6.000000e+00  3.000000e+01
     vertex -4.500000e+01  8.000000e+00  3.000000e+01
   endloop
 endfacet
 facet normal  1.000000e+00 -0.000000e+00  0.000000e+00
   outer loop
     vertex -4.500000e+01  6.000000e+00  3.300000e+01
     vertex -4.500000e+01  8.000000e+00  3.000000e+01
     vertex -4.500000e+01  8.000000e+00  3.300000e+01
   endloop
 endfacet
 facet normal  0.000000e+00 -1.000000e+00 -0.000000e+00
   outer loop
     vertex  4.500000e+01  8.000000e+00  3.300000e+01
     vertex -4.500000e+01  8.000000e+00  3.000000e+01
     vertex  4.500000e+01  8.000000e+00  3.000000e+01
   endloop
 endfacet
 facet normal -0.000000e+00 -1.000000e+00  0.000000e+00
   outer loop
     vertex  4.500000e+01  8.000000e+00  3.300000e+01
     vertex -4.500000e+01  8.000000e+00  3.300000e+01
     vertex -4.500000e+01  8.000000e+00  3.000000e+01
   endloop
 endfacet
 facet normal  0.000000e+00  1.000000e+00  0.000000e+00
   outer loop
     vertex  4.500000e+01  1.300000e+01  3.300000e+01
     vertex  4.500000e+01  1.300000e+01  3.000000e+01
     vertex -4.500000e+01  1.300000e+01  3.000000e+01
   endloop
 endfacet
 facet normal  0.000000e+00  1.000000e+00  0.000000e+00
   outer loop
     vertex  4.500000e+01  1.300000e+01  3.300000e+01
     vertex -4.500000e+01  1.300000e+01  3.000000e+01
     vertex -4.500000e+01  1.300000e+01  3.300000e+01
   endloop
 endfacet
 facet normal -1.000000e+00  0.000000e+00  0.000000e+00
   outer loop
     vertex  4.500000e+01  1.300000e+01  3.300000e+01
     vertex  4.500000e+01  1.500000e+01  3.000000e+01
     vertex  4.500000e+01  1.300000e+01  3.000000e+01
   endloop
 endfacet
 facet normal -1.000000e+00  0.000000e+00  0.000000e+00
   outer loop
     vertex  4.500000e+01  1.300000e+01  3.300000e+01
     vertex  4.500000e+01  1.500000e+01  3.300000e+01
     vertex  4.500000e+01  1.500000e+01  3.000000e+01
   endloop
 endfacet
 facet normal  1.000000e+00  0.000000e+00  0.000000e+00
   outer loop
     vertex -4.500000e+01  1.300000e+01  3.300000e+01
     vertex -4.500000e+01  1.300000e+01  3.000000e+01
     vertex -4.500000e+01  1.500000e+01  3.000000e+01
   endloop
 endfacet
 facet normal  1.000000e+00 -0.000000e+00  0.000000e+00
   outer loop
     vertex -4.500000e+01  1.300000e+01  3.300000e+01
     vertex -4.500000e+01  1.500000e+01  3.000000e+01
     vertex -4.500000e+01  1.500000e+01  3.300000e+01
   endloop
 endfacet
 facet normal  0.000000e+00 -1.000000e+00 -0.000000e+00
   outer loop
     vertex  4.500000e+01  1.500000e+01  3.300000e+01
     vertex -4.500000e+01  1.500000e+01  3.000000e+01
     vertex  4.500000e+01  1.500000e+01  3.000000e+01
   endloop
 endfacet
 facet normal -0.000000e+00 -1.000000e+00  0.000000e+00
   outer loop
     vertex  4.500000e+01  1.500000e+01  3.300000e+01
     vertex -4.500000e+01  1.500000e+01  3.300000e+01
     vertex -4.500000e+01  1.500000e+01  3.000000e+01
   endloop
 endfacet
 facet normal  0.000000e+00  1.000000e+00  0.000000e+00
   outer loop
     vertex  4.500000e+01  2.000000e+01  3.300000e+01
     vertex  4.500000e+01  2.000000e+01  3.000000e+01
     vertex -4.500000e+01  2.000000e+01  3.000000e+01
   endloop
 endfacet
 facet normal  0.000000e+00  1.000000e+00  0.000000e+00
   outer loop
     vertex  4.500000e+01  2.000000e+01  3.300000e+01
     vertex -4.500000e+01  2.000000e+01  3.000000e+01
     vertex -4.500000e+01  2.000000e+01  3.300000e+01
   endloop
 endfacet
 facet normal -1.000000e+00  0.000000e+00  0.000000e+00
   outer loop
     vertex  4.500000e+01  2.000000e+01  3.300000e+01
     vertex  4.500000e+01  2.200000e+01  3.000000e+01
     vertex  4.500000e+01  2.000000e+01  3.000000e+01
   endloop
 endfacet
 facet normal -1.000000e+00  0.000000e+00  0.000000e+00
   outer loop
     vertex  4.500000e+01  2.000000e+01  3.300000e+01
     vertex  4.500000e+01  2.200000e+01  3.300000e+01
     vertex  4.500000e+01  2.200000e+01  3.000000e+01
   endloop
 endfacet
 facet normal  0.000000e+00 -1.000000e+00 -0.000000e+00
   outer loop
     vertex  4.500000e+01  2.200000e+01  3.300000e+01
     vertex -4.500000e+01  2.200000e+01  3.000000e+01
     vertex  4.500000e+01  2.200000e+01  3.000000e+01
   endloop
 endfacet
 facet normal -0.000000e+00 -1.000000e+00  0.000000e+00
   outer loop
     vertex  4.500000e+01  2.200000e+01  3.300000e+01
     vertex -4.500000e+01  2.200000e+01  3.300000e+01
     vertex -4.500000e+01  2.200000e+01  3.000000e+01
   endloop
 endfacet
 facet normal  1.000000e+00  0.000000e+00  0.000000e+00
   outer loop
     vertex -4.500000e+01  2.000000e+01  3.300000e+01
     vertex -4.500000e+01  2.000000e+01  3.000000e+01
     vertex -4.500000e+01  2.200000e+01  3.000000e+01
   endloop
 endfacet
 facet normal  1.000000e+00 -0.000000e+00  0.000000e+00
   outer loop
     vertex -4.500000e+01  2.000000e+01  3.300000e+01
     vertex -4.500000e+01  2.200000e+01  3.000000e+01
     vertex -4.500000e+01  2.200000e+01  3.300000e+01
   endloop
 endfacet
 facet normal  0.000000e+00 -1.000000e+00  0.000000e+00
   outer loop
     vertex  4.800000e+01 -2.400000e+01  3.300000e+01
     vertex  4.800000e+01 -2.400000e+01  1.900000e+01
     vertex  5.600000e+01 -2.400000e+01  1.900000e+01
   endloop
 endfacet
 facet normal -0.000000e+00 -1.000000e+00 -0.000000e+00
   outer loop
     vertex  5.600000e+01 -2.400000e+01  3.300000e+01
     vertex  4.800000e+01 -2.400000e+01  3.300000e+01
     vertex  5.600000e+01 -2.400000e+01  1.900000e+01
   endloop
 endfacet
 facet normal  0.000000e+00  0.000000e+00 -1.000000e+00
   outer loop
     vertex  4.800000e+01  2.400000e+01  1.900000e+01
     vertex  5.600000e+01 -2.400000e+01  1.900000e+01
     vertex  4.800000e+01 -2.400000e+01  1.900000e+01
   endloop
 endfacet
 facet normal -0.000000e+00 -0.000000e+00 -1.000000e+00
   outer loop
     vertex  5.600000e+01  2.400000e+01  1.900000e+01
     vertex  5.600000e+01 -2.400000e+01  1.900000e+01
     vertex  4.800000e+01  2.400000e+01  1.900000e+01
   endloop
 endfacet
 facet normal  0.000000e+00  1.000000e+00  0.000000e+00
   outer loop
     vertex  4.800000e+01  2.400000e+01  3.300000e+01
     vertex  5.600000e+01  2.400000e+01  1.900000e+01
     vertex  4.800000e+01  2.400000e+01  1.900000e+01
   endloop
 endfacet
 facet normal  0.000000e+00  1.000000e+00  0.000000e+00
   outer loop
     vertex  5.600000e+01  2.400000e+01  3.300000e+01
     vertex  5.600000e+01  2.400000e+01  1.900000e+01
     vertex  4.800000e+01  2.400000e+01  3.300000e+01
   endloop
 endfacet
 facet normal  1.000000e+00  0.000000e+00  0.000000e+00
   outer loop
     vertex  5.600000e+01 -2.400000e+01  3.300000e+01
     vertex  5.600000e+01 -2.400000e+01  1.900000e+01
     vertex  5.600000e+01  2.400000e+01  1.900000e+01
   endloop
 endfacet
 facet normal  1.000000e+00 -0.000000e+00  0.000000e+00
   outer loop
     vertex  5.600000e+01 -2.400000e+01  3.300000e+01
     vertex  5.600000e+01  2.400000e+01  1.900000e+01
     vertex  5.600000e+01  2.400000e+01  3.300000e+01
   endloop
 endfacet
 facet normal  0.000000e+00  0.000000e+00  1.000000e+00
   outer loop
     vertex  4.500000e+01 -2.000000e+01  3.000000e+01
     vertex -4.500000e+01 -2.000000e+01  3.000000e+01
     vertex -4.500000e+01 -2.200000e+01  3.000000e+01
   endloop
 endfacet
 facet normal  0.000000e+00  0.000000e+00  1.000000e+00
   outer loop
     vertex  4.500000e+01 -2.000000e+01  3.000000e+01
     vertex -4.500000e+01 -2.200000e+01  3.000000e+01
     vertex  4.500000e+01 -2.200000e+01  3.000000e+01
   endloop
 endfacet
 facet normal  0.000000e+00  0.000000e+00  1.000000e+00
   outer loop
     vertex  4.500000e+01 -1.300000e+01  3.000000e+01
     vertex -4.500000e+01 -1.300000e+01  3.000000e+01
     vertex -4.500000e+01 -1.500000e+01  3.000000e+01
   endloop
 endfacet
 facet normal  0.000000e+00  0.000000e+00  1.000000e+00
   outer loop
     vertex  4.500000e+01 -1.300000e+01  3.000000e+01
     vertex -4.500000e+01 -1.500000e+01  3.000000e+01
     vertex  4.500000e+01 -1.500000e+01  3.000000e+01
   endloop
 endfacet
 facet normal  0.000000e+00  0.000000e+00  1.000000e+00
   outer loop
     vertex  4.500000e+01 -6.000000e+00  3.000000e+01
     vertex -4.500000e+01 -6.000000e+00  3.000000e+01
     vertex -4.500000e+01 -8.000000e+00  3.000000e+01
   endloop
 endfacet
 facet normal  0.000000e+00  0.000000e+00  1.000000e+00
   outer loop
     vertex  4.500000e+01 -6.000000e+00  3.000000e+01
     vertex -4.500000e+01 -8.000000e+00  3.000000e+01
     vertex  4.500000e+01 -8.000000e+00  3.000000e+01
   endloop
 endfacet
 facet normal  0.000000e+00  0.000000e+00  1.000000e+00
   outer loop
     vertex  4.500000e+01  1.000000e+00  3.000000e+01
     vertex -4.500000e+01  1.000000e+00  3.000000e+01
     vertex -4.500000e+01 -1.000000e+00  3.000000e+01
   endloop
 endfacet
 facet normal  0.000000e+00  0.000000e+00  1.000000e+00
   outer loop
     vertex  4.500000e+01  1.000000e+00  3.000000e+01
     vertex -4.500000e+01 -1.000000e+00  3.000000e+01
     vertex  4.500000e+01 -1.000000e+00  3.000000e+01
   endloop
 endfacet
 facet normal  0.000000e+00  0.000000e+00  1.000000e+00
   outer loop
     vertex  4.500000e+01  8.000000e+00  3.000000e+01
     vertex -4.500000e+01  8.000000e+00  3.000000e+01
     vertex -4.500000e+01  6.000000e+00  3.000000e+01
   endloop
 endfacet
 facet normal  0.000000e+00  0.000000e+00  1.000000e+00
   outer loop
     vertex  4.500000e+01  8.000000e+00  3.000000e+01
     vertex -4.500000e+01  6.000000e+00  3.000000e+01
     vertex  4.500000e+01  6.000000e+00  3.000000e+01
   endloop
 endfacet
 facet normal  0.000000e+00  0.000000e+00  1.000000e+00
   outer loop
     vertex  4.500000e+01  1.500000e+01  3.000000e+01
     vertex -4.500000e+01  1.500000e+01  3.000000e+01
     vertex -4.500000e+01  1.300000e+01  3.000000e+01
   endloop
 endfacet
 facet normal  0.000000e+00  0.000000e+00  1.000000e+00
   outer loop
     vertex  4.500000e+01  1.500000e+01  3.000000e+01
     vertex -4.500000e+01  1.300000e+01  3.000000e+01
     vertex  4.500000e+01  1.300000e+01  3.000000e+01
   endloop
 endfacet
 facet normal  0.000000e+00  0.000000e+00  1.000000e+00
   outer loop
     vertex  4.500000e+01  2.200000e+01  3.000000e+01
     vertex -4.500000e+01  2.200000e+01  3.000000e+01
     vertex -4.500000e+01  2.000000e+01  3.000000e+01
   endloop
 endfacet
 facet normal  0.000000e+00  0.000000e+00  1.000000e+00
   outer loop
     vertex  4.500000e+01  2.200000e+01  3.000000e+01
     vertex -4.500000e+01  2.000000e+01  3.000000e+01
     vertex  4.500000e+01  2.000000e+01  3.000000e+01
   endloop
 endfacet
endsolid
