solid 
 facet normal -1.000000e+00  0.000000e+00  0.000000e+00
   outer loop
     vertex -4.950000e+01 -4.100000e+01  3.000000e+01
     vertex -4.950000e+01  4.100000e+01  0.000000e+00
     vertex -4.950000e+01 -4.100000e+01  0.000000e+00
   endloop
 endfacet
 facet normal -1.000000e+00  0.000000e+00  0.000000e+00
   outer loop
     vertex -4.950000e+01 -4.100000e+01  3.000000e+01
     vertex -4.950000e+01  4.100000e+01  3.000000e+01
     vertex -4.950000e+01  4.100000e+01  0.000000e+00
   endloop
 endfacet
 facet normal  0.000000e+00 -1.000000e+00 -0.000000e+00
   outer loop
     vertex -4.207500e+01 -4.100000e+01  1.000000e+00
     vertex -4.950000e+01 -4.100000e+01  0.000000e+00
     vertex -4.207500e+01 -4.100000e+01  0.000000e+00
   endloop
 endfacet
 facet normal  0.000000e+00 -1.000000e+00  0.000000e+00
   outer loop
     vertex -4.950000e+01 -4.100000e+01  3.000000e+01
     vertex -4.950000e+01 -4.100000e+01  0.000000e+00
     vertex -4.207500e+01 -4.100000e+01  1.000000e+00
   endloop
 endfacet
 facet normal  0.000000e+00 -1.000000e+00  0.000000e+00
   outer loop
     vertex  4.950000e+01 -4.100000e+01  0.000000e+00
     vertex  4.207500e+01 -4.100000e+01  1.000000e+00
     vertex  4.207500e+01 -4.100000e+01  0.000000e+00
   endloop
 endfacet
 facet normal  0.000000e+00 -1.000000e+00  0.000000e+00
   outer loop
     vertex  4.950000e+01 -4.100000e+01  3.000000e+01
     vertex -4.207500e+01 -4.100000e+01  1.000000e+00
     vertex  4.207500e+01 -4.100000e+01  1.000000e+00
   endloop
 endfacet
 facet normal  0.000000e+00 -1.000000e+00 -0.000000e+00
   outer loop
     vertex  4.950000e+01 -4.100000e+01  3.000000e+01
     vertex  4.207500e+01 -4.100000e+01  1.000000e+00
     vertex  4.950000e+01 -4.100000e+01  0.000000e+00
   endloop
 endfacet
 facet normal -0.000000e+00 -1.000000e+00  0.000000e+00
   outer loop
     vertex  4.950000e+01 -4.100000e+01  3.000000e+01
     vertex -4.950000e+01 -4.100000e+01  3.000000e+01
     vertex -4.207500e+01 -4.100000e+01  1.000000e+00
   endloop
 endfacet
 facet normal  0.000000e+00  0.000000e+00  1.000000e+00
   outer loop
     vertex  4.950000e+01 -4.100000e+01  3.000000e+01
     vertex -4.950000e+01  4.100000e+01  3.000000e+01
     vertex -4.950000e+01 -4.100000e+01  3.000000e+01
   endloop
 endfacet
 facet normal  0.000000e+00  0.000000e+00  1.000000e+00
   outer loop
     vertex  4.950000e+01  4.100000e+01  3.000000e+01
     vertex -4.950000e+01  4.100000e+01  3.000000e+01
     vertex  4.950000e+01 -4.100000e+01  3.000000e+01
   endloop
 endfacet
 facet normal  0.000000e+00  1.000000e+00  0.000000e+00
   outer loop
     vertex -4.207500e+01  4.100000e+01  1.000000e+00
     vertex -4.207500e+01  4.100000e+01  0.000000e+00
     vertex -4.950000e+01  4.100000e+01  0.000000e+00
   endloop
 endfacet
 facet normal  0.000000e+00  1.000000e+00  0.000000e+00
   outer loop
     vertex -4.950000e+01  4.100000e+01  3.000000e+01
     vertex -4.207500e+01  4.100000e+01  1.000000e+00
     vertex -4.950000e+01  4.100000e+01  0.000000e+00
   endloop
 endfacet
 facet normal  0.000000e+00  1.000000e+00  0.000000e+00
   outer loop
     vertex  4.950000e+01  4.100000e+01  0.000000e+00
     vertex  4.207500e+01  4.100000e+01  0.000000e+00
     vertex  4.207500e+01  4.100000e+01  1.000000e+00
   endloop
 endfacet
 facet normal  0.000000e+00  1.000000e+00  0.000000e+00
   outer loop
     vertex  4.950000e+01  4.100000e+01  3.000000e+01
     vertex  4.207500e+01  4.100000e+01  1.000000e+00
     vertex -4.207500e+01  4.100000e+01  1.000000e+00
   endloop
 endfacet
 facet normal  0.000000e+00  1.000000e+00  0.000000e+00
   outer loop
     vertex  4.950000e+01  4.100000e+01  3.000000e+01
     vertex  4.950000e+01  4.100000e+01  0.000000e+00
     vertex  4.207500e+01  4.100000e+01  1.000000e+00
   endloop
 endfacet
 facet normal  0.000000e+00  1.000000e+00  0.000000e+00
   outer loop
     vertex  4.950000e+01  4.100000e+01  3.000000e+01
     vertex -4.207500e+01  4.100000e+01  1.000000e+00
     vertex -4.950000e+01  4.100000e+01  3.000000e+01
   endloop
 endfacet
 facet normal -0.000000e+00  0.000000e+00 -1.000000e+00
   outer loop
     vertex -4.207500e+01  4.100000e+01  0.000000e+00
     vertex -4.950000e+01 -4.100000e+01  0.000000e+00
     vertex -4.950000e+01  4.100000e+01  0.000000e+00
   endloop
 endfacet
 facet normal  0.000000e+00 -0.000000e+00 -1.000000e+00
   outer loop
     vertex -4.207500e+01  4.100000e+01  0.000000e+00
     vertex -4.207500e+01 -4.100000e+01  0.000000e+00
     vertex -4.950000e+01 -4.100000e+01  0.000000e+00
   endloop
 endfacet
 facet normal  0.000000e+00 -0.000000e+00 -1.000000e+00
   outer loop
     vertex  4.207500e+01  4.100000e+01  0.000000e+00
     vertex  4.207500e+01 -4.100000e+01  0.000000e+00
     vertex -4.207500e+01 -4.100000e+01  0.000000e+00
   endloop
 endfacet
 facet normal -0.000000e+00  0.000000e+00 -1.000000e+00
   outer loop
     vertex  4.207500e+01  4.100000e+01  0.000000e+00
     vertex -4.207500e+01 -4.100000e+01  0.000000e+00
     vertex -4.207500e+01  4.100000e+01  0.000000e+00
   endloop
 endfacet
 facet normal  0.000000e+00 -0.000000e+00 -1.000000e+00
   outer loop
     vertex  4.950000e+01  4.100000e+01  0.000000e+00
     vertex  4.950000e+01 -4.100000e+01  0.000000e+00
     vertex  4.207500e+01 -4.100000e+01  0.000000e+00
   endloop
 endfacet
 facet normal -0.000000e+00  0.000000e+00 -1.000000e+00
   outer loop
     vertex  4.950000e+01  4.100000e+01  0.000000e+00
     vertex  4.207500e+01 -4.100000e+01  0.000000e+00
     vertex  4.207500e+01  4.100000e+01  0.000000e+00
   endloop
 endfacet
 facet normal -1.000000e+00  0.000000e+00  0.000000e+00
   outer loop
     vertex -4.207500e+01 -4.700000e+01  1.000000e+00
     vertex -4.207500e+01 -4.100000e+01  0.000000e+00
     vertex -4.207500e+01 -4.700000e+01  0.000000e+00
   endloop
 endfacet
 facet normal -1.000000e+00  0.000000e+00  0.000000e+00
   outer loop
     vertex -4.207500e+01 -4.700000e+01  1.000000e+00
     vertex -4.207500e+01 -4.100000e+01  1.000000e+00
     vertex -4.207500e+01 -4.100000e+01  0.000000e+00
   endloop
 endfacet
 facet normal  0.000000e+00  0.000000e+00  1.000000e+00
   outer loop
     vertex  4.207500e+01 -4.100000e+01  1.000000e+00
     vertex -4.207500e+01 -4.100000e+01  1.000000e+00
     vertex -4.207500e+01 -4.700000e+01  1.000000e+00
   endloop
 endfacet
 facet normal  0.000000e+00  0.000000e+00  1.000000e+00
   outer loop
     vertex  4.207500e+01 -4.100000e+01  1.000000e+00
     vertex -4.207500e+01 -4.700000e+01  1.000000e+00
     vertex  4.207500e+01 -4.700000e+01  1.000000e+00
   endloop
 endfacet
 facet normal  1.000000e+00  0.000000e+00  0.000000e+00
   outer loop
     vertex  4.207500e+01 -4.700000e+01  1.000000e+00
     vertex  4.207500e+01 -4.700000e+01  0.000000e+00
     vertex  4.207500e+01 -4.100000e+01  0.000000e+00
   endloop
 endfacet
 facet normal  1.000000e+00 -0.000000e+00  0.000000e+00
   outer loop
     vertex  4.207500e+01 -4.700000e+01  1.000000e+00
     vertex  4.207500e+01 -4.100000e+01  0.000000e+00
     vertex  4.207500e+01 -4.100000e+01  1.000000e+00
   endloop
 endfacet
 facet normal  1.000000e+00  0.000000e+00  0.000000e+00
   outer loop
     vertex  4.950000e+01  4.100000e+01  3.000000e+01
     vertex  4.950000e+01  3.700000e+01  2.400000e+01
     vertex  4.950000e+01  3.700000e+01  6.000000e+00
   endloop
 endfacet
 facet normal  1.000000e+00  0.000000e+00  0.000000e+00
   outer loop
     vertex  4.950000e+01  4.100000e+01  3.000000e+01
     vertex  4.950000e+01  3.700000e+01  6.000000e+00
     vertex  4.950000e+01  4.100000e+01  0.000000e+00
   endloop
 endfacet
 facet normal  1.000000e+00  0.000000e+00  0.000000e+00
   outer loop
     vertex  4.950000e+01 -3.700000e+01  6.000000e+00
     vertex  4.950000e+01 -4.100000e+01  0.000000e+00
     vertex  4.950000e+01  4.100000e+01  0.000000e+00
   endloop
 endfacet
 facet normal  1.000000e+00 -0.000000e+00  0.000000e+00
   outer loop
     vertex  4.950000e+01 -3.700000e+01  6.000000e+00
     vertex  4.950000e+01  4.100000e+01  0.000000e+00
     vertex  4.950000e+01  3.700000e+01  6.000000e+00
   endloop
 endfacet
 facet normal  1.000000e+00  0.000000e+00  0.000000e+00
   outer loop
     vertex  4.950000e+01 -4.100000e+01  3.000000e+01
     vertex  4.950000e+01 -3.700000e+01  6.000000e+00
     vertex  4.950000e+01 -3.700000e+01  2.400000e+01
   endloop
 endfacet
 facet normal  1.000000e+00  0.000000e+00  0.000000e+00
   outer loop
     vertex  4.950000e+01 -4.100000e+01  3.000000e+01
     vertex  4.950000e+01 -3.700000e+01  2.400000e+01
     vertex  4.950000e+01  3.700000e+01  2.400000e+01
   endloop
 endfacet
 facet normal  1.000000e+00 -0.000000e+00  0.000000e+00
   outer loop
     vertex  4.950000e+01 -4.100000e+01  3.000000e+01
     vertex  4.950000e+01  3.700000e+01  2.400000e+01
     vertex  4.950000e+01  4.100000e+01  3.000000e+01
   endloop
 endfacet
 facet normal  1.000000e+00  0.000000e+00  0.000000e+00
   outer loop
     vertex  4.950000e+01 -4.100000e+01  3.000000e+01
     vertex  4.950000e+01 -4.100000e+01  0.000000e+00
     vertex  4.950000e+01 -3.700000e+01  6.000000e+00
   endloop
 endfacet
 facet normal -1.000000e+00  0.000000e+00  0.000000e+00
   outer loop
     vertex -4.207500e+01  4.100000e+01  1.000000e+00
     vertex -4.207500e+01  4.700000e+01  0.000000e+00
     vertex -4.207500e+01  4.100000e+01  0.000000e+00
   endloop
 endfacet
 facet normal -1.000000e+00  0.000000e+00  0.000000e+00
   outer loop
     vertex -4.207500e+01  4.100000e+01  1.000000e+00
     vertex -4.207500e+01  4.700000e+01  1.000000e+00
     vertex -4.207500e+01  4.700000e+01  0.000000e+00
   endloop
 endfacet
 facet normal  0.000000e+00  0.000000e+00  1.000000e+00
   outer loop
     vertex  4.207500e+01  4.700000e+01  1.000000e+00
     vertex -4.207500e+01  4.700000e+01  1.000000e+00
     vertex -4.207500e+01  4.100000e+01  1.000000e+00
   endloop
 endfacet
 facet normal  0.000000e+00  0.000000e+00  1.000000e+00
   outer loop
     vertex  4.207500e+01  4.700000e+01  1.000000e+00
     vertex -4.207500e+01  4.100000e+01  1.000000e+00
     vertex  4.207500e+01  4.100000e+01  1.000000e+00
   endloop
 endfacet
 facet normal  1.000000e+00  0.000000e+00  0.000000e+00
   outer loop
     vertex  4.207500e+01  4.100000e+01  1.000000e+00
     vertex  4.207500e+01  4.100000e+01  0.000000e+00
     vertex  4.207500e+01  4.700000e+01  0.000000e+00
   endloop
 endfacet
 facet normal  1.000000e+00 -0.000000e+00  0.000000e+00
   outer loop
     vertex  4.207500e+01  4.100000e+01  1.000000e+00
     vertex  4.207500e+01  4.700000e+01  0.000000e+00
     vertex  4.207500e+01  4.700000e+01  1.000000e+00
   endloop
 endfacet
 facet normal -0.000000e+00  0.000000e+00 -1.000000e+00
   outer loop
     vertex  4.207500e+01  4.700000e+01  0.000000e+00
     vertex -4.207500e+01  4.100000e+01  0.000000e+00
     vertex -4.207500e+01  4.700000e+01  0.000000e+00
   endloop
 endfacet
 facet normal  0.000000e+00 -0.000000e+00 -1.000000e+00
   outer loop
     vertex  4.207500e+01  4.700000e+01  0.000000e+00
     vertex  4.207500e+01  4.100000e+01  0.000000e+00
     vertex -4.207500e+01  4.100000e+01  0.000000e+00
   endloop
 endfacet
 facet normal -0.000000e+00  0.000000e+00 -1.000000e+00
   outer loop
     vertex  4.207500e+01 -4.100000e+01  0.000000e+00
     vertex -4.207500e+01 -4.700000e+01  0.000000e+00
     vertex -4.207500e+01 -4.100000e+01  0.000000e+00
   endloop
 endfacet
 facet normal  0.000000e+00 -0.000000e+00 -1.000000e+00
   outer loop
     vertex  4.207500e+01 -4.100000e+01  0.000000e+00
     vertex  4.207500e+01 -4.700000e+01  0.000000e+00
     vertex -4.207500e+01 -4.700000e+01  0.000000e+00
   endloop
 endfacet
 facet normal  0.000000e+00 -1.000000e+00  0.000000e+00
   outer loop
     vertex  4.207500e+01 -4.700000e+01  0.000000e+00
     vertex -4.207500e+01 -4.700000e+01  1.000000e+00
     vertex -4.207500e+01 -4.700000e+01  0.000000e+00
   endloop
 endfacet
 facet normal -0.000000e+00 -1.000000e+00 -0.000000e+00
   outer loop
     vertex  4.207500e+01 -4.700000e+01  1.000000e+00
     vertex -4.207500e+01 -4.700000e+01  1.000000e+00
     vertex  4.207500e+01 -4.700000e+01  0.000000e+00
   endloop
 endfacet
 facet normal  0.000000e+00  0.000000e+00 -1.000000e+00
   outer loop
     vertex  4.950000e+01  3.700000e+01  6.000000e+00
     vertex  5.650000e+01 -3.700000e+01  6.000000e+00
     vertex  4.950000e+01 -3.700000e+01  6.000000e+00
   endloop
 endfacet
 facet normal -0.000000e+00 -0.000000e+00 -1.000000e+00
   outer loop
     vertex  5.650000e+01  3.700000e+01  6.000000e+00
     vertex  5.650000e+01 -3.700000e+01  6.000000e+00
     vertex  4.950000e+01  3.700000e+01  6.000000e+00
   endloop
 endfacet
 facet normal  0.000000e+00  1.000000e+00  0.000000e+00
   outer loop
     vertex  5.650000e+01  3.700000e+01  2.400000e+01
     vertex  5.650000e+01  3.700000e+01  6.000000e+00
     vertex  4.950000e+01  3.700000e+01  6.000000e+00
   endloop
 endfacet
 facet normal  0.000000e+00  1.000000e+00  0.000000e+00
   outer loop
     vertex  5.650000e+01  3.700000e+01  2.400000e+01
     vertex  4.950000e+01  3.700000e+01  6.000000e+00
     vertex  4.950000e+01  3.700000e+01  2.400000e+01
   endloop
 endfacet
 facet normal  0.000000e+00  0.000000e+00  1.000000e+00
   outer loop
     vertex  4.950000e+01  3.700000e+01  2.400000e+01
     vertex  4.950000e+01 -3.700000e+01  2.400000e+01
     vertex  5.650000e+01 -3.700000e+01  2.400000e+01
   endloop
 endfacet
 facet normal  0.000000e+00  0.000000e+00  1.000000e+00
   outer loop
     vertex  5.650000e+01  3.700000e+01  2.400000e+01
     vertex  4.950000e+01  3.700000e+01  2.400000e+01
     vertex  5.650000e+01 -3.700000e+01  2.400000e+01
   endloop
 endfacet
 facet normal  0.000000e+00 -1.000000e+00 -0.000000e+00
   outer loop
     vertex  5.650000e+01 -3.700000e+01  2.400000e+01
     vertex  4.950000e+01 -3.700000e+01  6.000000e+00
     vertex  5.650000e+01 -3.700000e+01  6.000000e+00
   endloop
 endfacet
 facet normal -0.000000e+00 -1.000000e+00  0.000000e+00
   outer loop
     vertex  5.650000e+01 -3.700000e+01  2.400000e+01
     vertex  4.950000e+01 -3.700000e+01  2.400000e+01
     vertex  4.950000e+01 -3.700000e+01  6.000000e+00
   endloop
 endfacet
 facet normal  0.000000e+00  1.000000e+00  0.000000e+00
   outer loop
     vertex  4.207500e+01  4.700000e+01  0.000000e+00
     vertex -4.207500e+01  4.700000e+01  0.000000e+00
     vertex -4.207500e+01  4.700000e+01  1.000000e+00
   endloop
 endfacet
 facet normal  0.000000e+00  1.000000e+00  0.000000e+00
   outer loop
     vertex  4.207500e+01  4.700000e+01  1.000000e+00
     vertex  4.207500e+01  4.700000e+01  0.000000e+00
     vertex -4.207500e+01  4.700000e+01  1.000000e+00
   endloop
 endfacet
 facet normal  1.000000e+00  0.000000e+00  0.000000e+00
   outer loop
     vertex  5.650000e+01 -3.700000e+01  2.400000e+01
     vertex  5.650000e+01 -3.700000e+01  6.000000e+00
     vertex  5.650000e+01  3.700000e+01  6.000000e+00
   endloop
 endfacet
 facet normal  1.000000e+00 -0.000000e+00  0.000000e+00
   outer loop
     vertex  5.650000e+01 -3.700000e+01  2.400000e+01
     vertex  5.650000e+01  3.700000e+01  6.000000e+00
     vertex  5.650000e+01  3.700000e+01  2.400000e+01
   endloop
 endfacet
endsolid
