ISO-10303-21;
HEADER;
FILE_DESCRIPTION(('FreeCAD Model'),'2;1');
FILE_NAME('Open CASCADE Shape Model','2026-06-29T07:12:20',('FreeCAD'),(
    'FreeCAD'),'Open CASCADE STEP processor 7.8','FreeCAD','Unknown');
FILE_SCHEMA(('AUTOMOTIVE_DESIGN { 1 0 10303 214 1 1 1 1 }'));
ENDSEC;
DATA;
#1 = APPLICATION_PROTOCOL_DEFINITION('international standard',
  'automotive_design',2000,#2);
#2 = APPLICATION_CONTEXT(
  'core data for automotive mechanical design processes');
#3 = SHAPE_DEFINITION_REPRESENTATION(#4,#10);
#4 = PRODUCT_DEFINITION_SHAPE('','',#5);
#5 = PRODUCT_DEFINITION('design','',#6,#9);
#6 = PRODUCT_DEFINITION_FORMATION('','',#7);
#7 = PRODUCT('Open CASCADE STEP translator 7.8 1',
  'Open CASCADE STEP translator 7.8 1','',(#8));
#8 = PRODUCT_CONTEXT('',#2,'mechanical');
#9 = PRODUCT_DEFINITION_CONTEXT('part definition',#2,'design');
#10 = ADVANCED_BREP_SHAPE_REPRESENTATION('',(#11,#15),#501);
#11 = AXIS2_PLACEMENT_3D('',#12,#13,#14);
#12 = CARTESIAN_POINT('',(0.,0.,0.));
#13 = DIRECTION('',(0.,0.,1.));
#14 = DIRECTION('',(1.,0.,-0.));
#15 = MANIFOLD_SOLID_BREP('',#16);
#16 = CLOSED_SHELL('',(#17,#57,#90,#121,#180,#205,#229,#254,#313,#330,
    #354,#379,#403,#421,#438,#455,#472,#489));
#17 = ADVANCED_FACE('',(#18),#52,.T.);
#18 = FACE_BOUND('',#19,.T.);
#19 = EDGE_LOOP('',(#20,#30,#38,#46));
#20 = ORIENTED_EDGE('',*,*,#21,.T.);
#21 = EDGE_CURVE('',#22,#24,#26,.T.);
#22 = VERTEX_POINT('',#23);
#23 = CARTESIAN_POINT('',(-81.,-1.110223024625E-15,-10.));
#24 = VERTEX_POINT('',#25);
#25 = CARTESIAN_POINT('',(-81.,2.4,-10.));
#26 = LINE('',#27,#28);
#27 = CARTESIAN_POINT('',(-81.,-1.110223024625E-15,-10.));
#28 = VECTOR('',#29,1.);
#29 = DIRECTION('',(0.,1.,0.));
#30 = ORIENTED_EDGE('',*,*,#31,.T.);
#31 = EDGE_CURVE('',#24,#32,#34,.T.);
#32 = VERTEX_POINT('',#33);
#33 = CARTESIAN_POINT('',(81.,2.4,-10.));
#34 = LINE('',#35,#36);
#35 = CARTESIAN_POINT('',(-81.,2.4,-10.));
#36 = VECTOR('',#37,1.);
#37 = DIRECTION('',(1.,0.,0.));
#38 = ORIENTED_EDGE('',*,*,#39,.F.);
#39 = EDGE_CURVE('',#40,#32,#42,.T.);
#40 = VERTEX_POINT('',#41);
#41 = CARTESIAN_POINT('',(81.,-1.110223024625E-15,-10.));
#42 = LINE('',#43,#44);
#43 = CARTESIAN_POINT('',(81.,-1.110223024625E-15,-10.));
#44 = VECTOR('',#45,1.);
#45 = DIRECTION('',(0.,1.,0.));
#46 = ORIENTED_EDGE('',*,*,#47,.F.);
#47 = EDGE_CURVE('',#22,#40,#48,.T.);
#48 = LINE('',#49,#50);
#49 = CARTESIAN_POINT('',(-81.,-1.110223024625E-15,-10.));
#50 = VECTOR('',#51,1.);
#51 = DIRECTION('',(1.,0.,0.));
#52 = PLANE('',#53);
#53 = AXIS2_PLACEMENT_3D('',#54,#55,#56);
#54 = CARTESIAN_POINT('',(-81.,-1.110223024625E-15,-10.));
#55 = DIRECTION('',(0.,0.,-1.));
#56 = DIRECTION('',(1.,0.,0.));
#57 = ADVANCED_FACE('',(#58),#85,.T.);
#58 = FACE_BOUND('',#59,.T.);
#59 = EDGE_LOOP('',(#60,#70,#77,#78));
#60 = ORIENTED_EDGE('',*,*,#61,.T.);
#61 = EDGE_CURVE('',#62,#64,#66,.T.);
#62 = VERTEX_POINT('',#63);
#63 = CARTESIAN_POINT('',(-85.,-6.661338147751E-16,-6.));
#64 = VERTEX_POINT('',#65);
#65 = CARTESIAN_POINT('',(-85.,2.4,-6.));
#66 = LINE('',#67,#68);
#67 = CARTESIAN_POINT('',(-85.,-6.661338147751E-16,-6.));
#68 = VECTOR('',#69,1.);
#69 = DIRECTION('',(0.,1.,0.));
#70 = ORIENTED_EDGE('',*,*,#71,.T.);
#71 = EDGE_CURVE('',#64,#24,#72,.T.);
#72 = CIRCLE('',#73,4.);
#73 = AXIS2_PLACEMENT_3D('',#74,#75,#76);
#74 = CARTESIAN_POINT('',(-81.,2.4,-6.));
#75 = DIRECTION('',(0.,-1.,1.110223024625E-16));
#76 = DIRECTION('',(-1.,-2.958228394579E-31,-2.6645352591E-15));
#77 = ORIENTED_EDGE('',*,*,#21,.F.);
#78 = ORIENTED_EDGE('',*,*,#79,.F.);
#79 = EDGE_CURVE('',#62,#22,#80,.T.);
#80 = CIRCLE('',#81,4.);
#81 = AXIS2_PLACEMENT_3D('',#82,#83,#84);
#82 = CARTESIAN_POINT('',(-81.,-6.661338147751E-16,-6.));
#83 = DIRECTION('',(0.,-1.,1.110223024625E-16));
#84 = DIRECTION('',(-1.,-2.958228394579E-31,-2.6645352591E-15));
#85 = CYLINDRICAL_SURFACE('',#86,4.);
#86 = AXIS2_PLACEMENT_3D('',#87,#88,#89);
#87 = CARTESIAN_POINT('',(-81.,-6.661338147751E-16,-6.));
#88 = DIRECTION('',(0.,-1.,1.110223024625E-16));
#89 = DIRECTION('',(-1.,-2.958228394579E-31,-2.6645352591E-15));
#90 = ADVANCED_FACE('',(#91),#116,.F.);
#91 = FACE_BOUND('',#92,.F.);
#92 = EDGE_LOOP('',(#93,#101,#102,#110));
#93 = ORIENTED_EDGE('',*,*,#94,.F.);
#94 = EDGE_CURVE('',#24,#95,#97,.T.);
#95 = VERTEX_POINT('',#96);
#96 = CARTESIAN_POINT('',(-81.,3.,-9.4));
#97 = LINE('',#98,#99);
#98 = CARTESIAN_POINT('',(-81.,2.7,-9.7));
#99 = VECTOR('',#100,1.);
#100 = DIRECTION('',(0.,0.707106781187,0.707106781187));
#101 = ORIENTED_EDGE('',*,*,#31,.T.);
#102 = ORIENTED_EDGE('',*,*,#103,.T.);
#103 = EDGE_CURVE('',#32,#104,#106,.T.);
#104 = VERTEX_POINT('',#105);
#105 = CARTESIAN_POINT('',(81.,3.,-9.4));
#106 = LINE('',#107,#108);
#107 = CARTESIAN_POINT('',(81.,2.7,-9.7));
#108 = VECTOR('',#109,1.);
#109 = DIRECTION('',(0.,0.707106781187,0.707106781187));
#110 = ORIENTED_EDGE('',*,*,#111,.F.);
#111 = EDGE_CURVE('',#95,#104,#112,.T.);
#112 = LINE('',#113,#114);
#113 = CARTESIAN_POINT('',(-81.,3.,-9.4));
#114 = VECTOR('',#115,1.);
#115 = DIRECTION('',(1.,0.,0.));
#116 = PLANE('',#117);
#117 = AXIS2_PLACEMENT_3D('',#118,#119,#120);
#118 = CARTESIAN_POINT('',(-81.,2.7,-9.7));
#119 = DIRECTION('',(-6.963829119075E-18,-0.707106781187,0.707106781187)
  );
#120 = DIRECTION('',(1.,-4.924170793122E-18,4.924170793122E-18));
#121 = ADVANCED_FACE('',(#122),#175,.T.);
#122 = FACE_BOUND('',#123,.T.);
#123 = EDGE_LOOP('',(#124,#125,#134,#142,#151,#159,#168,#174));
#124 = ORIENTED_EDGE('',*,*,#47,.T.);
#125 = ORIENTED_EDGE('',*,*,#126,.T.);
#126 = EDGE_CURVE('',#40,#127,#129,.T.);
#127 = VERTEX_POINT('',#128);
#128 = CARTESIAN_POINT('',(85.,-6.661338147751E-16,-6.));
#129 = CIRCLE('',#130,4.);
#130 = AXIS2_PLACEMENT_3D('',#131,#132,#133);
#131 = CARTESIAN_POINT('',(81.,-6.661338147751E-16,-6.));
#132 = DIRECTION('',(0.,-1.,1.110223024625E-16));
#133 = DIRECTION('',(3.5527136788E-15,-1.110223024625E-16,-1.));
#134 = ORIENTED_EDGE('',*,*,#135,.T.);
#135 = EDGE_CURVE('',#127,#136,#138,.T.);
#136 = VERTEX_POINT('',#137);
#137 = CARTESIAN_POINT('',(85.,6.661338147751E-16,6.));
#138 = LINE('',#139,#140);
#139 = CARTESIAN_POINT('',(85.,-6.661338147751E-16,-6.));
#140 = VECTOR('',#141,1.);
#141 = DIRECTION('',(0.,1.110223024625E-16,1.));
#142 = ORIENTED_EDGE('',*,*,#143,.T.);
#143 = EDGE_CURVE('',#136,#144,#146,.T.);
#144 = VERTEX_POINT('',#145);
#145 = CARTESIAN_POINT('',(81.,1.110223024625E-15,10.));
#146 = CIRCLE('',#147,4.);
#147 = AXIS2_PLACEMENT_3D('',#148,#149,#150);
#148 = CARTESIAN_POINT('',(81.,6.661338147751E-16,6.));
#149 = DIRECTION('',(0.,-1.,1.110223024625E-16));
#150 = DIRECTION('',(1.,2.958228394579E-31,2.6645352591E-15));
#151 = ORIENTED_EDGE('',*,*,#152,.T.);
#152 = EDGE_CURVE('',#144,#153,#155,.T.);
#153 = VERTEX_POINT('',#154);
#154 = CARTESIAN_POINT('',(-81.,1.110223024625E-15,10.));
#155 = LINE('',#156,#157);
#156 = CARTESIAN_POINT('',(81.,1.110223024625E-15,10.));
#157 = VECTOR('',#158,1.);
#158 = DIRECTION('',(-1.,0.,0.));
#159 = ORIENTED_EDGE('',*,*,#160,.T.);
#160 = EDGE_CURVE('',#153,#161,#163,.T.);
#161 = VERTEX_POINT('',#162);
#162 = CARTESIAN_POINT('',(-85.,6.661338147751E-16,6.));
#163 = CIRCLE('',#164,4.);
#164 = AXIS2_PLACEMENT_3D('',#165,#166,#167);
#165 = CARTESIAN_POINT('',(-81.,6.661338147751E-16,6.));
#166 = DIRECTION('',(0.,-1.,1.110223024625E-16));
#167 = DIRECTION('',(-3.5527136788E-15,1.110223024625E-16,1.));
#168 = ORIENTED_EDGE('',*,*,#169,.T.);
#169 = EDGE_CURVE('',#161,#62,#170,.T.);
#170 = LINE('',#171,#172);
#171 = CARTESIAN_POINT('',(-85.,6.661338147751E-16,6.));
#172 = VECTOR('',#173,1.);
#173 = DIRECTION('',(0.,-1.110223024625E-16,-1.));
#174 = ORIENTED_EDGE('',*,*,#79,.T.);
#175 = PLANE('',#176);
#176 = AXIS2_PLACEMENT_3D('',#177,#178,#179);
#177 = CARTESIAN_POINT('',(1.829494957176E-15,-3.173667851395E-33,
    -2.858585870588E-17));
#178 = DIRECTION('',(0.,-1.,1.110223024625E-16));
#179 = DIRECTION('',(1.,0.,0.));
#180 = ADVANCED_FACE('',(#181),#200,.T.);
#181 = FACE_BOUND('',#182,.T.);
#182 = EDGE_LOOP('',(#183,#184,#193,#199));
#183 = ORIENTED_EDGE('',*,*,#39,.T.);
#184 = ORIENTED_EDGE('',*,*,#185,.T.);
#185 = EDGE_CURVE('',#32,#186,#188,.T.);
#186 = VERTEX_POINT('',#187);
#187 = CARTESIAN_POINT('',(85.,2.4,-6.));
#188 = CIRCLE('',#189,4.);
#189 = AXIS2_PLACEMENT_3D('',#190,#191,#192);
#190 = CARTESIAN_POINT('',(81.,2.4,-6.));
#191 = DIRECTION('',(0.,-1.,1.110223024625E-16));
#192 = DIRECTION('',(3.5527136788E-15,-1.110223024625E-16,-1.));
#193 = ORIENTED_EDGE('',*,*,#194,.F.);
#194 = EDGE_CURVE('',#127,#186,#195,.T.);
#195 = LINE('',#196,#197);
#196 = CARTESIAN_POINT('',(85.,-6.661338147751E-16,-6.));
#197 = VECTOR('',#198,1.);
#198 = DIRECTION('',(0.,1.,0.));
#199 = ORIENTED_EDGE('',*,*,#126,.F.);
#200 = CYLINDRICAL_SURFACE('',#201,4.);
#201 = AXIS2_PLACEMENT_3D('',#202,#203,#204);
#202 = CARTESIAN_POINT('',(81.,-6.661338147751E-16,-6.));
#203 = DIRECTION('',(0.,-1.,1.110223024625E-16));
#204 = DIRECTION('',(3.5527136788E-15,-1.110223024625E-16,-1.));
#205 = ADVANCED_FACE('',(#206),#224,.T.);
#206 = FACE_BOUND('',#207,.T.);
#207 = EDGE_LOOP('',(#208,#216,#222,#223));
#208 = ORIENTED_EDGE('',*,*,#209,.T.);
#209 = EDGE_CURVE('',#161,#210,#212,.T.);
#210 = VERTEX_POINT('',#211);
#211 = CARTESIAN_POINT('',(-85.,2.4,6.));
#212 = LINE('',#213,#214);
#213 = CARTESIAN_POINT('',(-85.,6.661338147751E-16,6.));
#214 = VECTOR('',#215,1.);
#215 = DIRECTION('',(0.,1.,0.));
#216 = ORIENTED_EDGE('',*,*,#217,.T.);
#217 = EDGE_CURVE('',#210,#64,#218,.T.);
#218 = LINE('',#219,#220);
#219 = CARTESIAN_POINT('',(-85.,2.4,6.));
#220 = VECTOR('',#221,1.);
#221 = DIRECTION('',(0.,-1.110223024625E-16,-1.));
#222 = ORIENTED_EDGE('',*,*,#61,.F.);
#223 = ORIENTED_EDGE('',*,*,#169,.F.);
#224 = PLANE('',#225);
#225 = AXIS2_PLACEMENT_3D('',#226,#227,#228);
#226 = CARTESIAN_POINT('',(-85.,6.661338147751E-16,6.));
#227 = DIRECTION('',(-1.,0.,0.));
#228 = DIRECTION('',(0.,-1.110223024625E-16,-1.));
#229 = ADVANCED_FACE('',(#230),#249,.T.);
#230 = FACE_BOUND('',#231,.F.);
#231 = EDGE_LOOP('',(#232,#240,#241,#242));
#232 = ORIENTED_EDGE('',*,*,#233,.F.);
#233 = EDGE_CURVE('',#64,#234,#236,.T.);
#234 = VERTEX_POINT('',#235);
#235 = CARTESIAN_POINT('',(-84.4,3.,-6.));
#236 = LINE('',#237,#238);
#237 = CARTESIAN_POINT('',(-84.7,2.7,-6.));
#238 = VECTOR('',#239,1.);
#239 = DIRECTION('',(0.707106781187,0.707106781187,-7.850462293419E-17)
  );
#240 = ORIENTED_EDGE('',*,*,#71,.T.);
#241 = ORIENTED_EDGE('',*,*,#94,.T.);
#242 = ORIENTED_EDGE('',*,*,#243,.F.);
#243 = EDGE_CURVE('',#234,#95,#244,.T.);
#244 = CIRCLE('',#245,3.4);
#245 = AXIS2_PLACEMENT_3D('',#246,#247,#248);
#246 = CARTESIAN_POINT('',(-81.,3.,-6.));
#247 = DIRECTION('',(0.,-1.,1.110223024625E-16));
#248 = DIRECTION('',(-1.,-2.958228394579E-31,-2.6645352591E-15));
#249 = CONICAL_SURFACE('',#250,4.,0.785398163397);
#250 = AXIS2_PLACEMENT_3D('',#251,#252,#253);
#251 = CARTESIAN_POINT('',(-81.,2.4,-6.));
#252 = DIRECTION('',(0.,-1.,1.110223024625E-16));
#253 = DIRECTION('',(-1.,-2.958228394579E-31,-2.6645352591E-15));
#254 = ADVANCED_FACE('',(#255),#308,.F.);
#255 = FACE_BOUND('',#256,.F.);
#256 = EDGE_LOOP('',(#257,#258,#267,#275,#284,#292,#301,#307));
#257 = ORIENTED_EDGE('',*,*,#111,.T.);
#258 = ORIENTED_EDGE('',*,*,#259,.T.);
#259 = EDGE_CURVE('',#104,#260,#262,.T.);
#260 = VERTEX_POINT('',#261);
#261 = CARTESIAN_POINT('',(84.4,3.,-6.));
#262 = CIRCLE('',#263,3.4);
#263 = AXIS2_PLACEMENT_3D('',#264,#265,#266);
#264 = CARTESIAN_POINT('',(81.,3.,-6.));
#265 = DIRECTION('',(0.,-1.,1.110223024625E-16));
#266 = DIRECTION('',(3.5527136788E-15,-1.110223024625E-16,-1.));
#267 = ORIENTED_EDGE('',*,*,#268,.T.);
#268 = EDGE_CURVE('',#260,#269,#271,.T.);
#269 = VERTEX_POINT('',#270);
#270 = CARTESIAN_POINT('',(84.4,3.,6.));
#271 = LINE('',#272,#273);
#272 = CARTESIAN_POINT('',(84.4,3.,-6.));
#273 = VECTOR('',#274,1.);
#274 = DIRECTION('',(0.,1.110223024625E-16,1.));
#275 = ORIENTED_EDGE('',*,*,#276,.T.);
#276 = EDGE_CURVE('',#269,#277,#279,.T.);
#277 = VERTEX_POINT('',#278);
#278 = CARTESIAN_POINT('',(81.,3.,9.4));
#279 = CIRCLE('',#280,3.4);
#280 = AXIS2_PLACEMENT_3D('',#281,#282,#283);
#281 = CARTESIAN_POINT('',(81.,3.,6.));
#282 = DIRECTION('',(0.,-1.,1.110223024625E-16));
#283 = DIRECTION('',(1.,2.958228394579E-31,2.6645352591E-15));
#284 = ORIENTED_EDGE('',*,*,#285,.T.);
#285 = EDGE_CURVE('',#277,#286,#288,.T.);
#286 = VERTEX_POINT('',#287);
#287 = CARTESIAN_POINT('',(-81.,3.,9.4));
#288 = LINE('',#289,#290);
#289 = CARTESIAN_POINT('',(81.,3.,9.4));
#290 = VECTOR('',#291,1.);
#291 = DIRECTION('',(-1.,0.,0.));
#292 = ORIENTED_EDGE('',*,*,#293,.T.);
#293 = EDGE_CURVE('',#286,#294,#296,.T.);
#294 = VERTEX_POINT('',#295);
#295 = CARTESIAN_POINT('',(-84.4,3.,6.));
#296 = CIRCLE('',#297,3.4);
#297 = AXIS2_PLACEMENT_3D('',#298,#299,#300);
#298 = CARTESIAN_POINT('',(-81.,3.,6.));
#299 = DIRECTION('',(0.,-1.,1.110223024625E-16));
#300 = DIRECTION('',(-3.5527136788E-15,1.110223024625E-16,1.));
#301 = ORIENTED_EDGE('',*,*,#302,.T.);
#302 = EDGE_CURVE('',#294,#234,#303,.T.);
#303 = LINE('',#304,#305);
#304 = CARTESIAN_POINT('',(-84.4,3.,6.));
#305 = VECTOR('',#306,1.);
#306 = DIRECTION('',(0.,-1.110223024625E-16,-1.));
#307 = ORIENTED_EDGE('',*,*,#243,.T.);
#308 = PLANE('',#309);
#309 = AXIS2_PLACEMENT_3D('',#310,#311,#312);
#310 = CARTESIAN_POINT('',(1.829494957176E-15,3.,-2.858585870588E-17));
#311 = DIRECTION('',(0.,-1.,1.110223024625E-16));
#312 = DIRECTION('',(1.,0.,0.));
#313 = ADVANCED_FACE('',(#314),#325,.T.);
#314 = FACE_BOUND('',#315,.F.);
#315 = EDGE_LOOP('',(#316,#317,#318,#324));
#316 = ORIENTED_EDGE('',*,*,#103,.F.);
#317 = ORIENTED_EDGE('',*,*,#185,.T.);
#318 = ORIENTED_EDGE('',*,*,#319,.T.);
#319 = EDGE_CURVE('',#186,#260,#320,.T.);
#320 = LINE('',#321,#322);
#321 = CARTESIAN_POINT('',(85.,2.4,-6.));
#322 = VECTOR('',#323,1.);
#323 = DIRECTION('',(-0.707106781187,0.707106781187,1.848904130298E-15)
  );
#324 = ORIENTED_EDGE('',*,*,#259,.F.);
#325 = CONICAL_SURFACE('',#326,4.,0.785398163397);
#326 = AXIS2_PLACEMENT_3D('',#327,#328,#329);
#327 = CARTESIAN_POINT('',(81.,2.4,-6.));
#328 = DIRECTION('',(0.,-1.,1.110223024625E-16));
#329 = DIRECTION('',(3.5527136788E-15,-1.110223024625E-16,-1.));
#330 = ADVANCED_FACE('',(#331),#349,.T.);
#331 = FACE_BOUND('',#332,.T.);
#332 = EDGE_LOOP('',(#333,#334,#342,#348));
#333 = ORIENTED_EDGE('',*,*,#194,.T.);
#334 = ORIENTED_EDGE('',*,*,#335,.T.);
#335 = EDGE_CURVE('',#186,#336,#338,.T.);
#336 = VERTEX_POINT('',#337);
#337 = CARTESIAN_POINT('',(85.,2.4,6.));
#338 = LINE('',#339,#340);
#339 = CARTESIAN_POINT('',(85.,2.4,-6.));
#340 = VECTOR('',#341,1.);
#341 = DIRECTION('',(0.,1.110223024625E-16,1.));
#342 = ORIENTED_EDGE('',*,*,#343,.F.);
#343 = EDGE_CURVE('',#136,#336,#344,.T.);
#344 = LINE('',#345,#346);
#345 = CARTESIAN_POINT('',(85.,6.661338147751E-16,6.));
#346 = VECTOR('',#347,1.);
#347 = DIRECTION('',(0.,1.,0.));
#348 = ORIENTED_EDGE('',*,*,#135,.F.);
#349 = PLANE('',#350);
#350 = AXIS2_PLACEMENT_3D('',#351,#352,#353);
#351 = CARTESIAN_POINT('',(85.,-6.661338147751E-16,-6.));
#352 = DIRECTION('',(1.,0.,0.));
#353 = DIRECTION('',(0.,1.110223024625E-16,1.));
#354 = ADVANCED_FACE('',(#355),#374,.T.);
#355 = FACE_BOUND('',#356,.T.);
#356 = EDGE_LOOP('',(#357,#358,#367,#373));
#357 = ORIENTED_EDGE('',*,*,#343,.T.);
#358 = ORIENTED_EDGE('',*,*,#359,.T.);
#359 = EDGE_CURVE('',#336,#360,#362,.T.);
#360 = VERTEX_POINT('',#361);
#361 = CARTESIAN_POINT('',(81.,2.4,10.));
#362 = CIRCLE('',#363,4.);
#363 = AXIS2_PLACEMENT_3D('',#364,#365,#366);
#364 = CARTESIAN_POINT('',(81.,2.4,6.));
#365 = DIRECTION('',(0.,-1.,1.110223024625E-16));
#366 = DIRECTION('',(1.,2.958228394579E-31,2.6645352591E-15));
#367 = ORIENTED_EDGE('',*,*,#368,.F.);
#368 = EDGE_CURVE('',#144,#360,#369,.T.);
#369 = LINE('',#370,#371);
#370 = CARTESIAN_POINT('',(81.,1.110223024625E-15,10.));
#371 = VECTOR('',#372,1.);
#372 = DIRECTION('',(0.,1.,0.));
#373 = ORIENTED_EDGE('',*,*,#143,.F.);
#374 = CYLINDRICAL_SURFACE('',#375,4.);
#375 = AXIS2_PLACEMENT_3D('',#376,#377,#378);
#376 = CARTESIAN_POINT('',(81.,6.661338147751E-16,6.));
#377 = DIRECTION('',(0.,-1.,1.110223024625E-16));
#378 = DIRECTION('',(1.,2.958228394579E-31,2.6645352591E-15));
#379 = ADVANCED_FACE('',(#380),#398,.T.);
#380 = FACE_BOUND('',#381,.T.);
#381 = EDGE_LOOP('',(#382,#383,#391,#397));
#382 = ORIENTED_EDGE('',*,*,#368,.T.);
#383 = ORIENTED_EDGE('',*,*,#384,.T.);
#384 = EDGE_CURVE('',#360,#385,#387,.T.);
#385 = VERTEX_POINT('',#386);
#386 = CARTESIAN_POINT('',(-81.,2.4,10.));
#387 = LINE('',#388,#389);
#388 = CARTESIAN_POINT('',(81.,2.4,10.));
#389 = VECTOR('',#390,1.);
#390 = DIRECTION('',(-1.,0.,0.));
#391 = ORIENTED_EDGE('',*,*,#392,.F.);
#392 = EDGE_CURVE('',#153,#385,#393,.T.);
#393 = LINE('',#394,#395);
#394 = CARTESIAN_POINT('',(-81.,1.110223024625E-15,10.));
#395 = VECTOR('',#396,1.);
#396 = DIRECTION('',(0.,1.,0.));
#397 = ORIENTED_EDGE('',*,*,#152,.F.);
#398 = PLANE('',#399);
#399 = AXIS2_PLACEMENT_3D('',#400,#401,#402);
#400 = CARTESIAN_POINT('',(81.,1.110223024625E-15,10.));
#401 = DIRECTION('',(0.,0.,1.));
#402 = DIRECTION('',(-1.,0.,0.));
#403 = ADVANCED_FACE('',(#404),#416,.T.);
#404 = FACE_BOUND('',#405,.T.);
#405 = EDGE_LOOP('',(#406,#407,#414,#415));
#406 = ORIENTED_EDGE('',*,*,#392,.T.);
#407 = ORIENTED_EDGE('',*,*,#408,.T.);
#408 = EDGE_CURVE('',#385,#210,#409,.T.);
#409 = CIRCLE('',#410,4.);
#410 = AXIS2_PLACEMENT_3D('',#411,#412,#413);
#411 = CARTESIAN_POINT('',(-81.,2.4,6.));
#412 = DIRECTION('',(0.,-1.,1.110223024625E-16));
#413 = DIRECTION('',(-3.5527136788E-15,1.110223024625E-16,1.));
#414 = ORIENTED_EDGE('',*,*,#209,.F.);
#415 = ORIENTED_EDGE('',*,*,#160,.F.);
#416 = CYLINDRICAL_SURFACE('',#417,4.);
#417 = AXIS2_PLACEMENT_3D('',#418,#419,#420);
#418 = CARTESIAN_POINT('',(-81.,6.661338147751E-16,6.));
#419 = DIRECTION('',(0.,-1.,1.110223024625E-16));
#420 = DIRECTION('',(-3.5527136788E-15,1.110223024625E-16,1.));
#421 = ADVANCED_FACE('',(#422),#433,.F.);
#422 = FACE_BOUND('',#423,.F.);
#423 = EDGE_LOOP('',(#424,#430,#431,#432));
#424 = ORIENTED_EDGE('',*,*,#425,.F.);
#425 = EDGE_CURVE('',#210,#294,#426,.T.);
#426 = LINE('',#427,#428);
#427 = CARTESIAN_POINT('',(-85.,2.4,6.));
#428 = VECTOR('',#429,1.);
#429 = DIRECTION('',(0.707106781187,0.707106781187,-2.005913376166E-15)
  );
#430 = ORIENTED_EDGE('',*,*,#217,.T.);
#431 = ORIENTED_EDGE('',*,*,#233,.T.);
#432 = ORIENTED_EDGE('',*,*,#302,.F.);
#433 = PLANE('',#434);
#434 = AXIS2_PLACEMENT_3D('',#435,#436,#437);
#435 = CARTESIAN_POINT('',(-84.7,2.7,6.));
#436 = DIRECTION('',(0.707106781187,-0.707106781187,5.57106329526E-17));
#437 = DIRECTION('',(-1.611778488628E-17,-9.490451757623E-17,-1.));
#438 = ADVANCED_FACE('',(#439),#450,.F.);
#439 = FACE_BOUND('',#440,.F.);
#440 = EDGE_LOOP('',(#441,#442,#443,#449));
#441 = ORIENTED_EDGE('',*,*,#319,.F.);
#442 = ORIENTED_EDGE('',*,*,#335,.T.);
#443 = ORIENTED_EDGE('',*,*,#444,.T.);
#444 = EDGE_CURVE('',#336,#269,#445,.T.);
#445 = LINE('',#446,#447);
#446 = CARTESIAN_POINT('',(84.7,2.7,6.));
#447 = VECTOR('',#448,1.);
#448 = DIRECTION('',(-0.707106781187,0.707106781187,-7.850462293419E-17)
  );
#449 = ORIENTED_EDGE('',*,*,#268,.F.);
#450 = PLANE('',#451);
#451 = AXIS2_PLACEMENT_3D('',#452,#453,#454);
#452 = CARTESIAN_POINT('',(84.7,2.7,-6.));
#453 = DIRECTION('',(-0.707106781187,-0.707106781187,6.963829119075E-17)
  );
#454 = DIRECTION('',(-6.269443300038E-18,1.047528591625E-16,1.));
#455 = ADVANCED_FACE('',(#456),#467,.T.);
#456 = FACE_BOUND('',#457,.F.);
#457 = EDGE_LOOP('',(#458,#464,#465,#466));
#458 = ORIENTED_EDGE('',*,*,#459,.F.);
#459 = EDGE_CURVE('',#385,#286,#460,.T.);
#460 = LINE('',#461,#462);
#461 = CARTESIAN_POINT('',(-81.,2.7,9.7));
#462 = VECTOR('',#463,1.);
#463 = DIRECTION('',(0.,0.707106781187,-0.707106781187));
#464 = ORIENTED_EDGE('',*,*,#408,.T.);
#465 = ORIENTED_EDGE('',*,*,#425,.T.);
#466 = ORIENTED_EDGE('',*,*,#293,.F.);
#467 = CONICAL_SURFACE('',#468,4.,0.785398163397);
#468 = AXIS2_PLACEMENT_3D('',#469,#470,#471);
#469 = CARTESIAN_POINT('',(-81.,2.4,6.));
#470 = DIRECTION('',(0.,-1.,1.110223024625E-16));
#471 = DIRECTION('',(-3.5527136788E-15,1.110223024625E-16,1.));
#472 = ADVANCED_FACE('',(#473),#484,.T.);
#473 = FACE_BOUND('',#474,.F.);
#474 = EDGE_LOOP('',(#475,#476,#477,#483));
#475 = ORIENTED_EDGE('',*,*,#444,.F.);
#476 = ORIENTED_EDGE('',*,*,#359,.T.);
#477 = ORIENTED_EDGE('',*,*,#478,.T.);
#478 = EDGE_CURVE('',#360,#277,#479,.T.);
#479 = LINE('',#480,#481);
#480 = CARTESIAN_POINT('',(81.,2.4,10.));
#481 = VECTOR('',#482,1.);
#482 = DIRECTION('',(-2.555445736706E-15,0.707106781187,-0.707106781187)
  );
#483 = ORIENTED_EDGE('',*,*,#276,.F.);
#484 = CONICAL_SURFACE('',#485,4.,0.785398163397);
#485 = AXIS2_PLACEMENT_3D('',#486,#487,#488);
#486 = CARTESIAN_POINT('',(81.,2.4,6.));
#487 = DIRECTION('',(0.,-1.,1.110223024625E-16));
#488 = DIRECTION('',(1.,2.958228394579E-31,2.6645352591E-15));
#489 = ADVANCED_FACE('',(#490),#496,.F.);
#490 = FACE_BOUND('',#491,.F.);
#491 = EDGE_LOOP('',(#492,#493,#494,#495));
#492 = ORIENTED_EDGE('',*,*,#478,.F.);
#493 = ORIENTED_EDGE('',*,*,#384,.T.);
#494 = ORIENTED_EDGE('',*,*,#459,.T.);
#495 = ORIENTED_EDGE('',*,*,#285,.F.);
#496 = PLANE('',#497);
#497 = AXIS2_PLACEMENT_3D('',#498,#499,#500);
#498 = CARTESIAN_POINT('',(81.,2.7,9.7));
#499 = DIRECTION('',(6.963829119075E-18,-0.707106781187,-0.707106781187)
  );
#500 = DIRECTION('',(-1.,-4.924170793122E-18,-4.924170793122E-18));
#501 = ( GEOMETRIC_REPRESENTATION_CONTEXT(3) 
GLOBAL_UNCERTAINTY_ASSIGNED_CONTEXT((#505)) GLOBAL_UNIT_ASSIGNED_CONTEXT
((#502,#503,#504)) REPRESENTATION_CONTEXT('Context #1',
  '3D Context with UNIT and UNCERTAINTY') );
#502 = ( LENGTH_UNIT() NAMED_UNIT(*) SI_UNIT(.MILLI.,.METRE.) );
#503 = ( NAMED_UNIT(*) PLANE_ANGLE_UNIT() SI_UNIT($,.RADIAN.) );
#504 = ( NAMED_UNIT(*) SI_UNIT($,.STERADIAN.) SOLID_ANGLE_UNIT() );
#505 = UNCERTAINTY_MEASURE_WITH_UNIT(LENGTH_MEASURE(1.E-07),#502,
  'distance_accuracy_value','confusion accuracy');
#506 = PRODUCT_RELATED_PRODUCT_CATEGORY('part',$,(#7));
ENDSEC;
END-ISO-10303-21;
