solid 
 facet normal -1.000000e+00  0.000000e+00  0.000000e+00
   outer loop
     vertex -7.500000e+01  5.000000e+00  2.500000e+00
     vertex -7.500000e+01  7.000000e+00  0.000000e+00
     vertex -7.500000e+01  5.000000e+00  0.000000e+00
   endloop
 endfacet
 facet normal -1.000000e+00  0.000000e+00 -0.000000e+00
   outer loop
     vertex -7.500000e+01  7.000000e+00  5.000000e+00
     vertex -7.500000e+01  7.000000e+00  0.000000e+00
     vertex -7.500000e+01  5.000000e+00  2.500000e+00
   endloop
 endfacet
 facet normal -1.000000e+00  0.000000e+00 -0.000000e+00
   outer loop
     vertex -7.500000e+01 -5.000000e+00  2.500000e+00
     vertex -7.500000e+01 -5.000000e+00  0.000000e+00
     vertex -7.500000e+01 -7.000000e+00  0.000000e+00
   endloop
 endfacet
 facet normal -1.000000e+00  0.000000e+00  0.000000e+00
   outer loop
     vertex -7.500000e+01 -7.000000e+00  5.000000e+00
     vertex -7.500000e+01  5.000000e+00  2.500000e+00
     vertex -7.500000e+01 -5.000000e+00  2.500000e+00
   endloop
 endfacet
 facet normal -1.000000e+00  0.000000e+00  0.000000e+00
   outer loop
     vertex -7.500000e+01 -7.000000e+00  5.000000e+00
     vertex -7.500000e+01  7.000000e+00  5.000000e+00
     vertex -7.500000e+01  5.000000e+00  2.500000e+00
   endloop
 endfacet
 facet normal -1.000000e+00  0.000000e+00  0.000000e+00
   outer loop
     vertex -7.500000e+01 -7.000000e+00  5.000000e+00
     vertex -7.500000e+01 -5.000000e+00  2.500000e+00
     vertex -7.500000e+01 -7.000000e+00  0.000000e+00
   endloop
 endfacet
 facet normal  0.000000e+00  0.000000e+00  1.000000e+00
   outer loop
     vertex -6.200000e+01  7.000000e+00  5.000000e+00
     vertex -7.500000e+01  7.000000e+00  5.000000e+00
     vertex -7.500000e+01 -7.000000e+00  5.000000e+00
   endloop
 endfacet
 facet normal  0.000000e+00  0.000000e+00  1.000000e+00
   outer loop
     vertex -6.200000e+01  7.000000e+00  5.000000e+00
     vertex -7.500000e+01 -7.000000e+00  5.000000e+00
     vertex -6.200000e+01 -7.000000e+00  5.000000e+00
   endloop
 endfacet
 facet normal  0.000000e+00  1.000000e+00  0.000000e+00
   outer loop
     vertex -6.200000e+01  7.000000e+00  4.000000e+00
     vertex -7.500000e+01  7.000000e+00  0.000000e+00
     vertex -7.500000e+01  7.000000e+00  5.000000e+00
   endloop
 endfacet
 facet normal  0.000000e+00  1.000000e+00  0.000000e+00
   outer loop
     vertex -6.200000e+01  7.000000e+00  5.000000e+00
     vertex -6.200000e+01  7.000000e+00  4.000000e+00
     vertex -7.500000e+01  7.000000e+00  5.000000e+00
   endloop
 endfacet
 facet normal  0.000000e+00  1.000000e+00  0.000000e+00
   outer loop
     vertex -5.800000e+01  7.000000e+00  4.000000e+00
     vertex -7.500000e+01  7.000000e+00  0.000000e+00
     vertex -6.200000e+01  7.000000e+00  4.000000e+00
   endloop
 endfacet
 facet normal  0.000000e+00  1.000000e+00  0.000000e+00
   outer loop
     vertex  5.800000e+01  7.000000e+00  5.000000e+00
     vertex -5.800000e+01  7.000000e+00  4.000000e+00
     vertex -5.800000e+01  7.000000e+00  5.000000e+00
   endloop
 endfacet
 facet normal  0.000000e+00  1.000000e+00  0.000000e+00
   outer loop
     vertex  5.800000e+01  7.000000e+00  5.000000e+00
     vertex  5.800000e+01  7.000000e+00  4.000000e+00
     vertex -5.800000e+01  7.000000e+00  4.000000e+00
   endloop
 endfacet
 facet normal  0.000000e+00  1.000000e+00  0.000000e+00
   outer loop
     vertex  7.500000e+01  7.000000e+00  0.000000e+00
     vertex  5.800000e+01  7.000000e+00  4.000000e+00
     vertex  6.200000e+01  7.000000e+00  4.000000e+00
   endloop
 endfacet
 facet normal  0.000000e+00  1.000000e+00  0.000000e+00
   outer loop
     vertex  7.500000e+01  7.000000e+00  5.000000e+00
     vertex  6.200000e+01  7.000000e+00  4.000000e+00
     vertex  6.200000e+01  7.000000e+00  5.000000e+00
   endloop
 endfacet
 facet normal  0.000000e+00  1.000000e+00  0.000000e+00
   outer loop
     vertex  7.500000e+01  7.000000e+00  5.000000e+00
     vertex  7.500000e+01  7.000000e+00  0.000000e+00
     vertex  6.200000e+01  7.000000e+00  4.000000e+00
   endloop
 endfacet
 facet normal  0.000000e+00  1.000000e+00  0.000000e+00
   outer loop
     vertex  7.500000e+01  7.000000e+00  0.000000e+00
     vertex -7.500000e+01  7.000000e+00  0.000000e+00
     vertex -5.800000e+01  7.000000e+00  4.000000e+00
   endloop
 endfacet
 facet normal  0.000000e+00  1.000000e+00  0.000000e+00
   outer loop
     vertex  7.500000e+01  7.000000e+00  0.000000e+00
     vertex -5.800000e+01  7.000000e+00  4.000000e+00
     vertex  5.800000e+01  7.000000e+00  4.000000e+00
   endloop
 endfacet
 facet normal  0.000000e+00  0.000000e+00 -1.000000e+00
   outer loop
     vertex  7.500000e+01  5.000000e+00  0.000000e+00
     vertex -7.500000e+01  5.000000e+00  0.000000e+00
     vertex -7.500000e+01  7.000000e+00  0.000000e+00
   endloop
 endfacet
 facet normal -0.000000e+00 -0.000000e+00 -1.000000e+00
   outer loop
     vertex  7.500000e+01  7.000000e+00  0.000000e+00
     vertex  7.500000e+01  5.000000e+00  0.000000e+00
     vertex -7.500000e+01  7.000000e+00  0.000000e+00
   endloop
 endfacet
 facet normal  0.000000e+00 -1.000000e+00  0.000000e+00
   outer loop
     vertex  7.500000e+01  5.000000e+00  0.000000e+00
     vertex -7.500000e+01  5.000000e+00  2.500000e+00
     vertex -7.500000e+01  5.000000e+00  0.000000e+00
   endloop
 endfacet
 facet normal -0.000000e+00 -1.000000e+00 -0.000000e+00
   outer loop
     vertex  7.500000e+01  5.000000e+00  2.500000e+00
     vertex -7.500000e+01  5.000000e+00  2.500000e+00
     vertex  7.500000e+01  5.000000e+00  0.000000e+00
   endloop
 endfacet
 facet normal  0.000000e+00  0.000000e+00 -1.000000e+00
   outer loop
     vertex  7.500000e+01 -5.000000e+00  2.500000e+00
     vertex -7.500000e+01 -5.000000e+00  2.500000e+00
     vertex -7.500000e+01  5.000000e+00  2.500000e+00
   endloop
 endfacet
 facet normal -0.000000e+00 -0.000000e+00 -1.000000e+00
   outer loop
     vertex  7.500000e+01  5.000000e+00  2.500000e+00
     vertex  7.500000e+01 -5.000000e+00  2.500000e+00
     vertex -7.500000e+01  5.000000e+00  2.500000e+00
   endloop
 endfacet
 facet normal  0.000000e+00  1.000000e+00  0.000000e+00
   outer loop
     vertex  7.500000e+01 -5.000000e+00  0.000000e+00
     vertex -7.500000e+01 -5.000000e+00  0.000000e+00
     vertex -7.500000e+01 -5.000000e+00  2.500000e+00
   endloop
 endfacet
 facet normal  0.000000e+00  1.000000e+00  0.000000e+00
   outer loop
     vertex  7.500000e+01 -5.000000e+00  2.500000e+00
     vertex  7.500000e+01 -5.000000e+00  0.000000e+00
     vertex -7.500000e+01 -5.000000e+00  2.500000e+00
   endloop
 endfacet
 facet normal  0.000000e+00  0.000000e+00 -1.000000e+00
   outer loop
     vertex  7.500000e+01 -7.000000e+00  0.000000e+00
     vertex -7.500000e+01 -7.000000e+00  0.000000e+00
     vertex -7.500000e+01 -5.000000e+00  0.000000e+00
   endloop
 endfacet
 facet normal -0.000000e+00 -0.000000e+00 -1.000000e+00
   outer loop
     vertex  7.500000e+01 -5.000000e+00  0.000000e+00
     vertex  7.500000e+01 -7.000000e+00  0.000000e+00
     vertex -7.500000e+01 -5.000000e+00  0.000000e+00
   endloop
 endfacet
 facet normal -0.000000e+00 -1.000000e+00  0.000000e+00
   outer loop
     vertex -6.200000e+01 -7.000000e+00  4.000000e+00
     vertex -7.500000e+01 -7.000000e+00  5.000000e+00
     vertex -7.500000e+01 -7.000000e+00  0.000000e+00
   endloop
 endfacet
 facet normal -0.000000e+00 -1.000000e+00 -0.000000e+00
   outer loop
     vertex -6.200000e+01 -7.000000e+00  5.000000e+00
     vertex -7.500000e+01 -7.000000e+00  5.000000e+00
     vertex -6.200000e+01 -7.000000e+00  4.000000e+00
   endloop
 endfacet
 facet normal -0.000000e+00 -1.000000e+00  0.000000e+00
   outer loop
     vertex -5.800000e+01 -7.000000e+00  4.000000e+00
     vertex -6.200000e+01 -7.000000e+00  4.000000e+00
     vertex -7.500000e+01 -7.000000e+00  0.000000e+00
   endloop
 endfacet
 facet normal -0.000000e+00 -1.000000e+00  0.000000e+00
   outer loop
     vertex  5.800000e+01 -7.000000e+00  5.000000e+00
     vertex -5.800000e+01 -7.000000e+00  5.000000e+00
     vertex -5.800000e+01 -7.000000e+00  4.000000e+00
   endloop
 endfacet
 facet normal  0.000000e+00 -1.000000e+00 -0.000000e+00
   outer loop
     vertex  5.800000e+01 -7.000000e+00  5.000000e+00
     vertex -5.800000e+01 -7.000000e+00  4.000000e+00
     vertex  5.800000e+01 -7.000000e+00  4.000000e+00
   endloop
 endfacet
 facet normal  0.000000e+00 -1.000000e+00  0.000000e+00
   outer loop
     vertex  7.500000e+01 -7.000000e+00  0.000000e+00
     vertex  6.200000e+01 -7.000000e+00  4.000000e+00
     vertex  5.800000e+01 -7.000000e+00  4.000000e+00
   endloop
 endfacet
 facet normal -0.000000e+00 -1.000000e+00  0.000000e+00
   outer loop
     vertex  7.500000e+01 -7.000000e+00  5.000000e+00
     vertex  6.200000e+01 -7.000000e+00  5.000000e+00
     vertex  6.200000e+01 -7.000000e+00  4.000000e+00
   endloop
 endfacet
 facet normal  0.000000e+00 -1.000000e+00 -0.000000e+00
   outer loop
     vertex  7.500000e+01 -7.000000e+00  5.000000e+00
     vertex  6.200000e+01 -7.000000e+00  4.000000e+00
     vertex  7.500000e+01 -7.000000e+00  0.000000e+00
   endloop
 endfacet
 facet normal  0.000000e+00 -1.000000e+00  0.000000e+00
   outer loop
     vertex  7.500000e+01 -7.000000e+00  0.000000e+00
     vertex -5.800000e+01 -7.000000e+00  4.000000e+00
     vertex -7.500000e+01 -7.000000e+00  0.000000e+00
   endloop
 endfacet
 facet normal  0.000000e+00 -1.000000e+00  0.000000e+00
   outer loop
     vertex  7.500000e+01 -7.000000e+00  0.000000e+00
     vertex  5.800000e+01 -7.000000e+00  4.000000e+00
     vertex -5.800000e+01 -7.000000e+00  4.000000e+00
   endloop
 endfacet
 facet normal  1.000000e+00  0.000000e+00  0.000000e+00
   outer loop
     vertex -6.200000e+01 -7.000000e+00  5.000000e+00
     vertex -6.200000e+01 -7.000000e+00  4.000000e+00
     vertex -6.200000e+01  7.000000e+00  4.000000e+00
   endloop
 endfacet
 facet normal  1.000000e+00 -0.000000e+00  0.000000e+00
   outer loop
     vertex -6.200000e+01 -7.000000e+00  5.000000e+00
     vertex -6.200000e+01  7.000000e+00  4.000000e+00
     vertex -6.200000e+01  7.000000e+00  5.000000e+00
   endloop
 endfacet
 facet normal  0.000000e+00  0.000000e+00  1.000000e+00
   outer loop
     vertex  6.200000e+01  7.000000e+00  5.000000e+00
     vertex  6.200000e+01 -7.000000e+00  5.000000e+00
     vertex  7.500000e+01 -7.000000e+00  5.000000e+00
   endloop
 endfacet
 facet normal  0.000000e+00  0.000000e+00  1.000000e+00
   outer loop
     vertex  7.500000e+01  7.000000e+00  5.000000e+00
     vertex  6.200000e+01  7.000000e+00  5.000000e+00
     vertex  7.500000e+01 -7.000000e+00  5.000000e+00
   endloop
 endfacet
 facet normal -1.000000e+00  0.000000e+00  0.000000e+00
   outer loop
     vertex  6.200000e+01 -7.000000e+00  5.000000e+00
     vertex  6.200000e+01  7.000000e+00  4.000000e+00
     vertex  6.200000e+01 -7.000000e+00  4.000000e+00
   endloop
 endfacet
 facet normal -1.000000e+00  0.000000e+00  0.000000e+00
   outer loop
     vertex  6.200000e+01 -7.000000e+00  5.000000e+00
     vertex  6.200000e+01  7.000000e+00  5.000000e+00
     vertex  6.200000e+01  7.000000e+00  4.000000e+00
   endloop
 endfacet
 facet normal  0.000000e+00  0.000000e+00  1.000000e+00
   outer loop
     vertex  5.800000e+01  7.000000e+00  4.000000e+00
     vertex  5.800000e+01 -7.000000e+00  4.000000e+00
     vertex  6.200000e+01 -7.000000e+00  4.000000e+00
   endloop
 endfacet
 facet normal  0.000000e+00  0.000000e+00  1.000000e+00
   outer loop
     vertex  6.200000e+01  7.000000e+00  4.000000e+00
     vertex  5.800000e+01  7.000000e+00  4.000000e+00
     vertex  6.200000e+01 -7.000000e+00  4.000000e+00
   endloop
 endfacet
 facet normal  1.000000e+00  0.000000e+00  0.000000e+00
   outer loop
     vertex  5.800000e+01 -7.000000e+00  5.000000e+00
     vertex  5.800000e+01 -7.000000e+00  4.000000e+00
     vertex  5.800000e+01  7.000000e+00  4.000000e+00
   endloop
 endfacet
 facet normal  1.000000e+00 -0.000000e+00  0.000000e+00
   outer loop
     vertex  5.800000e+01 -7.000000e+00  5.000000e+00
     vertex  5.800000e+01  7.000000e+00  4.000000e+00
     vertex  5.800000e+01  7.000000e+00  5.000000e+00
   endloop
 endfacet
 facet normal  0.000000e+00  0.000000e+00  1.000000e+00
   outer loop
     vertex  5.800000e+01 -7.000000e+00  5.000000e+00
     vertex -5.800000e+01  7.000000e+00  5.000000e+00
     vertex -5.800000e+01 -7.000000e+00  5.000000e+00
   endloop
 endfacet
 facet normal  0.000000e+00  0.000000e+00  1.000000e+00
   outer loop
     vertex  5.800000e+01  7.000000e+00  5.000000e+00
     vertex -5.800000e+01  7.000000e+00  5.000000e+00
     vertex  5.800000e+01 -7.000000e+00  5.000000e+00
   endloop
 endfacet
 facet normal -1.000000e+00  0.000000e+00  0.000000e+00
   outer loop
     vertex -5.800000e+01 -7.000000e+00  5.000000e+00
     vertex -5.800000e+01  7.000000e+00  4.000000e+00
     vertex -5.800000e+01 -7.000000e+00  4.000000e+00
   endloop
 endfacet
 facet normal -1.000000e+00  0.000000e+00  0.000000e+00
   outer loop
     vertex -5.800000e+01 -7.000000e+00  5.000000e+00
     vertex -5.800000e+01  7.000000e+00  5.000000e+00
     vertex -5.800000e+01  7.000000e+00  4.000000e+00
   endloop
 endfacet
 facet normal  0.000000e+00  0.000000e+00  1.000000e+00
   outer loop
     vertex -6.200000e+01  7.000000e+00  4.000000e+00
     vertex -6.200000e+01 -7.000000e+00  4.000000e+00
     vertex -5.800000e+01 -7.000000e+00  4.000000e+00
   endloop
 endfacet
 facet normal  0.000000e+00  0.000000e+00  1.000000e+00
   outer loop
     vertex -5.800000e+01  7.000000e+00  4.000000e+00
     vertex -6.200000e+01  7.000000e+00  4.000000e+00
     vertex -5.800000e+01 -7.000000e+00  4.000000e+00
   endloop
 endfacet
 facet normal  1.000000e+00  0.000000e+00  0.000000e+00
   outer loop
     vertex  7.500000e+01  5.000000e+00  2.500000e+00
     vertex  7.500000e+01  5.000000e+00  0.000000e+00
     vertex  7.500000e+01  7.000000e+00  0.000000e+00
   endloop
 endfacet
 facet normal  1.000000e+00  0.000000e+00  0.000000e+00
   outer loop
     vertex  7.500000e+01  7.000000e+00  5.000000e+00
     vertex  7.500000e+01  5.000000e+00  2.500000e+00
     vertex  7.500000e+01  7.000000e+00  0.000000e+00
   endloop
 endfacet
 facet normal  1.000000e+00  0.000000e+00  0.000000e+00
   outer loop
     vertex  7.500000e+01 -5.000000e+00  2.500000e+00
     vertex  7.500000e+01 -7.000000e+00  0.000000e+00
     vertex  7.500000e+01 -5.000000e+00  0.000000e+00
   endloop
 endfacet
 facet normal  1.000000e+00  0.000000e+00  0.000000e+00
   outer loop
     vertex  7.500000e+01 -7.000000e+00  5.000000e+00
     vertex  7.500000e+01 -5.000000e+00  2.500000e+00
     vertex  7.500000e+01  5.000000e+00  2.500000e+00
   endloop
 endfacet
 facet normal  1.000000e+00 -0.000000e+00  0.000000e+00
   outer loop
     vertex  7.500000e+01 -7.000000e+00  5.000000e+00
     vertex  7.500000e+01  5.000000e+00  2.500000e+00
     vertex  7.500000e+01  7.000000e+00  5.000000e+00
   endloop
 endfacet
 facet normal  1.000000e+00  0.000000e+00  0.000000e+00
   outer loop
     vertex  7.500000e+01 -7.000000e+00  5.000000e+00
     vertex  7.500000e+01 -7.000000e+00  0.000000e+00
     vertex  7.500000e+01 -5.000000e+00  2.500000e+00
   endloop
 endfacet
endsolid
