<?xml version="1.0" encoding="UTF-8"?>
<svg xmlns="http://www.w3.org/2000/svg" width="950" height="700"
     font-family="Arial, sans-serif">
  <rect width="950" height="700" fill="#fafafa"/>
  <text x="475" y="28" text-anchor="middle" font-size="17"
        font-weight="bold" fill="#1e3a5f">
    CSM V3 -- Cylinder V3.0 (Erlbacher-pattern, uniform-depth slots with top flare)
  </text>
  <text x="475" y="46" text-anchor="middle" font-size="11" fill="#555">
    OD 114.3mm . ID 88.0mm . H 75.0mm . 72 slots . 12-gauge . PETG
  </text>

  <text x="200" y="76" text-anchor="middle" font-size="12"
        font-weight="bold" fill="#1e3a5f">Top View</text>
  <g transform="translate(200, 360)">
    <circle cx="0" cy="0" r="91.44" fill="#d4e1ed" stroke="#1e3a5f" stroke-width="1.2"/>
    <circle cx="0" cy="0" r="70.40" fill="#fafafa" stroke="#888" stroke-width="0.8"/>
    <circle cx="0" cy="0" r="14.56" fill="#ffe8a0" stroke="#b8860b" stroke-width="0.8"/>
    <line x1="91.44" y1="0.00" x2="86.64" y2="0.00" stroke="#c0392b" stroke-width="0.6"/>
<line x1="91.09" y1="7.97" x2="86.31" y2="7.55" stroke="#c0392b" stroke-width="0.6"/>
<line x1="90.05" y1="15.88" x2="85.32" y2="15.04" stroke="#c0392b" stroke-width="0.6"/>
<line x1="88.32" y1="23.67" x2="83.69" y2="22.42" stroke="#c0392b" stroke-width="0.6"/>
<line x1="85.93" y1="31.27" x2="81.41" y2="29.63" stroke="#c0392b" stroke-width="0.6"/>
<line x1="82.87" y1="38.64" x2="78.52" y2="36.62" stroke="#c0392b" stroke-width="0.6"/>
<line x1="79.19" y1="45.72" x2="75.03" y2="43.32" stroke="#c0392b" stroke-width="0.6"/>
<line x1="74.90" y1="52.45" x2="70.97" y2="49.69" stroke="#c0392b" stroke-width="0.6"/>
<line x1="70.05" y1="58.78" x2="66.37" y2="55.69" stroke="#c0392b" stroke-width="0.6"/>
<line x1="64.66" y1="64.66" x2="61.26" y2="61.26" stroke="#c0392b" stroke-width="0.6"/>
<line x1="58.78" y1="70.05" x2="55.69" y2="66.37" stroke="#c0392b" stroke-width="0.6"/>
<line x1="52.45" y1="74.90" x2="49.69" y2="70.97" stroke="#c0392b" stroke-width="0.6"/>
<line x1="45.72" y1="79.19" x2="43.32" y2="75.03" stroke="#c0392b" stroke-width="0.6"/>
<line x1="38.64" y1="82.87" x2="36.62" y2="78.52" stroke="#c0392b" stroke-width="0.6"/>
<line x1="31.27" y1="85.93" x2="29.63" y2="81.41" stroke="#c0392b" stroke-width="0.6"/>
<line x1="23.67" y1="88.32" x2="22.42" y2="83.69" stroke="#c0392b" stroke-width="0.6"/>
<line x1="15.88" y1="90.05" x2="15.04" y2="85.32" stroke="#c0392b" stroke-width="0.6"/>
<line x1="7.97" y1="91.09" x2="7.55" y2="86.31" stroke="#c0392b" stroke-width="0.6"/>
<line x1="0.00" y1="91.44" x2="0.00" y2="86.64" stroke="#c0392b" stroke-width="0.6"/>
<line x1="-7.97" y1="91.09" x2="-7.55" y2="86.31" stroke="#c0392b" stroke-width="0.6"/>
<line x1="-15.88" y1="90.05" x2="-15.04" y2="85.32" stroke="#c0392b" stroke-width="0.6"/>
<line x1="-23.67" y1="88.32" x2="-22.42" y2="83.69" stroke="#c0392b" stroke-width="0.6"/>
<line x1="-31.27" y1="85.93" x2="-29.63" y2="81.41" stroke="#c0392b" stroke-width="0.6"/>
<line x1="-38.64" y1="82.87" x2="-36.62" y2="78.52" stroke="#c0392b" stroke-width="0.6"/>
<line x1="-45.72" y1="79.19" x2="-43.32" y2="75.03" stroke="#c0392b" stroke-width="0.6"/>
<line x1="-52.45" y1="74.90" x2="-49.69" y2="70.97" stroke="#c0392b" stroke-width="0.6"/>
<line x1="-58.78" y1="70.05" x2="-55.69" y2="66.37" stroke="#c0392b" stroke-width="0.6"/>
<line x1="-64.66" y1="64.66" x2="-61.26" y2="61.26" stroke="#c0392b" stroke-width="0.6"/>
<line x1="-70.05" y1="58.78" x2="-66.37" y2="55.69" stroke="#c0392b" stroke-width="0.6"/>
<line x1="-74.90" y1="52.45" x2="-70.97" y2="49.69" stroke="#c0392b" stroke-width="0.6"/>
<line x1="-79.19" y1="45.72" x2="-75.03" y2="43.32" stroke="#c0392b" stroke-width="0.6"/>
<line x1="-82.87" y1="38.64" x2="-78.52" y2="36.62" stroke="#c0392b" stroke-width="0.6"/>
<line x1="-85.93" y1="31.27" x2="-81.41" y2="29.63" stroke="#c0392b" stroke-width="0.6"/>
<line x1="-88.32" y1="23.67" x2="-83.69" y2="22.42" stroke="#c0392b" stroke-width="0.6"/>
<line x1="-90.05" y1="15.88" x2="-85.32" y2="15.04" stroke="#c0392b" stroke-width="0.6"/>
<line x1="-91.09" y1="7.97" x2="-86.31" y2="7.55" stroke="#c0392b" stroke-width="0.6"/>
<line x1="-91.44" y1="0.00" x2="-86.64" y2="0.00" stroke="#c0392b" stroke-width="0.6"/>
<line x1="-91.09" y1="-7.97" x2="-86.31" y2="-7.55" stroke="#c0392b" stroke-width="0.6"/>
<line x1="-90.05" y1="-15.88" x2="-85.32" y2="-15.04" stroke="#c0392b" stroke-width="0.6"/>
<line x1="-88.32" y1="-23.67" x2="-83.69" y2="-22.42" stroke="#c0392b" stroke-width="0.6"/>
<line x1="-85.93" y1="-31.27" x2="-81.41" y2="-29.63" stroke="#c0392b" stroke-width="0.6"/>
<line x1="-82.87" y1="-38.64" x2="-78.52" y2="-36.62" stroke="#c0392b" stroke-width="0.6"/>
<line x1="-79.19" y1="-45.72" x2="-75.03" y2="-43.32" stroke="#c0392b" stroke-width="0.6"/>
<line x1="-74.90" y1="-52.45" x2="-70.97" y2="-49.69" stroke="#c0392b" stroke-width="0.6"/>
<line x1="-70.05" y1="-58.78" x2="-66.37" y2="-55.69" stroke="#c0392b" stroke-width="0.6"/>
<line x1="-64.66" y1="-64.66" x2="-61.26" y2="-61.26" stroke="#c0392b" stroke-width="0.6"/>
<line x1="-58.78" y1="-70.05" x2="-55.69" y2="-66.37" stroke="#c0392b" stroke-width="0.6"/>
<line x1="-52.45" y1="-74.90" x2="-49.69" y2="-70.97" stroke="#c0392b" stroke-width="0.6"/>
<line x1="-45.72" y1="-79.19" x2="-43.32" y2="-75.03" stroke="#c0392b" stroke-width="0.6"/>
<line x1="-38.64" y1="-82.87" x2="-36.62" y2="-78.52" stroke="#c0392b" stroke-width="0.6"/>
<line x1="-31.27" y1="-85.93" x2="-29.63" y2="-81.41" stroke="#c0392b" stroke-width="0.6"/>
<line x1="-23.67" y1="-88.32" x2="-22.42" y2="-83.69" stroke="#c0392b" stroke-width="0.6"/>
<line x1="-15.88" y1="-90.05" x2="-15.04" y2="-85.32" stroke="#c0392b" stroke-width="0.6"/>
<line x1="-7.97" y1="-91.09" x2="-7.55" y2="-86.31" stroke="#c0392b" stroke-width="0.6"/>
<line x1="-0.00" y1="-91.44" x2="-0.00" y2="-86.64" stroke="#c0392b" stroke-width="0.6"/>
<line x1="7.97" y1="-91.09" x2="7.55" y2="-86.31" stroke="#c0392b" stroke-width="0.6"/>
<line x1="15.88" y1="-90.05" x2="15.04" y2="-85.32" stroke="#c0392b" stroke-width="0.6"/>
<line x1="23.67" y1="-88.32" x2="22.42" y2="-83.69" stroke="#c0392b" stroke-width="0.6"/>
<line x1="31.27" y1="-85.93" x2="29.63" y2="-81.41" stroke="#c0392b" stroke-width="0.6"/>
<line x1="38.64" y1="-82.87" x2="36.62" y2="-78.52" stroke="#c0392b" stroke-width="0.6"/>
<line x1="45.72" y1="-79.19" x2="43.32" y2="-75.03" stroke="#c0392b" stroke-width="0.6"/>
<line x1="52.45" y1="-74.90" x2="49.69" y2="-70.97" stroke="#c0392b" stroke-width="0.6"/>
<line x1="58.78" y1="-70.05" x2="55.69" y2="-66.37" stroke="#c0392b" stroke-width="0.6"/>
<line x1="64.66" y1="-64.66" x2="61.26" y2="-61.26" stroke="#c0392b" stroke-width="0.6"/>
<line x1="70.05" y1="-58.78" x2="66.37" y2="-55.69" stroke="#c0392b" stroke-width="0.6"/>
<line x1="74.90" y1="-52.45" x2="70.97" y2="-49.69" stroke="#c0392b" stroke-width="0.6"/>
<line x1="79.19" y1="-45.72" x2="75.03" y2="-43.32" stroke="#c0392b" stroke-width="0.6"/>
<line x1="82.87" y1="-38.64" x2="78.52" y2="-36.62" stroke="#c0392b" stroke-width="0.6"/>
<line x1="85.93" y1="-31.27" x2="81.41" y2="-29.63" stroke="#c0392b" stroke-width="0.6"/>
<line x1="88.32" y1="-23.67" x2="83.69" y2="-22.42" stroke="#c0392b" stroke-width="0.6"/>
<line x1="90.05" y1="-15.88" x2="85.32" y2="-15.04" stroke="#c0392b" stroke-width="0.6"/>
<line x1="91.09" y1="-7.97" x2="86.31" y2="-7.55" stroke="#c0392b" stroke-width="0.6"/>

    <circle cx="0" cy="0" r="56.00" fill="none" stroke="#27ae60" stroke-width="0.5" stroke-dasharray="3 2"/>
    <circle cx="39.60" cy="39.60" r="4.80" fill="#ffeacc" stroke="#27ae60" stroke-width="1"/>
<circle cx="-39.60" cy="39.60" r="4.80" fill="#ffeacc" stroke="#27ae60" stroke-width="1"/>
<circle cx="-39.60" cy="-39.60" r="4.80" fill="#ffeacc" stroke="#27ae60" stroke-width="1"/>
<circle cx="39.60" cy="-39.60" r="4.80" fill="#ffeacc" stroke="#27ae60" stroke-width="1"/>

    <circle cx="0" cy="0" r="89.36" fill="none" stroke="#8e44ad" stroke-width="0.8" stroke-dasharray="4 3"/>
  </g>

  <text x="660" y="76" text-anchor="middle"
        font-size="12" font-weight="bold" fill="#1e3a5f">Side Section (to scale)</text>
  <rect x="600" y="60.0" width="120" height="225.0" fill="#d4e1ed" stroke="#1e3a5f" stroke-width="1.0"/>

  <rect x="608" y="60" width="104"
        height="225.0" fill="white" stroke="none"/>
  <rect x="600" y="60.0" width="120" height="225.0" fill="#e8f0fb" stroke="#5d8fcd" stroke-width="1.0"/>
<text x="660" y="176.5" text-anchor="middle" font-size="9" fill="#333">Full-height slot zone</text>

  <rect x="600" y="114.0" width="120" height="12.0" fill="#d8b4fe" stroke="#8e44ad" stroke-width="1.5"/>
<text x="660" y="124.0" text-anchor="middle" font-size="9" fill="#333">Spring groove</text>

  <rect x="600" y="192.0" width="120" height="36.0" fill="#fed7aa" stroke="#d97706" stroke-width="1.0"/>
<text x="660" y="214.0" text-anchor="middle" font-size="9" fill="#333">Cam ring engagement</text>

  <rect x="600" y="276.0" width="120" height="9.0" fill="#ffe8a0" stroke="#b8860b" stroke-width="1.0"/>
<text x="660" y="284.5" text-anchor="middle" font-size="9" fill="#333">Hub pocket</text>


  <rect x="30" y="590" width="890" height="100" fill="#fff" stroke="#ccc" rx="4"/>
  <text x="475" y="609" text-anchor="middle" font-size="11"
        font-weight="bold" fill="#1e3a5f">Critical Dimensions</text>
  <g font-size="10" fill="#333">
    <text x="50"  y="627">OD: 114.3mm (Legare 4.5")</text>
    <text x="220" y="627">ID: 88.0mm</text>
    <text x="340" y="627">H: 75.0mm</text>
    <text x="440" y="627">Wall: 13.15mm</text>
    <text x="560" y="627">Slots: 72 @ 5.0 deg</text>
    <text x="720" y="627">Pitch: 4.987mm</text>

    <text x="50"  y="645">Slot W x D: 1.22 x 3.0mm (uniform full height)</text>
    <text x="340" y="645">Root fillet: R0.5mm</text>
    <text x="440" y="645">Wall btw: 3.77mm</text>
    <text x="560" y="645">Spring: Z=53.0-57.0mm</text>

    <text x="50"  y="663">Hub pocket: D18.2 x 3.0mm</text>
    <text x="240" y="663">M5 inserts: 4 x PCD 70mm @ 45 deg offset</text>
    <text x="500" y="663">Insert pocket: D6.0 x 10.0mm</text>
    <text x="720" y="663">Top chamfer 0.6 / Bot 0.6</text>

    <text x="50"  y="681" font-style="italic" fill="#666">
      Slots have uniform radial depth full height; circumferential width
      Needle butt rides freely inside slot through full 8mm cam lift.
    </text>
  </g>
</svg>
