ISO-10303-21;
HEADER;
FILE_DESCRIPTION(('FreeCAD Model'),'2;1');
FILE_NAME('Open CASCADE Shape Model','2026-06-28T17:53:36',('FreeCAD'),(
    'FreeCAD'),'Open CASCADE STEP processor 7.8','FreeCAD','Unknown');
FILE_SCHEMA(('AUTOMOTIVE_DESIGN { 1 0 10303 214 1 1 1 1 }'));
ENDSEC;
DATA;
#1 = APPLICATION_PROTOCOL_DEFINITION('international standard',
  'automotive_design',2000,#2);
#2 = APPLICATION_CONTEXT(
  'core data for automotive mechanical design processes');
#3 = SHAPE_DEFINITION_REPRESENTATION(#4,#10);
#4 = PRODUCT_DEFINITION_SHAPE('','',#5);
#5 = PRODUCT_DEFINITION('design','',#6,#9);
#6 = PRODUCT_DEFINITION_FORMATION('','',#7);
#7 = PRODUCT('Open CASCADE STEP translator 7.8 1',
  'Open CASCADE STEP translator 7.8 1','',(#8));
#8 = PRODUCT_CONTEXT('',#2,'mechanical');
#9 = PRODUCT_DEFINITION_CONTEXT('part definition',#2,'design');
#10 = ADVANCED_BREP_SHAPE_REPRESENTATION('',(#11,#15),#1244);
#11 = AXIS2_PLACEMENT_3D('',#12,#13,#14);
#12 = CARTESIAN_POINT('',(0.,0.,0.));
#13 = DIRECTION('',(0.,0.,1.));
#14 = DIRECTION('',(1.,0.,-0.));
#15 = MANIFOLD_SOLID_BREP('',#16);
#16 = CLOSED_SHELL('',(#17,#57,#88,#325,#349,#465,#477,#510,#549,#588,
    #605,#622,#647,#686,#725,#742,#759,#776,#809,#848,#887,#904,#921,
    #938,#963,#1002,#1026,#1058,#1076,#1093,#1105,#1122,#1139,#1151,
    #1169,#1186,#1198,#1215,#1232));
#17 = ADVANCED_FACE('',(#18),#52,.F.);
#18 = FACE_BOUND('',#19,.F.);
#19 = EDGE_LOOP('',(#20,#30,#38,#46));
#20 = ORIENTED_EDGE('',*,*,#21,.F.);
#21 = EDGE_CURVE('',#22,#24,#26,.T.);
#22 = VERTEX_POINT('',#23);
#23 = CARTESIAN_POINT('',(-40.,-30.,-3.));
#24 = VERTEX_POINT('',#25);
#25 = CARTESIAN_POINT('',(-40.,-30.,0.));
#26 = LINE('',#27,#28);
#27 = CARTESIAN_POINT('',(-40.,-30.,-3.));
#28 = VECTOR('',#29,1.);
#29 = DIRECTION('',(0.,0.,1.));
#30 = ORIENTED_EDGE('',*,*,#31,.T.);
#31 = EDGE_CURVE('',#22,#32,#34,.T.);
#32 = VERTEX_POINT('',#33);
#33 = CARTESIAN_POINT('',(-40.,30.,-3.));
#34 = LINE('',#35,#36);
#35 = CARTESIAN_POINT('',(-40.,-30.,-3.));
#36 = VECTOR('',#37,1.);
#37 = DIRECTION('',(0.,1.,0.));
#38 = ORIENTED_EDGE('',*,*,#39,.T.);
#39 = EDGE_CURVE('',#32,#40,#42,.T.);
#40 = VERTEX_POINT('',#41);
#41 = CARTESIAN_POINT('',(-40.,30.,0.));
#42 = LINE('',#43,#44);
#43 = CARTESIAN_POINT('',(-40.,30.,-3.));
#44 = VECTOR('',#45,1.);
#45 = DIRECTION('',(0.,0.,1.));
#46 = ORIENTED_EDGE('',*,*,#47,.F.);
#47 = EDGE_CURVE('',#24,#40,#48,.T.);
#48 = LINE('',#49,#50);
#49 = CARTESIAN_POINT('',(-40.,-30.,0.));
#50 = VECTOR('',#51,1.);
#51 = DIRECTION('',(0.,1.,0.));
#52 = PLANE('',#53);
#53 = AXIS2_PLACEMENT_3D('',#54,#55,#56);
#54 = CARTESIAN_POINT('',(-40.,-30.,-3.));
#55 = DIRECTION('',(1.,0.,0.));
#56 = DIRECTION('',(0.,0.,1.));
#57 = ADVANCED_FACE('',(#58),#83,.F.);
#58 = FACE_BOUND('',#59,.F.);
#59 = EDGE_LOOP('',(#60,#68,#69,#77));
#60 = ORIENTED_EDGE('',*,*,#61,.F.);
#61 = EDGE_CURVE('',#22,#62,#64,.T.);
#62 = VERTEX_POINT('',#63);
#63 = CARTESIAN_POINT('',(40.,-30.,-3.));
#64 = LINE('',#65,#66);
#65 = CARTESIAN_POINT('',(-40.,-30.,-3.));
#66 = VECTOR('',#67,1.);
#67 = DIRECTION('',(1.,0.,0.));
#68 = ORIENTED_EDGE('',*,*,#21,.T.);
#69 = ORIENTED_EDGE('',*,*,#70,.T.);
#70 = EDGE_CURVE('',#24,#71,#73,.T.);
#71 = VERTEX_POINT('',#72);
#72 = CARTESIAN_POINT('',(40.,-30.,0.));
#73 = LINE('',#74,#75);
#74 = CARTESIAN_POINT('',(-40.,-30.,0.));
#75 = VECTOR('',#76,1.);
#76 = DIRECTION('',(1.,0.,0.));
#77 = ORIENTED_EDGE('',*,*,#78,.F.);
#78 = EDGE_CURVE('',#62,#71,#79,.T.);
#79 = LINE('',#80,#81);
#80 = CARTESIAN_POINT('',(40.,-30.,-3.));
#81 = VECTOR('',#82,1.);
#82 = DIRECTION('',(0.,0.,1.));
#83 = PLANE('',#84);
#84 = AXIS2_PLACEMENT_3D('',#85,#86,#87);
#85 = CARTESIAN_POINT('',(-40.,-30.,-3.));
#86 = DIRECTION('',(0.,1.,0.));
#87 = DIRECTION('',(0.,0.,1.));
#88 = ADVANCED_FACE('',(#89,#107,#142,#153,#197,#208,#219,#254,#265,#276
    ),#320,.T.);
#89 = FACE_BOUND('',#90,.T.);
#90 = EDGE_LOOP('',(#91,#92,#93,#101));
#91 = ORIENTED_EDGE('',*,*,#47,.F.);
#92 = ORIENTED_EDGE('',*,*,#70,.T.);
#93 = ORIENTED_EDGE('',*,*,#94,.T.);
#94 = EDGE_CURVE('',#71,#95,#97,.T.);
#95 = VERTEX_POINT('',#96);
#96 = CARTESIAN_POINT('',(40.,30.,0.));
#97 = LINE('',#98,#99);
#98 = CARTESIAN_POINT('',(40.,-30.,0.));
#99 = VECTOR('',#100,1.);
#100 = DIRECTION('',(0.,1.,0.));
#101 = ORIENTED_EDGE('',*,*,#102,.F.);
#102 = EDGE_CURVE('',#40,#95,#103,.T.);
#103 = LINE('',#104,#105);
#104 = CARTESIAN_POINT('',(-40.,30.,0.));
#105 = VECTOR('',#106,1.);
#106 = DIRECTION('',(1.,0.,0.));
#107 = FACE_BOUND('',#108,.T.);
#108 = EDGE_LOOP('',(#109,#120,#128,#136));
#109 = ORIENTED_EDGE('',*,*,#110,.F.);
#110 = EDGE_CURVE('',#111,#113,#115,.T.);
#111 = VERTEX_POINT('',#112);
#112 = CARTESIAN_POINT('',(-28.79130155629,-23.01458929598,0.));
#113 = VERTEX_POINT('',#114);
#114 = CARTESIAN_POINT('',(-27.50059825795,-24.54236054708,0.));
#115 = CIRCLE('',#116,1.5);
#116 = AXIS2_PLACEMENT_3D('',#117,#118,#119);
#117 = CARTESIAN_POINT('',(-29.,-24.5,0.));
#118 = DIRECTION('',(0.,0.,1.));
#119 = DIRECTION('',(1.,0.,0.));
#120 = ORIENTED_EDGE('',*,*,#121,.T.);
#121 = EDGE_CURVE('',#111,#122,#124,.T.);
#122 = VERTEX_POINT('',#123);
#123 = CARTESIAN_POINT('',(-19.16433931553,-14.88146602362,0.));
#124 = LINE('',#125,#126);
#125 = CARTESIAN_POINT('',(-29.64535164916,-23.73611437445,0.));
#126 = VECTOR('',#127,1.);
#127 = DIRECTION('',(0.763885625546,0.645351649168,0.));
#128 = ORIENTED_EDGE('',*,*,#129,.T.);
#129 = EDGE_CURVE('',#122,#130,#132,.T.);
#130 = VERTEX_POINT('',#131);
#131 = CARTESIAN_POINT('',(-17.87363601719,-16.40923727471,0.));
#132 = LINE('',#133,#134);
#133 = CARTESIAN_POINT('',(-19.16433931553,-14.88146602362,0.));
#134 = VECTOR('',#135,1.);
#135 = DIRECTION('',(0.645351649168,-0.763885625546,0.));
#136 = ORIENTED_EDGE('',*,*,#137,.T.);
#137 = EDGE_CURVE('',#130,#113,#138,.T.);
#138 = LINE('',#139,#140);
#139 = CARTESIAN_POINT('',(-17.87363601719,-16.40923727471,0.));
#140 = VECTOR('',#141,1.);
#141 = DIRECTION('',(-0.763885625546,-0.645351649168,0.));
#142 = FACE_BOUND('',#143,.T.);
#143 = EDGE_LOOP('',(#144));
#144 = ORIENTED_EDGE('',*,*,#145,.F.);
#145 = EDGE_CURVE('',#146,#146,#148,.T.);
#146 = VERTEX_POINT('',#147);
#147 = CARTESIAN_POINT('',(-10.25,-12.,0.));
#148 = CIRCLE('',#149,1.75);
#149 = AXIS2_PLACEMENT_3D('',#150,#151,#152);
#150 = CARTESIAN_POINT('',(-12.,-12.,0.));
#151 = DIRECTION('',(0.,0.,1.));
#152 = DIRECTION('',(1.,0.,0.));
#153 = FACE_BOUND('',#154,.T.);
#154 = EDGE_LOOP('',(#155,#166,#175,#183,#191));
#155 = ORIENTED_EDGE('',*,*,#156,.F.);
#156 = EDGE_CURVE('',#157,#159,#161,.T.);
#157 = VERTEX_POINT('',#158);
#158 = CARTESIAN_POINT('',(30.5,-24.5,0.));
#159 = VERTEX_POINT('',#160);
#160 = CARTESIAN_POINT('',(28.79130155629,-23.01458929598,0.));
#161 = CIRCLE('',#162,1.5);
#162 = AXIS2_PLACEMENT_3D('',#163,#164,#165);
#163 = CARTESIAN_POINT('',(29.,-24.5,0.));
#164 = DIRECTION('',(0.,0.,1.));
#165 = DIRECTION('',(1.,0.,0.));
#166 = ORIENTED_EDGE('',*,*,#167,.F.);
#167 = EDGE_CURVE('',#168,#157,#170,.T.);
#168 = VERTEX_POINT('',#169);
#169 = CARTESIAN_POINT('',(27.500598257954,-24.54236054708,0.));
#170 = CIRCLE('',#171,1.5);
#171 = AXIS2_PLACEMENT_3D('',#172,#173,#174);
#172 = CARTESIAN_POINT('',(29.,-24.5,0.));
#173 = DIRECTION('',(0.,0.,1.));
#174 = DIRECTION('',(1.,0.,0.));
#175 = ORIENTED_EDGE('',*,*,#176,.T.);
#176 = EDGE_CURVE('',#168,#177,#179,.T.);
#177 = VERTEX_POINT('',#178);
#178 = CARTESIAN_POINT('',(17.873636017194,-16.40923727471,0.));
#179 = LINE('',#180,#181);
#180 = CARTESIAN_POINT('',(28.354648350832,-25.26388562554,0.));
#181 = VECTOR('',#182,1.);
#182 = DIRECTION('',(-0.763885625546,0.645351649168,0.));
#183 = ORIENTED_EDGE('',*,*,#184,.T.);
#184 = EDGE_CURVE('',#177,#185,#187,.T.);
#185 = VERTEX_POINT('',#186);
#186 = CARTESIAN_POINT('',(19.164339315531,-14.88146602362,0.));
#187 = LINE('',#188,#189);
#188 = CARTESIAN_POINT('',(17.873636017194,-16.40923727471,0.));
#189 = VECTOR('',#190,1.);
#190 = DIRECTION('',(0.645351649168,0.763885625546,0.));
#191 = ORIENTED_EDGE('',*,*,#192,.T.);
#192 = EDGE_CURVE('',#185,#159,#193,.T.);
#193 = LINE('',#194,#195);
#194 = CARTESIAN_POINT('',(19.164339315531,-14.88146602362,0.));
#195 = VECTOR('',#196,1.);
#196 = DIRECTION('',(0.763885625546,-0.645351649168,0.));
#197 = FACE_BOUND('',#198,.T.);
#198 = EDGE_LOOP('',(#199));
#199 = ORIENTED_EDGE('',*,*,#200,.F.);
#200 = EDGE_CURVE('',#201,#201,#203,.T.);
#201 = VERTEX_POINT('',#202);
#202 = CARTESIAN_POINT('',(13.75,-12.,0.));
#203 = CIRCLE('',#204,1.75);
#204 = AXIS2_PLACEMENT_3D('',#205,#206,#207);
#205 = CARTESIAN_POINT('',(12.,-12.,0.));
#206 = DIRECTION('',(0.,0.,1.));
#207 = DIRECTION('',(1.,0.,0.));
#208 = FACE_BOUND('',#209,.T.);
#209 = EDGE_LOOP('',(#210));
#210 = ORIENTED_EDGE('',*,*,#211,.F.);
#211 = EDGE_CURVE('',#212,#212,#214,.T.);
#212 = VERTEX_POINT('',#213);
#213 = CARTESIAN_POINT('',(-10.25,12.,0.));
#214 = CIRCLE('',#215,1.75);
#215 = AXIS2_PLACEMENT_3D('',#216,#217,#218);
#216 = CARTESIAN_POINT('',(-12.,12.,0.));
#217 = DIRECTION('',(0.,0.,1.));
#218 = DIRECTION('',(1.,0.,0.));
#219 = FACE_BOUND('',#220,.T.);
#220 = EDGE_LOOP('',(#221,#232,#240,#248));
#221 = ORIENTED_EDGE('',*,*,#222,.F.);
#222 = EDGE_CURVE('',#223,#225,#227,.T.);
#223 = VERTEX_POINT('',#224);
#224 = CARTESIAN_POINT('',(-27.50059825795,24.54236054708,0.));
#225 = VERTEX_POINT('',#226);
#226 = CARTESIAN_POINT('',(-28.79130155629,23.014589295988,0.));
#227 = CIRCLE('',#228,1.5);
#228 = AXIS2_PLACEMENT_3D('',#229,#230,#231);
#229 = CARTESIAN_POINT('',(-29.,24.5,0.));
#230 = DIRECTION('',(0.,0.,1.));
#231 = DIRECTION('',(1.,0.,0.));
#232 = ORIENTED_EDGE('',*,*,#233,.T.);
#233 = EDGE_CURVE('',#223,#234,#236,.T.);
#234 = VERTEX_POINT('',#235);
#235 = CARTESIAN_POINT('',(-17.87363601719,16.409237274714,0.));
#236 = LINE('',#237,#238);
#237 = CARTESIAN_POINT('',(-28.35464835083,25.263885625546,0.));
#238 = VECTOR('',#239,1.);
#239 = DIRECTION('',(0.763885625546,-0.645351649168,0.));
#240 = ORIENTED_EDGE('',*,*,#241,.T.);
#241 = EDGE_CURVE('',#234,#242,#244,.T.);
#242 = VERTEX_POINT('',#243);
#243 = CARTESIAN_POINT('',(-19.16433931553,14.881466023622,0.));
#244 = LINE('',#245,#246);
#245 = CARTESIAN_POINT('',(-17.87363601719,16.409237274714,0.));
#246 = VECTOR('',#247,1.);
#247 = DIRECTION('',(-0.645351649168,-0.763885625546,0.));
#248 = ORIENTED_EDGE('',*,*,#249,.T.);
#249 = EDGE_CURVE('',#242,#225,#250,.T.);
#250 = LINE('',#251,#252);
#251 = CARTESIAN_POINT('',(-19.16433931553,14.881466023622,0.));
#252 = VECTOR('',#253,1.);
#253 = DIRECTION('',(-0.763885625546,0.645351649168,0.));
#254 = FACE_BOUND('',#255,.T.);
#255 = EDGE_LOOP('',(#256));
#256 = ORIENTED_EDGE('',*,*,#257,.F.);
#257 = EDGE_CURVE('',#258,#258,#260,.T.);
#258 = VERTEX_POINT('',#259);
#259 = CARTESIAN_POINT('',(12.,-2.939152317954E-15,0.));
#260 = CIRCLE('',#261,12.);
#261 = AXIS2_PLACEMENT_3D('',#262,#263,#264);
#262 = CARTESIAN_POINT('',(0.,0.,0.));
#263 = DIRECTION('',(0.,0.,1.));
#264 = DIRECTION('',(1.,0.,0.));
#265 = FACE_BOUND('',#266,.T.);
#266 = EDGE_LOOP('',(#267));
#267 = ORIENTED_EDGE('',*,*,#268,.F.);
#268 = EDGE_CURVE('',#269,#269,#271,.T.);
#269 = VERTEX_POINT('',#270);
#270 = CARTESIAN_POINT('',(13.75,12.,0.));
#271 = CIRCLE('',#272,1.75);
#272 = AXIS2_PLACEMENT_3D('',#273,#274,#275);
#273 = CARTESIAN_POINT('',(12.,12.,0.));
#274 = DIRECTION('',(0.,0.,1.));
#275 = DIRECTION('',(1.,0.,0.));
#276 = FACE_BOUND('',#277,.T.);
#277 = EDGE_LOOP('',(#278,#289,#298,#306,#314));
#278 = ORIENTED_EDGE('',*,*,#279,.F.);
#279 = EDGE_CURVE('',#280,#282,#284,.T.);
#280 = VERTEX_POINT('',#281);
#281 = CARTESIAN_POINT('',(30.5,24.5,0.));
#282 = VERTEX_POINT('',#283);
#283 = CARTESIAN_POINT('',(27.500598257954,24.54236054708,0.));
#284 = CIRCLE('',#285,1.5);
#285 = AXIS2_PLACEMENT_3D('',#286,#287,#288);
#286 = CARTESIAN_POINT('',(29.,24.5,0.));
#287 = DIRECTION('',(0.,0.,1.));
#288 = DIRECTION('',(1.,0.,0.));
#289 = ORIENTED_EDGE('',*,*,#290,.F.);
#290 = EDGE_CURVE('',#291,#280,#293,.T.);
#291 = VERTEX_POINT('',#292);
#292 = CARTESIAN_POINT('',(28.79130155629,23.014589295988,0.));
#293 = CIRCLE('',#294,1.5);
#294 = AXIS2_PLACEMENT_3D('',#295,#296,#297);
#295 = CARTESIAN_POINT('',(29.,24.5,0.));
#296 = DIRECTION('',(0.,0.,1.));
#297 = DIRECTION('',(1.,0.,0.));
#298 = ORIENTED_EDGE('',*,*,#299,.T.);
#299 = EDGE_CURVE('',#291,#300,#302,.T.);
#300 = VERTEX_POINT('',#301);
#301 = CARTESIAN_POINT('',(19.164339315531,14.881466023622,0.));
#302 = LINE('',#303,#304);
#303 = CARTESIAN_POINT('',(29.645351649168,23.736114374454,0.));
#304 = VECTOR('',#305,1.);
#305 = DIRECTION('',(-0.763885625546,-0.645351649168,0.));
#306 = ORIENTED_EDGE('',*,*,#307,.T.);
#307 = EDGE_CURVE('',#300,#308,#310,.T.);
#308 = VERTEX_POINT('',#309);
#309 = CARTESIAN_POINT('',(17.873636017194,16.409237274714,0.));
#310 = LINE('',#311,#312);
#311 = CARTESIAN_POINT('',(19.164339315531,14.881466023622,0.));
#312 = VECTOR('',#313,1.);
#313 = DIRECTION('',(-0.645351649168,0.763885625546,0.));
#314 = ORIENTED_EDGE('',*,*,#315,.T.);
#315 = EDGE_CURVE('',#308,#282,#316,.T.);
#316 = LINE('',#317,#318);
#317 = CARTESIAN_POINT('',(17.873636017194,16.409237274714,0.));
#318 = VECTOR('',#319,1.);
#319 = DIRECTION('',(0.763885625546,0.645351649168,0.));
#320 = PLANE('',#321);
#321 = AXIS2_PLACEMENT_3D('',#322,#323,#324);
#322 = CARTESIAN_POINT('',(-40.,-30.,0.));
#323 = DIRECTION('',(0.,0.,1.));
#324 = DIRECTION('',(1.,0.,0.));
#325 = ADVANCED_FACE('',(#326),#344,.T.);
#326 = FACE_BOUND('',#327,.T.);
#327 = EDGE_LOOP('',(#328,#336,#337,#338));
#328 = ORIENTED_EDGE('',*,*,#329,.F.);
#329 = EDGE_CURVE('',#32,#330,#332,.T.);
#330 = VERTEX_POINT('',#331);
#331 = CARTESIAN_POINT('',(40.,30.,-3.));
#332 = LINE('',#333,#334);
#333 = CARTESIAN_POINT('',(-40.,30.,-3.));
#334 = VECTOR('',#335,1.);
#335 = DIRECTION('',(1.,0.,0.));
#336 = ORIENTED_EDGE('',*,*,#39,.T.);
#337 = ORIENTED_EDGE('',*,*,#102,.T.);
#338 = ORIENTED_EDGE('',*,*,#339,.F.);
#339 = EDGE_CURVE('',#330,#95,#340,.T.);
#340 = LINE('',#341,#342);
#341 = CARTESIAN_POINT('',(40.,30.,-3.));
#342 = VECTOR('',#343,1.);
#343 = DIRECTION('',(0.,0.,1.));
#344 = PLANE('',#345);
#345 = AXIS2_PLACEMENT_3D('',#346,#347,#348);
#346 = CARTESIAN_POINT('',(-40.,30.,-3.));
#347 = DIRECTION('',(0.,1.,0.));
#348 = DIRECTION('',(0.,0.,1.));
#349 = ADVANCED_FACE('',(#350,#361,#372,#383,#394,#405,#416,#427,#438,
    #449),#460,.F.);
#350 = FACE_BOUND('',#351,.F.);
#351 = EDGE_LOOP('',(#352,#353,#354,#360));
#352 = ORIENTED_EDGE('',*,*,#31,.F.);
#353 = ORIENTED_EDGE('',*,*,#61,.T.);
#354 = ORIENTED_EDGE('',*,*,#355,.T.);
#355 = EDGE_CURVE('',#62,#330,#356,.T.);
#356 = LINE('',#357,#358);
#357 = CARTESIAN_POINT('',(40.,-30.,-3.));
#358 = VECTOR('',#359,1.);
#359 = DIRECTION('',(0.,1.,0.));
#360 = ORIENTED_EDGE('',*,*,#329,.F.);
#361 = FACE_BOUND('',#362,.F.);
#362 = EDGE_LOOP('',(#363));
#363 = ORIENTED_EDGE('',*,*,#364,.F.);
#364 = EDGE_CURVE('',#365,#365,#367,.T.);
#365 = VERTEX_POINT('',#366);
#366 = CARTESIAN_POINT('',(-27.5,-24.5,-3.));
#367 = CIRCLE('',#368,1.5);
#368 = AXIS2_PLACEMENT_3D('',#369,#370,#371);
#369 = CARTESIAN_POINT('',(-29.,-24.5,-3.));
#370 = DIRECTION('',(0.,0.,1.));
#371 = DIRECTION('',(1.,0.,0.));
#372 = FACE_BOUND('',#373,.F.);
#373 = EDGE_LOOP('',(#374));
#374 = ORIENTED_EDGE('',*,*,#375,.F.);
#375 = EDGE_CURVE('',#376,#376,#378,.T.);
#376 = VERTEX_POINT('',#377);
#377 = CARTESIAN_POINT('',(-10.25,-12.,-3.));
#378 = CIRCLE('',#379,1.75);
#379 = AXIS2_PLACEMENT_3D('',#380,#381,#382);
#380 = CARTESIAN_POINT('',(-12.,-12.,-3.));
#381 = DIRECTION('',(0.,0.,1.));
#382 = DIRECTION('',(1.,0.,0.));
#383 = FACE_BOUND('',#384,.F.);
#384 = EDGE_LOOP('',(#385));
#385 = ORIENTED_EDGE('',*,*,#386,.F.);
#386 = EDGE_CURVE('',#387,#387,#389,.T.);
#387 = VERTEX_POINT('',#388);
#388 = CARTESIAN_POINT('',(30.5,-24.5,-3.));
#389 = CIRCLE('',#390,1.5);
#390 = AXIS2_PLACEMENT_3D('',#391,#392,#393);
#391 = CARTESIAN_POINT('',(29.,-24.5,-3.));
#392 = DIRECTION('',(0.,0.,1.));
#393 = DIRECTION('',(1.,0.,0.));
#394 = FACE_BOUND('',#395,.F.);
#395 = EDGE_LOOP('',(#396));
#396 = ORIENTED_EDGE('',*,*,#397,.F.);
#397 = EDGE_CURVE('',#398,#398,#400,.T.);
#398 = VERTEX_POINT('',#399);
#399 = CARTESIAN_POINT('',(13.75,-12.,-3.));
#400 = CIRCLE('',#401,1.75);
#401 = AXIS2_PLACEMENT_3D('',#402,#403,#404);
#402 = CARTESIAN_POINT('',(12.,-12.,-3.));
#403 = DIRECTION('',(0.,0.,1.));
#404 = DIRECTION('',(1.,0.,0.));
#405 = FACE_BOUND('',#406,.F.);
#406 = EDGE_LOOP('',(#407));
#407 = ORIENTED_EDGE('',*,*,#408,.F.);
#408 = EDGE_CURVE('',#409,#409,#411,.T.);
#409 = VERTEX_POINT('',#410);
#410 = CARTESIAN_POINT('',(-10.25,12.,-3.));
#411 = CIRCLE('',#412,1.75);
#412 = AXIS2_PLACEMENT_3D('',#413,#414,#415);
#413 = CARTESIAN_POINT('',(-12.,12.,-3.));
#414 = DIRECTION('',(0.,0.,1.));
#415 = DIRECTION('',(1.,0.,0.));
#416 = FACE_BOUND('',#417,.F.);
#417 = EDGE_LOOP('',(#418));
#418 = ORIENTED_EDGE('',*,*,#419,.F.);
#419 = EDGE_CURVE('',#420,#420,#422,.T.);
#420 = VERTEX_POINT('',#421);
#421 = CARTESIAN_POINT('',(-27.5,24.5,-3.));
#422 = CIRCLE('',#423,1.5);
#423 = AXIS2_PLACEMENT_3D('',#424,#425,#426);
#424 = CARTESIAN_POINT('',(-29.,24.5,-3.));
#425 = DIRECTION('',(0.,0.,1.));
#426 = DIRECTION('',(1.,0.,0.));
#427 = FACE_BOUND('',#428,.F.);
#428 = EDGE_LOOP('',(#429));
#429 = ORIENTED_EDGE('',*,*,#430,.F.);
#430 = EDGE_CURVE('',#431,#431,#433,.T.);
#431 = VERTEX_POINT('',#432);
#432 = CARTESIAN_POINT('',(12.,-2.939152317954E-15,-3.));
#433 = CIRCLE('',#434,12.);
#434 = AXIS2_PLACEMENT_3D('',#435,#436,#437);
#435 = CARTESIAN_POINT('',(0.,0.,-3.));
#436 = DIRECTION('',(0.,0.,1.));
#437 = DIRECTION('',(1.,0.,0.));
#438 = FACE_BOUND('',#439,.F.);
#439 = EDGE_LOOP('',(#440));
#440 = ORIENTED_EDGE('',*,*,#441,.F.);
#441 = EDGE_CURVE('',#442,#442,#444,.T.);
#442 = VERTEX_POINT('',#443);
#443 = CARTESIAN_POINT('',(13.75,12.,-3.));
#444 = CIRCLE('',#445,1.75);
#445 = AXIS2_PLACEMENT_3D('',#446,#447,#448);
#446 = CARTESIAN_POINT('',(12.,12.,-3.));
#447 = DIRECTION('',(0.,0.,1.));
#448 = DIRECTION('',(1.,0.,0.));
#449 = FACE_BOUND('',#450,.F.);
#450 = EDGE_LOOP('',(#451));
#451 = ORIENTED_EDGE('',*,*,#452,.F.);
#452 = EDGE_CURVE('',#453,#453,#455,.T.);
#453 = VERTEX_POINT('',#454);
#454 = CARTESIAN_POINT('',(30.5,24.5,-3.));
#455 = CIRCLE('',#456,1.5);
#456 = AXIS2_PLACEMENT_3D('',#457,#458,#459);
#457 = CARTESIAN_POINT('',(29.,24.5,-3.));
#458 = DIRECTION('',(0.,0.,1.));
#459 = DIRECTION('',(1.,0.,0.));
#460 = PLANE('',#461);
#461 = AXIS2_PLACEMENT_3D('',#462,#463,#464);
#462 = CARTESIAN_POINT('',(-40.,-30.,-3.));
#463 = DIRECTION('',(0.,0.,1.));
#464 = DIRECTION('',(1.,0.,0.));
#465 = ADVANCED_FACE('',(#466),#472,.T.);
#466 = FACE_BOUND('',#467,.T.);
#467 = EDGE_LOOP('',(#468,#469,#470,#471));
#468 = ORIENTED_EDGE('',*,*,#78,.F.);
#469 = ORIENTED_EDGE('',*,*,#355,.T.);
#470 = ORIENTED_EDGE('',*,*,#339,.T.);
#471 = ORIENTED_EDGE('',*,*,#94,.F.);
#472 = PLANE('',#473);
#473 = AXIS2_PLACEMENT_3D('',#474,#475,#476);
#474 = CARTESIAN_POINT('',(40.,-30.,-3.));
#475 = DIRECTION('',(1.,0.,0.));
#476 = DIRECTION('',(0.,0.,1.));
#477 = ADVANCED_FACE('',(#478),#505,.F.);
#478 = FACE_BOUND('',#479,.F.);
#479 = EDGE_LOOP('',(#480,#488,#495,#496,#503,#504));
#480 = ORIENTED_EDGE('',*,*,#481,.T.);
#481 = EDGE_CURVE('',#365,#482,#484,.T.);
#482 = VERTEX_POINT('',#483);
#483 = CARTESIAN_POINT('',(-27.5,-24.5,0.));
#484 = LINE('',#485,#486);
#485 = CARTESIAN_POINT('',(-27.5,-24.5,-5.));
#486 = VECTOR('',#487,1.);
#487 = DIRECTION('',(0.,0.,1.));
#488 = ORIENTED_EDGE('',*,*,#489,.F.);
#489 = EDGE_CURVE('',#113,#482,#490,.T.);
#490 = CIRCLE('',#491,1.5);
#491 = AXIS2_PLACEMENT_3D('',#492,#493,#494);
#492 = CARTESIAN_POINT('',(-29.,-24.5,0.));
#493 = DIRECTION('',(0.,0.,1.));
#494 = DIRECTION('',(1.,0.,0.));
#495 = ORIENTED_EDGE('',*,*,#110,.F.);
#496 = ORIENTED_EDGE('',*,*,#497,.F.);
#497 = EDGE_CURVE('',#482,#111,#498,.T.);
#498 = CIRCLE('',#499,1.5);
#499 = AXIS2_PLACEMENT_3D('',#500,#501,#502);
#500 = CARTESIAN_POINT('',(-29.,-24.5,0.));
#501 = DIRECTION('',(0.,0.,1.));
#502 = DIRECTION('',(1.,0.,0.));
#503 = ORIENTED_EDGE('',*,*,#481,.F.);
#504 = ORIENTED_EDGE('',*,*,#364,.T.);
#505 = CYLINDRICAL_SURFACE('',#506,1.5);
#506 = AXIS2_PLACEMENT_3D('',#507,#508,#509);
#507 = CARTESIAN_POINT('',(-29.,-24.5,-5.));
#508 = DIRECTION('',(0.,0.,1.));
#509 = DIRECTION('',(1.,0.,0.));
#510 = ADVANCED_FACE('',(#511),#544,.T.);
#511 = FACE_BOUND('',#512,.T.);
#512 = EDGE_LOOP('',(#513,#523,#531,#537,#538));
#513 = ORIENTED_EDGE('',*,*,#514,.T.);
#514 = EDGE_CURVE('',#515,#517,#519,.T.);
#515 = VERTEX_POINT('',#516);
#516 = CARTESIAN_POINT('',(-29.64535164916,-23.73611437445,0.));
#517 = VERTEX_POINT('',#518);
#518 = CARTESIAN_POINT('',(-29.64535164916,-23.73611437445,1.5));
#519 = LINE('',#520,#521);
#520 = CARTESIAN_POINT('',(-29.64535164916,-23.73611437445,0.));
#521 = VECTOR('',#522,1.);
#522 = DIRECTION('',(0.,0.,1.));
#523 = ORIENTED_EDGE('',*,*,#524,.T.);
#524 = EDGE_CURVE('',#517,#525,#527,.T.);
#525 = VERTEX_POINT('',#526);
#526 = CARTESIAN_POINT('',(-19.16433931553,-14.88146602362,1.5));
#527 = LINE('',#528,#529);
#528 = CARTESIAN_POINT('',(-29.64535164916,-23.73611437445,1.5));
#529 = VECTOR('',#530,1.);
#530 = DIRECTION('',(0.763885625546,0.645351649168,0.));
#531 = ORIENTED_EDGE('',*,*,#532,.F.);
#532 = EDGE_CURVE('',#122,#525,#533,.T.);
#533 = LINE('',#534,#535);
#534 = CARTESIAN_POINT('',(-19.16433931553,-14.88146602362,0.));
#535 = VECTOR('',#536,1.);
#536 = DIRECTION('',(0.,0.,1.));
#537 = ORIENTED_EDGE('',*,*,#121,.F.);
#538 = ORIENTED_EDGE('',*,*,#539,.F.);
#539 = EDGE_CURVE('',#515,#111,#540,.T.);
#540 = LINE('',#541,#542);
#541 = CARTESIAN_POINT('',(-29.64535164916,-23.73611437445,0.));
#542 = VECTOR('',#543,1.);
#543 = DIRECTION('',(0.763885625546,0.645351649168,0.));
#544 = PLANE('',#545);
#545 = AXIS2_PLACEMENT_3D('',#546,#547,#548);
#546 = CARTESIAN_POINT('',(-29.64535164916,-23.73611437445,0.));
#547 = DIRECTION('',(-0.645351649168,0.763885625546,0.));
#548 = DIRECTION('',(0.763885625546,0.645351649168,0.));
#549 = ADVANCED_FACE('',(#550),#583,.T.);
#550 = FACE_BOUND('',#551,.T.);
#551 = EDGE_LOOP('',(#552,#560,#568,#576,#582));
#552 = ORIENTED_EDGE('',*,*,#553,.T.);
#553 = EDGE_CURVE('',#130,#554,#556,.T.);
#554 = VERTEX_POINT('',#555);
#555 = CARTESIAN_POINT('',(-17.87363601719,-16.40923727471,1.5));
#556 = LINE('',#557,#558);
#557 = CARTESIAN_POINT('',(-17.87363601719,-16.40923727471,0.));
#558 = VECTOR('',#559,1.);
#559 = DIRECTION('',(0.,0.,1.));
#560 = ORIENTED_EDGE('',*,*,#561,.T.);
#561 = EDGE_CURVE('',#554,#562,#564,.T.);
#562 = VERTEX_POINT('',#563);
#563 = CARTESIAN_POINT('',(-28.35464835083,-25.26388562554,1.5));
#564 = LINE('',#565,#566);
#565 = CARTESIAN_POINT('',(-17.87363601719,-16.40923727471,1.5));
#566 = VECTOR('',#567,1.);
#567 = DIRECTION('',(-0.763885625546,-0.645351649168,0.));
#568 = ORIENTED_EDGE('',*,*,#569,.F.);
#569 = EDGE_CURVE('',#570,#562,#572,.T.);
#570 = VERTEX_POINT('',#571);
#571 = CARTESIAN_POINT('',(-28.35464835083,-25.26388562554,0.));
#572 = LINE('',#573,#574);
#573 = CARTESIAN_POINT('',(-28.35464835083,-25.26388562554,0.));
#574 = VECTOR('',#575,1.);
#575 = DIRECTION('',(0.,0.,1.));
#576 = ORIENTED_EDGE('',*,*,#577,.F.);
#577 = EDGE_CURVE('',#113,#570,#578,.T.);
#578 = LINE('',#579,#580);
#579 = CARTESIAN_POINT('',(-17.87363601719,-16.40923727471,0.));
#580 = VECTOR('',#581,1.);
#581 = DIRECTION('',(-0.763885625546,-0.645351649168,0.));
#582 = ORIENTED_EDGE('',*,*,#137,.F.);
#583 = PLANE('',#584);
#584 = AXIS2_PLACEMENT_3D('',#585,#586,#587);
#585 = CARTESIAN_POINT('',(-17.87363601719,-16.40923727471,0.));
#586 = DIRECTION('',(0.645351649168,-0.763885625546,0.));
#587 = DIRECTION('',(-0.763885625546,-0.645351649168,0.));
#588 = ADVANCED_FACE('',(#589),#600,.T.);
#589 = FACE_BOUND('',#590,.T.);
#590 = EDGE_LOOP('',(#591,#592,#598,#599));
#591 = ORIENTED_EDGE('',*,*,#532,.T.);
#592 = ORIENTED_EDGE('',*,*,#593,.T.);
#593 = EDGE_CURVE('',#525,#554,#594,.T.);
#594 = LINE('',#595,#596);
#595 = CARTESIAN_POINT('',(-19.16433931553,-14.88146602362,1.5));
#596 = VECTOR('',#597,1.);
#597 = DIRECTION('',(0.645351649168,-0.763885625546,0.));
#598 = ORIENTED_EDGE('',*,*,#553,.F.);
#599 = ORIENTED_EDGE('',*,*,#129,.F.);
#600 = PLANE('',#601);
#601 = AXIS2_PLACEMENT_3D('',#602,#603,#604);
#602 = CARTESIAN_POINT('',(-19.16433931553,-14.88146602362,0.));
#603 = DIRECTION('',(0.763885625546,0.645351649168,0.));
#604 = DIRECTION('',(0.645351649168,-0.763885625546,0.));
#605 = ADVANCED_FACE('',(#606),#617,.F.);
#606 = FACE_BOUND('',#607,.F.);
#607 = EDGE_LOOP('',(#608,#609,#615,#616));
#608 = ORIENTED_EDGE('',*,*,#145,.F.);
#609 = ORIENTED_EDGE('',*,*,#610,.F.);
#610 = EDGE_CURVE('',#376,#146,#611,.T.);
#611 = LINE('',#612,#613);
#612 = CARTESIAN_POINT('',(-10.25,-12.,-5.));
#613 = VECTOR('',#614,1.);
#614 = DIRECTION('',(0.,0.,1.));
#615 = ORIENTED_EDGE('',*,*,#375,.T.);
#616 = ORIENTED_EDGE('',*,*,#610,.T.);
#617 = CYLINDRICAL_SURFACE('',#618,1.75);
#618 = AXIS2_PLACEMENT_3D('',#619,#620,#621);
#619 = CARTESIAN_POINT('',(-12.,-12.,-5.));
#620 = DIRECTION('',(0.,0.,1.));
#621 = DIRECTION('',(1.,0.,0.));
#622 = ADVANCED_FACE('',(#623),#642,.F.);
#623 = FACE_BOUND('',#624,.F.);
#624 = EDGE_LOOP('',(#625,#631,#632,#639,#640,#641));
#625 = ORIENTED_EDGE('',*,*,#626,.T.);
#626 = EDGE_CURVE('',#387,#157,#627,.T.);
#627 = LINE('',#628,#629);
#628 = CARTESIAN_POINT('',(30.5,-24.5,-5.));
#629 = VECTOR('',#630,1.);
#630 = DIRECTION('',(0.,0.,1.));
#631 = ORIENTED_EDGE('',*,*,#167,.F.);
#632 = ORIENTED_EDGE('',*,*,#633,.F.);
#633 = EDGE_CURVE('',#159,#168,#634,.T.);
#634 = CIRCLE('',#635,1.5);
#635 = AXIS2_PLACEMENT_3D('',#636,#637,#638);
#636 = CARTESIAN_POINT('',(29.,-24.5,0.));
#637 = DIRECTION('',(0.,0.,1.));
#638 = DIRECTION('',(1.,0.,0.));
#639 = ORIENTED_EDGE('',*,*,#156,.F.);
#640 = ORIENTED_EDGE('',*,*,#626,.F.);
#641 = ORIENTED_EDGE('',*,*,#386,.T.);
#642 = CYLINDRICAL_SURFACE('',#643,1.5);
#643 = AXIS2_PLACEMENT_3D('',#644,#645,#646);
#644 = CARTESIAN_POINT('',(29.,-24.5,-5.));
#645 = DIRECTION('',(0.,0.,1.));
#646 = DIRECTION('',(1.,0.,0.));
#647 = ADVANCED_FACE('',(#648),#681,.T.);
#648 = FACE_BOUND('',#649,.T.);
#649 = EDGE_LOOP('',(#650,#658,#666,#674,#680));
#650 = ORIENTED_EDGE('',*,*,#651,.T.);
#651 = EDGE_CURVE('',#185,#652,#654,.T.);
#652 = VERTEX_POINT('',#653);
#653 = CARTESIAN_POINT('',(19.164339315531,-14.88146602362,1.5));
#654 = LINE('',#655,#656);
#655 = CARTESIAN_POINT('',(19.164339315531,-14.88146602362,0.));
#656 = VECTOR('',#657,1.);
#657 = DIRECTION('',(0.,0.,1.));
#658 = ORIENTED_EDGE('',*,*,#659,.T.);
#659 = EDGE_CURVE('',#652,#660,#662,.T.);
#660 = VERTEX_POINT('',#661);
#661 = CARTESIAN_POINT('',(29.645351649168,-23.73611437445,1.5));
#662 = LINE('',#663,#664);
#663 = CARTESIAN_POINT('',(19.164339315531,-14.88146602362,1.5));
#664 = VECTOR('',#665,1.);
#665 = DIRECTION('',(0.763885625546,-0.645351649168,0.));
#666 = ORIENTED_EDGE('',*,*,#667,.F.);
#667 = EDGE_CURVE('',#668,#660,#670,.T.);
#668 = VERTEX_POINT('',#669);
#669 = CARTESIAN_POINT('',(29.645351649168,-23.73611437445,0.));
#670 = LINE('',#671,#672);
#671 = CARTESIAN_POINT('',(29.645351649168,-23.73611437445,0.));
#672 = VECTOR('',#673,1.);
#673 = DIRECTION('',(0.,0.,1.));
#674 = ORIENTED_EDGE('',*,*,#675,.F.);
#675 = EDGE_CURVE('',#159,#668,#676,.T.);
#676 = LINE('',#677,#678);
#677 = CARTESIAN_POINT('',(19.164339315531,-14.88146602362,0.));
#678 = VECTOR('',#679,1.);
#679 = DIRECTION('',(0.763885625546,-0.645351649168,0.));
#680 = ORIENTED_EDGE('',*,*,#192,.F.);
#681 = PLANE('',#682);
#682 = AXIS2_PLACEMENT_3D('',#683,#684,#685);
#683 = CARTESIAN_POINT('',(19.164339315531,-14.88146602362,0.));
#684 = DIRECTION('',(0.645351649168,0.763885625546,0.));
#685 = DIRECTION('',(0.763885625546,-0.645351649168,0.));
#686 = ADVANCED_FACE('',(#687),#720,.T.);
#687 = FACE_BOUND('',#688,.T.);
#688 = EDGE_LOOP('',(#689,#699,#707,#713,#714));
#689 = ORIENTED_EDGE('',*,*,#690,.T.);
#690 = EDGE_CURVE('',#691,#693,#695,.T.);
#691 = VERTEX_POINT('',#692);
#692 = CARTESIAN_POINT('',(28.354648350832,-25.26388562554,0.));
#693 = VERTEX_POINT('',#694);
#694 = CARTESIAN_POINT('',(28.354648350832,-25.26388562554,1.5));
#695 = LINE('',#696,#697);
#696 = CARTESIAN_POINT('',(28.354648350832,-25.26388562554,0.));
#697 = VECTOR('',#698,1.);
#698 = DIRECTION('',(0.,0.,1.));
#699 = ORIENTED_EDGE('',*,*,#700,.T.);
#700 = EDGE_CURVE('',#693,#701,#703,.T.);
#701 = VERTEX_POINT('',#702);
#702 = CARTESIAN_POINT('',(17.873636017194,-16.40923727471,1.5));
#703 = LINE('',#704,#705);
#704 = CARTESIAN_POINT('',(28.354648350832,-25.26388562554,1.5));
#705 = VECTOR('',#706,1.);
#706 = DIRECTION('',(-0.763885625546,0.645351649168,0.));
#707 = ORIENTED_EDGE('',*,*,#708,.F.);
#708 = EDGE_CURVE('',#177,#701,#709,.T.);
#709 = LINE('',#710,#711);
#710 = CARTESIAN_POINT('',(17.873636017194,-16.40923727471,0.));
#711 = VECTOR('',#712,1.);
#712 = DIRECTION('',(0.,0.,1.));
#713 = ORIENTED_EDGE('',*,*,#176,.F.);
#714 = ORIENTED_EDGE('',*,*,#715,.F.);
#715 = EDGE_CURVE('',#691,#168,#716,.T.);
#716 = LINE('',#717,#718);
#717 = CARTESIAN_POINT('',(28.354648350832,-25.26388562554,0.));
#718 = VECTOR('',#719,1.);
#719 = DIRECTION('',(-0.763885625546,0.645351649168,0.));
#720 = PLANE('',#721);
#721 = AXIS2_PLACEMENT_3D('',#722,#723,#724);
#722 = CARTESIAN_POINT('',(28.354648350832,-25.26388562554,0.));
#723 = DIRECTION('',(-0.645351649168,-0.763885625546,0.));
#724 = DIRECTION('',(-0.763885625546,0.645351649168,0.));
#725 = ADVANCED_FACE('',(#726),#737,.T.);
#726 = FACE_BOUND('',#727,.T.);
#727 = EDGE_LOOP('',(#728,#729,#735,#736));
#728 = ORIENTED_EDGE('',*,*,#708,.T.);
#729 = ORIENTED_EDGE('',*,*,#730,.T.);
#730 = EDGE_CURVE('',#701,#652,#731,.T.);
#731 = LINE('',#732,#733);
#732 = CARTESIAN_POINT('',(17.873636017194,-16.40923727471,1.5));
#733 = VECTOR('',#734,1.);
#734 = DIRECTION('',(0.645351649168,0.763885625546,0.));
#735 = ORIENTED_EDGE('',*,*,#651,.F.);
#736 = ORIENTED_EDGE('',*,*,#184,.F.);
#737 = PLANE('',#738);
#738 = AXIS2_PLACEMENT_3D('',#739,#740,#741);
#739 = CARTESIAN_POINT('',(17.873636017194,-16.40923727471,0.));
#740 = DIRECTION('',(-0.763885625546,0.645351649168,0.));
#741 = DIRECTION('',(0.645351649168,0.763885625546,0.));
#742 = ADVANCED_FACE('',(#743),#754,.F.);
#743 = FACE_BOUND('',#744,.F.);
#744 = EDGE_LOOP('',(#745,#746,#752,#753));
#745 = ORIENTED_EDGE('',*,*,#200,.F.);
#746 = ORIENTED_EDGE('',*,*,#747,.F.);
#747 = EDGE_CURVE('',#398,#201,#748,.T.);
#748 = LINE('',#749,#750);
#749 = CARTESIAN_POINT('',(13.75,-12.,-5.));
#750 = VECTOR('',#751,1.);
#751 = DIRECTION('',(0.,0.,1.));
#752 = ORIENTED_EDGE('',*,*,#397,.T.);
#753 = ORIENTED_EDGE('',*,*,#747,.T.);
#754 = CYLINDRICAL_SURFACE('',#755,1.75);
#755 = AXIS2_PLACEMENT_3D('',#756,#757,#758);
#756 = CARTESIAN_POINT('',(12.,-12.,-5.));
#757 = DIRECTION('',(0.,0.,1.));
#758 = DIRECTION('',(1.,0.,0.));
#759 = ADVANCED_FACE('',(#760),#771,.F.);
#760 = FACE_BOUND('',#761,.F.);
#761 = EDGE_LOOP('',(#762,#763,#769,#770));
#762 = ORIENTED_EDGE('',*,*,#211,.F.);
#763 = ORIENTED_EDGE('',*,*,#764,.F.);
#764 = EDGE_CURVE('',#409,#212,#765,.T.);
#765 = LINE('',#766,#767);
#766 = CARTESIAN_POINT('',(-10.25,12.,-5.));
#767 = VECTOR('',#768,1.);
#768 = DIRECTION('',(0.,0.,1.));
#769 = ORIENTED_EDGE('',*,*,#408,.T.);
#770 = ORIENTED_EDGE('',*,*,#764,.T.);
#771 = CYLINDRICAL_SURFACE('',#772,1.75);
#772 = AXIS2_PLACEMENT_3D('',#773,#774,#775);
#773 = CARTESIAN_POINT('',(-12.,12.,-5.));
#774 = DIRECTION('',(0.,0.,1.));
#775 = DIRECTION('',(1.,0.,0.));
#776 = ADVANCED_FACE('',(#777),#804,.F.);
#777 = FACE_BOUND('',#778,.F.);
#778 = EDGE_LOOP('',(#779,#787,#794,#795,#802,#803));
#779 = ORIENTED_EDGE('',*,*,#780,.T.);
#780 = EDGE_CURVE('',#420,#781,#783,.T.);
#781 = VERTEX_POINT('',#782);
#782 = CARTESIAN_POINT('',(-27.5,24.5,0.));
#783 = LINE('',#784,#785);
#784 = CARTESIAN_POINT('',(-27.5,24.5,-5.));
#785 = VECTOR('',#786,1.);
#786 = DIRECTION('',(0.,0.,1.));
#787 = ORIENTED_EDGE('',*,*,#788,.F.);
#788 = EDGE_CURVE('',#225,#781,#789,.T.);
#789 = CIRCLE('',#790,1.5);
#790 = AXIS2_PLACEMENT_3D('',#791,#792,#793);
#791 = CARTESIAN_POINT('',(-29.,24.5,0.));
#792 = DIRECTION('',(0.,0.,1.));
#793 = DIRECTION('',(1.,0.,0.));
#794 = ORIENTED_EDGE('',*,*,#222,.F.);
#795 = ORIENTED_EDGE('',*,*,#796,.F.);
#796 = EDGE_CURVE('',#781,#223,#797,.T.);
#797 = CIRCLE('',#798,1.5);
#798 = AXIS2_PLACEMENT_3D('',#799,#800,#801);
#799 = CARTESIAN_POINT('',(-29.,24.5,0.));
#800 = DIRECTION('',(0.,0.,1.));
#801 = DIRECTION('',(1.,0.,0.));
#802 = ORIENTED_EDGE('',*,*,#780,.F.);
#803 = ORIENTED_EDGE('',*,*,#419,.T.);
#804 = CYLINDRICAL_SURFACE('',#805,1.5);
#805 = AXIS2_PLACEMENT_3D('',#806,#807,#808);
#806 = CARTESIAN_POINT('',(-29.,24.5,-5.));
#807 = DIRECTION('',(0.,0.,1.));
#808 = DIRECTION('',(1.,0.,0.));
#809 = ADVANCED_FACE('',(#810),#843,.T.);
#810 = FACE_BOUND('',#811,.T.);
#811 = EDGE_LOOP('',(#812,#822,#830,#836,#837));
#812 = ORIENTED_EDGE('',*,*,#813,.T.);
#813 = EDGE_CURVE('',#814,#816,#818,.T.);
#814 = VERTEX_POINT('',#815);
#815 = CARTESIAN_POINT('',(-28.35464835083,25.263885625546,0.));
#816 = VERTEX_POINT('',#817);
#817 = CARTESIAN_POINT('',(-28.35464835083,25.263885625546,1.5));
#818 = LINE('',#819,#820);
#819 = CARTESIAN_POINT('',(-28.35464835083,25.263885625546,0.));
#820 = VECTOR('',#821,1.);
#821 = DIRECTION('',(0.,0.,1.));
#822 = ORIENTED_EDGE('',*,*,#823,.T.);
#823 = EDGE_CURVE('',#816,#824,#826,.T.);
#824 = VERTEX_POINT('',#825);
#825 = CARTESIAN_POINT('',(-17.87363601719,16.409237274714,1.5));
#826 = LINE('',#827,#828);
#827 = CARTESIAN_POINT('',(-28.35464835083,25.263885625546,1.5));
#828 = VECTOR('',#829,1.);
#829 = DIRECTION('',(0.763885625546,-0.645351649168,0.));
#830 = ORIENTED_EDGE('',*,*,#831,.F.);
#831 = EDGE_CURVE('',#234,#824,#832,.T.);
#832 = LINE('',#833,#834);
#833 = CARTESIAN_POINT('',(-17.87363601719,16.409237274714,0.));
#834 = VECTOR('',#835,1.);
#835 = DIRECTION('',(0.,0.,1.));
#836 = ORIENTED_EDGE('',*,*,#233,.F.);
#837 = ORIENTED_EDGE('',*,*,#838,.F.);
#838 = EDGE_CURVE('',#814,#223,#839,.T.);
#839 = LINE('',#840,#841);
#840 = CARTESIAN_POINT('',(-28.35464835083,25.263885625546,0.));
#841 = VECTOR('',#842,1.);
#842 = DIRECTION('',(0.763885625546,-0.645351649168,0.));
#843 = PLANE('',#844);
#844 = AXIS2_PLACEMENT_3D('',#845,#846,#847);
#845 = CARTESIAN_POINT('',(-28.35464835083,25.263885625546,0.));
#846 = DIRECTION('',(0.645351649168,0.763885625546,0.));
#847 = DIRECTION('',(0.763885625546,-0.645351649168,0.));
#848 = ADVANCED_FACE('',(#849),#882,.T.);
#849 = FACE_BOUND('',#850,.T.);
#850 = EDGE_LOOP('',(#851,#859,#867,#875,#881));
#851 = ORIENTED_EDGE('',*,*,#852,.T.);
#852 = EDGE_CURVE('',#242,#853,#855,.T.);
#853 = VERTEX_POINT('',#854);
#854 = CARTESIAN_POINT('',(-19.16433931553,14.881466023622,1.5));
#855 = LINE('',#856,#857);
#856 = CARTESIAN_POINT('',(-19.16433931553,14.881466023622,0.));
#857 = VECTOR('',#858,1.);
#858 = DIRECTION('',(0.,0.,1.));
#859 = ORIENTED_EDGE('',*,*,#860,.T.);
#860 = EDGE_CURVE('',#853,#861,#863,.T.);
#861 = VERTEX_POINT('',#862);
#862 = CARTESIAN_POINT('',(-29.64535164916,23.736114374454,1.5));
#863 = LINE('',#864,#865);
#864 = CARTESIAN_POINT('',(-19.16433931553,14.881466023622,1.5));
#865 = VECTOR('',#866,1.);
#866 = DIRECTION('',(-0.763885625546,0.645351649168,0.));
#867 = ORIENTED_EDGE('',*,*,#868,.F.);
#868 = EDGE_CURVE('',#869,#861,#871,.T.);
#869 = VERTEX_POINT('',#870);
#870 = CARTESIAN_POINT('',(-29.64535164916,23.736114374454,0.));
#871 = LINE('',#872,#873);
#872 = CARTESIAN_POINT('',(-29.64535164916,23.736114374454,0.));
#873 = VECTOR('',#874,1.);
#874 = DIRECTION('',(0.,0.,1.));
#875 = ORIENTED_EDGE('',*,*,#876,.F.);
#876 = EDGE_CURVE('',#225,#869,#877,.T.);
#877 = LINE('',#878,#879);
#878 = CARTESIAN_POINT('',(-19.16433931553,14.881466023622,0.));
#879 = VECTOR('',#880,1.);
#880 = DIRECTION('',(-0.763885625546,0.645351649168,0.));
#881 = ORIENTED_EDGE('',*,*,#249,.F.);
#882 = PLANE('',#883);
#883 = AXIS2_PLACEMENT_3D('',#884,#885,#886);
#884 = CARTESIAN_POINT('',(-19.16433931553,14.881466023622,0.));
#885 = DIRECTION('',(-0.645351649168,-0.763885625546,0.));
#886 = DIRECTION('',(-0.763885625546,0.645351649168,0.));
#887 = ADVANCED_FACE('',(#888),#899,.T.);
#888 = FACE_BOUND('',#889,.T.);
#889 = EDGE_LOOP('',(#890,#891,#897,#898));
#890 = ORIENTED_EDGE('',*,*,#831,.T.);
#891 = ORIENTED_EDGE('',*,*,#892,.T.);
#892 = EDGE_CURVE('',#824,#853,#893,.T.);
#893 = LINE('',#894,#895);
#894 = CARTESIAN_POINT('',(-17.87363601719,16.409237274714,1.5));
#895 = VECTOR('',#896,1.);
#896 = DIRECTION('',(-0.645351649168,-0.763885625546,0.));
#897 = ORIENTED_EDGE('',*,*,#852,.F.);
#898 = ORIENTED_EDGE('',*,*,#241,.F.);
#899 = PLANE('',#900);
#900 = AXIS2_PLACEMENT_3D('',#901,#902,#903);
#901 = CARTESIAN_POINT('',(-17.87363601719,16.409237274714,0.));
#902 = DIRECTION('',(0.763885625546,-0.645351649168,0.));
#903 = DIRECTION('',(-0.645351649168,-0.763885625546,0.));
#904 = ADVANCED_FACE('',(#905),#916,.F.);
#905 = FACE_BOUND('',#906,.F.);
#906 = EDGE_LOOP('',(#907,#908,#914,#915));
#907 = ORIENTED_EDGE('',*,*,#257,.F.);
#908 = ORIENTED_EDGE('',*,*,#909,.F.);
#909 = EDGE_CURVE('',#431,#258,#910,.T.);
#910 = LINE('',#911,#912);
#911 = CARTESIAN_POINT('',(12.,-2.939152317954E-15,-5.));
#912 = VECTOR('',#913,1.);
#913 = DIRECTION('',(0.,0.,1.));
#914 = ORIENTED_EDGE('',*,*,#430,.T.);
#915 = ORIENTED_EDGE('',*,*,#909,.T.);
#916 = CYLINDRICAL_SURFACE('',#917,12.);
#917 = AXIS2_PLACEMENT_3D('',#918,#919,#920);
#918 = CARTESIAN_POINT('',(0.,0.,-5.));
#919 = DIRECTION('',(0.,0.,1.));
#920 = DIRECTION('',(1.,0.,0.));
#921 = ADVANCED_FACE('',(#922),#933,.F.);
#922 = FACE_BOUND('',#923,.F.);
#923 = EDGE_LOOP('',(#924,#925,#931,#932));
#924 = ORIENTED_EDGE('',*,*,#268,.F.);
#925 = ORIENTED_EDGE('',*,*,#926,.F.);
#926 = EDGE_CURVE('',#442,#269,#927,.T.);
#927 = LINE('',#928,#929);
#928 = CARTESIAN_POINT('',(13.75,12.,-5.));
#929 = VECTOR('',#930,1.);
#930 = DIRECTION('',(0.,0.,1.));
#931 = ORIENTED_EDGE('',*,*,#441,.T.);
#932 = ORIENTED_EDGE('',*,*,#926,.T.);
#933 = CYLINDRICAL_SURFACE('',#934,1.75);
#934 = AXIS2_PLACEMENT_3D('',#935,#936,#937);
#935 = CARTESIAN_POINT('',(12.,12.,-5.));
#936 = DIRECTION('',(0.,0.,1.));
#937 = DIRECTION('',(1.,0.,0.));
#938 = ADVANCED_FACE('',(#939),#958,.F.);
#939 = FACE_BOUND('',#940,.F.);
#940 = EDGE_LOOP('',(#941,#947,#948,#955,#956,#957));
#941 = ORIENTED_EDGE('',*,*,#942,.T.);
#942 = EDGE_CURVE('',#453,#280,#943,.T.);
#943 = LINE('',#944,#945);
#944 = CARTESIAN_POINT('',(30.5,24.5,-5.));
#945 = VECTOR('',#946,1.);
#946 = DIRECTION('',(0.,0.,1.));
#947 = ORIENTED_EDGE('',*,*,#290,.F.);
#948 = ORIENTED_EDGE('',*,*,#949,.F.);
#949 = EDGE_CURVE('',#282,#291,#950,.T.);
#950 = CIRCLE('',#951,1.5);
#951 = AXIS2_PLACEMENT_3D('',#952,#953,#954);
#952 = CARTESIAN_POINT('',(29.,24.5,0.));
#953 = DIRECTION('',(0.,0.,1.));
#954 = DIRECTION('',(1.,0.,0.));
#955 = ORIENTED_EDGE('',*,*,#279,.F.);
#956 = ORIENTED_EDGE('',*,*,#942,.F.);
#957 = ORIENTED_EDGE('',*,*,#452,.T.);
#958 = CYLINDRICAL_SURFACE('',#959,1.5);
#959 = AXIS2_PLACEMENT_3D('',#960,#961,#962);
#960 = CARTESIAN_POINT('',(29.,24.5,-5.));
#961 = DIRECTION('',(0.,0.,1.));
#962 = DIRECTION('',(1.,0.,0.));
#963 = ADVANCED_FACE('',(#964),#997,.T.);
#964 = FACE_BOUND('',#965,.T.);
#965 = EDGE_LOOP('',(#966,#974,#982,#990,#996));
#966 = ORIENTED_EDGE('',*,*,#967,.T.);
#967 = EDGE_CURVE('',#308,#968,#970,.T.);
#968 = VERTEX_POINT('',#969);
#969 = CARTESIAN_POINT('',(17.873636017194,16.409237274714,1.5));
#970 = LINE('',#971,#972);
#971 = CARTESIAN_POINT('',(17.873636017194,16.409237274714,0.));
#972 = VECTOR('',#973,1.);
#973 = DIRECTION('',(0.,0.,1.));
#974 = ORIENTED_EDGE('',*,*,#975,.T.);
#975 = EDGE_CURVE('',#968,#976,#978,.T.);
#976 = VERTEX_POINT('',#977);
#977 = CARTESIAN_POINT('',(28.354648350832,25.263885625546,1.5));
#978 = LINE('',#979,#980);
#979 = CARTESIAN_POINT('',(17.873636017194,16.409237274714,1.5));
#980 = VECTOR('',#981,1.);
#981 = DIRECTION('',(0.763885625546,0.645351649168,0.));
#982 = ORIENTED_EDGE('',*,*,#983,.F.);
#983 = EDGE_CURVE('',#984,#976,#986,.T.);
#984 = VERTEX_POINT('',#985);
#985 = CARTESIAN_POINT('',(28.354648350832,25.263885625546,0.));
#986 = LINE('',#987,#988);
#987 = CARTESIAN_POINT('',(28.354648350832,25.263885625546,0.));
#988 = VECTOR('',#989,1.);
#989 = DIRECTION('',(0.,0.,1.));
#990 = ORIENTED_EDGE('',*,*,#991,.F.);
#991 = EDGE_CURVE('',#282,#984,#992,.T.);
#992 = LINE('',#993,#994);
#993 = CARTESIAN_POINT('',(17.873636017194,16.409237274714,0.));
#994 = VECTOR('',#995,1.);
#995 = DIRECTION('',(0.763885625546,0.645351649168,0.));
#996 = ORIENTED_EDGE('',*,*,#315,.F.);
#997 = PLANE('',#998);
#998 = AXIS2_PLACEMENT_3D('',#999,#1000,#1001);
#999 = CARTESIAN_POINT('',(17.873636017194,16.409237274714,0.));
#1000 = DIRECTION('',(-0.645351649168,0.763885625546,0.));
#1001 = DIRECTION('',(0.763885625546,0.645351649168,0.));
#1002 = ADVANCED_FACE('',(#1003),#1021,.T.);
#1003 = FACE_BOUND('',#1004,.T.);
#1004 = EDGE_LOOP('',(#1005,#1013,#1019,#1020));
#1005 = ORIENTED_EDGE('',*,*,#1006,.T.);
#1006 = EDGE_CURVE('',#300,#1007,#1009,.T.);
#1007 = VERTEX_POINT('',#1008);
#1008 = CARTESIAN_POINT('',(19.164339315531,14.881466023622,1.5));
#1009 = LINE('',#1010,#1011);
#1010 = CARTESIAN_POINT('',(19.164339315531,14.881466023622,0.));
#1011 = VECTOR('',#1012,1.);
#1012 = DIRECTION('',(0.,0.,1.));
#1013 = ORIENTED_EDGE('',*,*,#1014,.T.);
#1014 = EDGE_CURVE('',#1007,#968,#1015,.T.);
#1015 = LINE('',#1016,#1017);
#1016 = CARTESIAN_POINT('',(19.164339315531,14.881466023622,1.5));
#1017 = VECTOR('',#1018,1.);
#1018 = DIRECTION('',(-0.645351649168,0.763885625546,0.));
#1019 = ORIENTED_EDGE('',*,*,#967,.F.);
#1020 = ORIENTED_EDGE('',*,*,#307,.F.);
#1021 = PLANE('',#1022);
#1022 = AXIS2_PLACEMENT_3D('',#1023,#1024,#1025);
#1023 = CARTESIAN_POINT('',(19.164339315531,14.881466023622,0.));
#1024 = DIRECTION('',(-0.763885625546,-0.645351649168,0.));
#1025 = DIRECTION('',(-0.645351649168,0.763885625546,0.));
#1026 = ADVANCED_FACE('',(#1027),#1053,.T.);
#1027 = FACE_BOUND('',#1028,.T.);
#1028 = EDGE_LOOP('',(#1029,#1039,#1045,#1046,#1047));
#1029 = ORIENTED_EDGE('',*,*,#1030,.T.);
#1030 = EDGE_CURVE('',#1031,#1033,#1035,.T.);
#1031 = VERTEX_POINT('',#1032);
#1032 = CARTESIAN_POINT('',(29.645351649168,23.736114374454,0.));
#1033 = VERTEX_POINT('',#1034);
#1034 = CARTESIAN_POINT('',(29.645351649168,23.736114374454,1.5));
#1035 = LINE('',#1036,#1037);
#1036 = CARTESIAN_POINT('',(29.645351649168,23.736114374454,0.));
#1037 = VECTOR('',#1038,1.);
#1038 = DIRECTION('',(0.,0.,1.));
#1039 = ORIENTED_EDGE('',*,*,#1040,.T.);
#1040 = EDGE_CURVE('',#1033,#1007,#1041,.T.);
#1041 = LINE('',#1042,#1043);
#1042 = CARTESIAN_POINT('',(29.645351649168,23.736114374454,1.5));
#1043 = VECTOR('',#1044,1.);
#1044 = DIRECTION('',(-0.763885625546,-0.645351649168,0.));
#1045 = ORIENTED_EDGE('',*,*,#1006,.F.);
#1046 = ORIENTED_EDGE('',*,*,#299,.F.);
#1047 = ORIENTED_EDGE('',*,*,#1048,.F.);
#1048 = EDGE_CURVE('',#1031,#291,#1049,.T.);
#1049 = LINE('',#1050,#1051);
#1050 = CARTESIAN_POINT('',(29.645351649168,23.736114374454,0.));
#1051 = VECTOR('',#1052,1.);
#1052 = DIRECTION('',(-0.763885625546,-0.645351649168,0.));
#1053 = PLANE('',#1054);
#1054 = AXIS2_PLACEMENT_3D('',#1055,#1056,#1057);
#1055 = CARTESIAN_POINT('',(29.645351649168,23.736114374454,0.));
#1056 = DIRECTION('',(0.645351649168,-0.763885625546,0.));
#1057 = DIRECTION('',(-0.763885625546,-0.645351649168,0.));
#1058 = ADVANCED_FACE('',(#1059),#1071,.T.);
#1059 = FACE_BOUND('',#1060,.T.);
#1060 = EDGE_LOOP('',(#1061,#1067,#1068,#1069,#1070));
#1061 = ORIENTED_EDGE('',*,*,#1062,.T.);
#1062 = EDGE_CURVE('',#570,#515,#1063,.T.);
#1063 = LINE('',#1064,#1065);
#1064 = CARTESIAN_POINT('',(-28.35464835083,-25.26388562554,0.));
#1065 = VECTOR('',#1066,1.);
#1066 = DIRECTION('',(-0.645351649168,0.763885625546,0.));
#1067 = ORIENTED_EDGE('',*,*,#539,.T.);
#1068 = ORIENTED_EDGE('',*,*,#497,.F.);
#1069 = ORIENTED_EDGE('',*,*,#489,.F.);
#1070 = ORIENTED_EDGE('',*,*,#577,.T.);
#1071 = PLANE('',#1072);
#1072 = AXIS2_PLACEMENT_3D('',#1073,#1074,#1075);
#1073 = CARTESIAN_POINT('',(-23.75949383318,-20.07267582458,0.));
#1074 = DIRECTION('',(-0.,-0.,-1.));
#1075 = DIRECTION('',(-1.,0.,0.));
#1076 = ADVANCED_FACE('',(#1077),#1088,.T.);
#1077 = FACE_BOUND('',#1078,.T.);
#1078 = EDGE_LOOP('',(#1079,#1080,#1086,#1087));
#1079 = ORIENTED_EDGE('',*,*,#569,.T.);
#1080 = ORIENTED_EDGE('',*,*,#1081,.T.);
#1081 = EDGE_CURVE('',#562,#517,#1082,.T.);
#1082 = LINE('',#1083,#1084);
#1083 = CARTESIAN_POINT('',(-28.35464835083,-25.26388562554,1.5));
#1084 = VECTOR('',#1085,1.);
#1085 = DIRECTION('',(-0.645351649168,0.763885625546,0.));
#1086 = ORIENTED_EDGE('',*,*,#514,.F.);
#1087 = ORIENTED_EDGE('',*,*,#1062,.F.);
#1088 = PLANE('',#1089);
#1089 = AXIS2_PLACEMENT_3D('',#1090,#1091,#1092);
#1090 = CARTESIAN_POINT('',(-28.35464835083,-25.26388562554,0.));
#1091 = DIRECTION('',(-0.763885625546,-0.645351649168,0.));
#1092 = DIRECTION('',(-0.645351649168,0.763885625546,0.));
#1093 = ADVANCED_FACE('',(#1094),#1100,.F.);
#1094 = FACE_BOUND('',#1095,.F.);
#1095 = EDGE_LOOP('',(#1096,#1097,#1098,#1099));
#1096 = ORIENTED_EDGE('',*,*,#524,.T.);
#1097 = ORIENTED_EDGE('',*,*,#593,.T.);
#1098 = ORIENTED_EDGE('',*,*,#561,.T.);
#1099 = ORIENTED_EDGE('',*,*,#1081,.T.);
#1100 = PLANE('',#1101);
#1101 = AXIS2_PLACEMENT_3D('',#1102,#1103,#1104);
#1102 = CARTESIAN_POINT('',(-23.75949383318,-20.07267582458,1.5));
#1103 = DIRECTION('',(-0.,-0.,-1.));
#1104 = DIRECTION('',(-1.,0.,0.));
#1105 = ADVANCED_FACE('',(#1106),#1117,.T.);
#1106 = FACE_BOUND('',#1107,.T.);
#1107 = EDGE_LOOP('',(#1108,#1114,#1115,#1116));
#1108 = ORIENTED_EDGE('',*,*,#1109,.T.);
#1109 = EDGE_CURVE('',#668,#691,#1110,.T.);
#1110 = LINE('',#1111,#1112);
#1111 = CARTESIAN_POINT('',(29.645351649168,-23.73611437445,0.));
#1112 = VECTOR('',#1113,1.);
#1113 = DIRECTION('',(-0.645351649168,-0.763885625546,0.));
#1114 = ORIENTED_EDGE('',*,*,#715,.T.);
#1115 = ORIENTED_EDGE('',*,*,#633,.F.);
#1116 = ORIENTED_EDGE('',*,*,#675,.T.);
#1117 = PLANE('',#1118);
#1118 = AXIS2_PLACEMENT_3D('',#1119,#1120,#1121);
#1119 = CARTESIAN_POINT('',(23.759493833181,-20.07267582458,0.));
#1120 = DIRECTION('',(-0.,-0.,-1.));
#1121 = DIRECTION('',(-1.,0.,0.));
#1122 = ADVANCED_FACE('',(#1123),#1134,.T.);
#1123 = FACE_BOUND('',#1124,.T.);
#1124 = EDGE_LOOP('',(#1125,#1126,#1132,#1133));
#1125 = ORIENTED_EDGE('',*,*,#667,.T.);
#1126 = ORIENTED_EDGE('',*,*,#1127,.T.);
#1127 = EDGE_CURVE('',#660,#693,#1128,.T.);
#1128 = LINE('',#1129,#1130);
#1129 = CARTESIAN_POINT('',(29.645351649168,-23.73611437445,1.5));
#1130 = VECTOR('',#1131,1.);
#1131 = DIRECTION('',(-0.645351649168,-0.763885625546,0.));
#1132 = ORIENTED_EDGE('',*,*,#690,.F.);
#1133 = ORIENTED_EDGE('',*,*,#1109,.F.);
#1134 = PLANE('',#1135);
#1135 = AXIS2_PLACEMENT_3D('',#1136,#1137,#1138);
#1136 = CARTESIAN_POINT('',(29.645351649168,-23.73611437445,0.));
#1137 = DIRECTION('',(0.763885625546,-0.645351649168,0.));
#1138 = DIRECTION('',(-0.645351649168,-0.763885625546,0.));
#1139 = ADVANCED_FACE('',(#1140),#1146,.F.);
#1140 = FACE_BOUND('',#1141,.F.);
#1141 = EDGE_LOOP('',(#1142,#1143,#1144,#1145));
#1142 = ORIENTED_EDGE('',*,*,#700,.T.);
#1143 = ORIENTED_EDGE('',*,*,#730,.T.);
#1144 = ORIENTED_EDGE('',*,*,#659,.T.);
#1145 = ORIENTED_EDGE('',*,*,#1127,.T.);
#1146 = PLANE('',#1147);
#1147 = AXIS2_PLACEMENT_3D('',#1148,#1149,#1150);
#1148 = CARTESIAN_POINT('',(23.759493833181,-20.07267582458,1.5));
#1149 = DIRECTION('',(-0.,-0.,-1.));
#1150 = DIRECTION('',(-1.,0.,0.));
#1151 = ADVANCED_FACE('',(#1152),#1164,.T.);
#1152 = FACE_BOUND('',#1153,.T.);
#1153 = EDGE_LOOP('',(#1154,#1160,#1161,#1162,#1163));
#1154 = ORIENTED_EDGE('',*,*,#1155,.T.);
#1155 = EDGE_CURVE('',#869,#814,#1156,.T.);
#1156 = LINE('',#1157,#1158);
#1157 = CARTESIAN_POINT('',(-29.64535164916,23.736114374454,0.));
#1158 = VECTOR('',#1159,1.);
#1159 = DIRECTION('',(0.645351649168,0.763885625546,0.));
#1160 = ORIENTED_EDGE('',*,*,#838,.T.);
#1161 = ORIENTED_EDGE('',*,*,#796,.F.);
#1162 = ORIENTED_EDGE('',*,*,#788,.F.);
#1163 = ORIENTED_EDGE('',*,*,#876,.T.);
#1164 = PLANE('',#1165);
#1165 = AXIS2_PLACEMENT_3D('',#1166,#1167,#1168);
#1166 = CARTESIAN_POINT('',(-23.75949383318,20.072675824584,0.));
#1167 = DIRECTION('',(-0.,-0.,-1.));
#1168 = DIRECTION('',(-1.,0.,0.));
#1169 = ADVANCED_FACE('',(#1170),#1181,.T.);
#1170 = FACE_BOUND('',#1171,.T.);
#1171 = EDGE_LOOP('',(#1172,#1173,#1179,#1180));
#1172 = ORIENTED_EDGE('',*,*,#868,.T.);
#1173 = ORIENTED_EDGE('',*,*,#1174,.T.);
#1174 = EDGE_CURVE('',#861,#816,#1175,.T.);
#1175 = LINE('',#1176,#1177);
#1176 = CARTESIAN_POINT('',(-29.64535164916,23.736114374454,1.5));
#1177 = VECTOR('',#1178,1.);
#1178 = DIRECTION('',(0.645351649168,0.763885625546,0.));
#1179 = ORIENTED_EDGE('',*,*,#813,.F.);
#1180 = ORIENTED_EDGE('',*,*,#1155,.F.);
#1181 = PLANE('',#1182);
#1182 = AXIS2_PLACEMENT_3D('',#1183,#1184,#1185);
#1183 = CARTESIAN_POINT('',(-29.64535164916,23.736114374454,0.));
#1184 = DIRECTION('',(-0.763885625546,0.645351649168,0.));
#1185 = DIRECTION('',(0.645351649168,0.763885625546,0.));
#1186 = ADVANCED_FACE('',(#1187),#1193,.F.);
#1187 = FACE_BOUND('',#1188,.F.);
#1188 = EDGE_LOOP('',(#1189,#1190,#1191,#1192));
#1189 = ORIENTED_EDGE('',*,*,#823,.T.);
#1190 = ORIENTED_EDGE('',*,*,#892,.T.);
#1191 = ORIENTED_EDGE('',*,*,#860,.T.);
#1192 = ORIENTED_EDGE('',*,*,#1174,.T.);
#1193 = PLANE('',#1194);
#1194 = AXIS2_PLACEMENT_3D('',#1195,#1196,#1197);
#1195 = CARTESIAN_POINT('',(-23.75949383318,20.072675824584,1.5));
#1196 = DIRECTION('',(-0.,-0.,-1.));
#1197 = DIRECTION('',(-1.,0.,0.));
#1198 = ADVANCED_FACE('',(#1199),#1210,.T.);
#1199 = FACE_BOUND('',#1200,.T.);
#1200 = EDGE_LOOP('',(#1201,#1207,#1208,#1209));
#1201 = ORIENTED_EDGE('',*,*,#1202,.T.);
#1202 = EDGE_CURVE('',#984,#1031,#1203,.T.);
#1203 = LINE('',#1204,#1205);
#1204 = CARTESIAN_POINT('',(28.354648350832,25.263885625546,0.));
#1205 = VECTOR('',#1206,1.);
#1206 = DIRECTION('',(0.645351649168,-0.763885625546,0.));
#1207 = ORIENTED_EDGE('',*,*,#1048,.T.);
#1208 = ORIENTED_EDGE('',*,*,#949,.F.);
#1209 = ORIENTED_EDGE('',*,*,#991,.T.);
#1210 = PLANE('',#1211);
#1211 = AXIS2_PLACEMENT_3D('',#1212,#1213,#1214);
#1212 = CARTESIAN_POINT('',(23.759493833181,20.072675824584,0.));
#1213 = DIRECTION('',(-0.,-0.,-1.));
#1214 = DIRECTION('',(-1.,0.,0.));
#1215 = ADVANCED_FACE('',(#1216),#1227,.T.);
#1216 = FACE_BOUND('',#1217,.T.);
#1217 = EDGE_LOOP('',(#1218,#1219,#1225,#1226));
#1218 = ORIENTED_EDGE('',*,*,#983,.T.);
#1219 = ORIENTED_EDGE('',*,*,#1220,.T.);
#1220 = EDGE_CURVE('',#976,#1033,#1221,.T.);
#1221 = LINE('',#1222,#1223);
#1222 = CARTESIAN_POINT('',(28.354648350832,25.263885625546,1.5));
#1223 = VECTOR('',#1224,1.);
#1224 = DIRECTION('',(0.645351649168,-0.763885625546,0.));
#1225 = ORIENTED_EDGE('',*,*,#1030,.F.);
#1226 = ORIENTED_EDGE('',*,*,#1202,.F.);
#1227 = PLANE('',#1228);
#1228 = AXIS2_PLACEMENT_3D('',#1229,#1230,#1231);
#1229 = CARTESIAN_POINT('',(28.354648350832,25.263885625546,0.));
#1230 = DIRECTION('',(0.763885625546,0.645351649168,0.));
#1231 = DIRECTION('',(0.645351649168,-0.763885625546,0.));
#1232 = ADVANCED_FACE('',(#1233),#1239,.F.);
#1233 = FACE_BOUND('',#1234,.F.);
#1234 = EDGE_LOOP('',(#1235,#1236,#1237,#1238));
#1235 = ORIENTED_EDGE('',*,*,#1040,.T.);
#1236 = ORIENTED_EDGE('',*,*,#1014,.T.);
#1237 = ORIENTED_EDGE('',*,*,#975,.T.);
#1238 = ORIENTED_EDGE('',*,*,#1220,.T.);
#1239 = PLANE('',#1240);
#1240 = AXIS2_PLACEMENT_3D('',#1241,#1242,#1243);
#1241 = CARTESIAN_POINT('',(23.759493833181,20.072675824584,1.5));
#1242 = DIRECTION('',(-0.,-0.,-1.));
#1243 = DIRECTION('',(-1.,0.,0.));
#1244 = ( GEOMETRIC_REPRESENTATION_CONTEXT(3) 
GLOBAL_UNCERTAINTY_ASSIGNED_CONTEXT((#1248)) 
GLOBAL_UNIT_ASSIGNED_CONTEXT((#1245,#1246,#1247)) REPRESENTATION_CONTEXT
('Context #1','3D Context with UNIT and UNCERTAINTY') );
#1245 = ( LENGTH_UNIT() NAMED_UNIT(*) SI_UNIT(.MILLI.,.METRE.) );
#1246 = ( NAMED_UNIT(*) PLANE_ANGLE_UNIT() SI_UNIT($,.RADIAN.) );
#1247 = ( NAMED_UNIT(*) SI_UNIT($,.STERADIAN.) SOLID_ANGLE_UNIT() );
#1248 = UNCERTAINTY_MEASURE_WITH_UNIT(LENGTH_MEASURE(1.E-07),#1245,
  'distance_accuracy_value','confusion accuracy');
#1249 = PRODUCT_RELATED_PRODUCT_CATEGORY('part',$,(#7));
ENDSEC;
END-ISO-10303-21;
