ISO-10303-21;
HEADER;
FILE_DESCRIPTION(('FreeCAD Model'),'2;1');
FILE_NAME('Open CASCADE Shape Model','2026-06-29T07:08:42',('FreeCAD'),(
    'FreeCAD'),'Open CASCADE STEP processor 7.8','FreeCAD','Unknown');
FILE_SCHEMA(('AUTOMOTIVE_DESIGN { 1 0 10303 214 1 1 1 1 }'));
ENDSEC;
DATA;
#1 = APPLICATION_PROTOCOL_DEFINITION('international standard',
  'automotive_design',2000,#2);
#2 = APPLICATION_CONTEXT(
  'core data for automotive mechanical design processes');
#3 = SHAPE_DEFINITION_REPRESENTATION(#4,#10);
#4 = PRODUCT_DEFINITION_SHAPE('','',#5);
#5 = PRODUCT_DEFINITION('design','',#6,#9);
#6 = PRODUCT_DEFINITION_FORMATION('','',#7);
#7 = PRODUCT('Open CASCADE STEP translator 7.8 2',
  'Open CASCADE STEP translator 7.8 2','',(#8));
#8 = PRODUCT_CONTEXT('',#2,'mechanical');
#9 = PRODUCT_DEFINITION_CONTEXT('part definition',#2,'design');
#10 = ADVANCED_BREP_SHAPE_REPRESENTATION('',(#11,#15),#636);
#11 = AXIS2_PLACEMENT_3D('',#12,#13,#14);
#12 = CARTESIAN_POINT('',(0.,0.,0.));
#13 = DIRECTION('',(0.,0.,1.));
#14 = DIRECTION('',(1.,0.,-0.));
#15 = MANIFOLD_SOLID_BREP('',#16);
#16 = CLOSED_SHELL('',(#17,#57,#90,#123,#263,#403,#420,#437,#454,#471,
    #483,#500,#517,#534,#556,#573,#590,#602,#619));
#17 = ADVANCED_FACE('',(#18),#52,.T.);
#18 = FACE_BOUND('',#19,.T.);
#19 = EDGE_LOOP('',(#20,#30,#38,#46));
#20 = ORIENTED_EDGE('',*,*,#21,.T.);
#21 = EDGE_CURVE('',#22,#24,#26,.T.);
#22 = VERTEX_POINT('',#23);
#23 = CARTESIAN_POINT('',(-87.,-3.885780586188E-15,-35.));
#24 = VERTEX_POINT('',#25);
#25 = CARTESIAN_POINT('',(-87.,5.,-35.));
#26 = LINE('',#27,#28);
#27 = CARTESIAN_POINT('',(-87.,-3.885780586188E-15,-35.));
#28 = VECTOR('',#29,1.);
#29 = DIRECTION('',(0.,1.,0.));
#30 = ORIENTED_EDGE('',*,*,#31,.T.);
#31 = EDGE_CURVE('',#24,#32,#34,.T.);
#32 = VERTEX_POINT('',#33);
#33 = CARTESIAN_POINT('',(87.,5.,-35.));
#34 = LINE('',#35,#36);
#35 = CARTESIAN_POINT('',(-87.,5.,-35.));
#36 = VECTOR('',#37,1.);
#37 = DIRECTION('',(1.,0.,0.));
#38 = ORIENTED_EDGE('',*,*,#39,.F.);
#39 = EDGE_CURVE('',#40,#32,#42,.T.);
#40 = VERTEX_POINT('',#41);
#41 = CARTESIAN_POINT('',(87.,-3.885780586188E-15,-35.));
#42 = LINE('',#43,#44);
#43 = CARTESIAN_POINT('',(87.,-3.885780586188E-15,-35.));
#44 = VECTOR('',#45,1.);
#45 = DIRECTION('',(0.,1.,0.));
#46 = ORIENTED_EDGE('',*,*,#47,.F.);
#47 = EDGE_CURVE('',#22,#40,#48,.T.);
#48 = LINE('',#49,#50);
#49 = CARTESIAN_POINT('',(-87.,-3.885780586188E-15,-35.));
#50 = VECTOR('',#51,1.);
#51 = DIRECTION('',(1.,0.,0.));
#52 = PLANE('',#53);
#53 = AXIS2_PLACEMENT_3D('',#54,#55,#56);
#54 = CARTESIAN_POINT('',(-87.,-3.885780586188E-15,-35.));
#55 = DIRECTION('',(0.,0.,-1.));
#56 = DIRECTION('',(1.,0.,0.));
#57 = ADVANCED_FACE('',(#58),#85,.T.);
#58 = FACE_BOUND('',#59,.T.);
#59 = EDGE_LOOP('',(#60,#70,#77,#78));
#60 = ORIENTED_EDGE('',*,*,#61,.T.);
#61 = EDGE_CURVE('',#62,#64,#66,.T.);
#62 = VERTEX_POINT('',#63);
#63 = CARTESIAN_POINT('',(-90.,-3.552713678801E-15,-32.));
#64 = VERTEX_POINT('',#65);
#65 = CARTESIAN_POINT('',(-90.,5.,-32.));
#66 = LINE('',#67,#68);
#67 = CARTESIAN_POINT('',(-90.,-3.552713678801E-15,-32.));
#68 = VECTOR('',#69,1.);
#69 = DIRECTION('',(0.,1.,0.));
#70 = ORIENTED_EDGE('',*,*,#71,.T.);
#71 = EDGE_CURVE('',#64,#24,#72,.T.);
#72 = CIRCLE('',#73,3.);
#73 = AXIS2_PLACEMENT_3D('',#74,#75,#76);
#74 = CARTESIAN_POINT('',(-87.,5.,-32.));
#75 = DIRECTION('',(0.,-1.,1.110223024625E-16));
#76 = DIRECTION('',(-1.,5.259072701473E-31,4.736951571734E-15));
#77 = ORIENTED_EDGE('',*,*,#21,.F.);
#78 = ORIENTED_EDGE('',*,*,#79,.F.);
#79 = EDGE_CURVE('',#62,#22,#80,.T.);
#80 = CIRCLE('',#81,3.);
#81 = AXIS2_PLACEMENT_3D('',#82,#83,#84);
#82 = CARTESIAN_POINT('',(-87.,-3.552713678801E-15,-32.));
#83 = DIRECTION('',(0.,-1.,1.110223024625E-16));
#84 = DIRECTION('',(-1.,5.259072701473E-31,4.736951571734E-15));
#85 = CYLINDRICAL_SURFACE('',#86,3.);
#86 = AXIS2_PLACEMENT_3D('',#87,#88,#89);
#87 = CARTESIAN_POINT('',(-87.,-3.552713678801E-15,-32.));
#88 = DIRECTION('',(0.,-1.,1.110223024625E-16));
#89 = DIRECTION('',(-1.,5.259072701473E-31,4.736951571734E-15));
#90 = ADVANCED_FACE('',(#91),#118,.T.);
#91 = FACE_BOUND('',#92,.T.);
#92 = EDGE_LOOP('',(#93,#94,#103,#111));
#93 = ORIENTED_EDGE('',*,*,#39,.T.);
#94 = ORIENTED_EDGE('',*,*,#95,.T.);
#95 = EDGE_CURVE('',#32,#96,#98,.T.);
#96 = VERTEX_POINT('',#97);
#97 = CARTESIAN_POINT('',(90.,5.,-32.));
#98 = CIRCLE('',#99,3.);
#99 = AXIS2_PLACEMENT_3D('',#100,#101,#102);
#100 = CARTESIAN_POINT('',(87.,5.,-32.));
#101 = DIRECTION('',(0.,-1.,1.110223024625E-16));
#102 = DIRECTION('',(-4.736951571734E-15,-1.110223024625E-16,-1.));
#103 = ORIENTED_EDGE('',*,*,#104,.F.);
#104 = EDGE_CURVE('',#105,#96,#107,.T.);
#105 = VERTEX_POINT('',#106);
#106 = CARTESIAN_POINT('',(90.,-3.552713678801E-15,-32.));
#107 = LINE('',#108,#109);
#108 = CARTESIAN_POINT('',(90.,-3.552713678801E-15,-32.));
#109 = VECTOR('',#110,1.);
#110 = DIRECTION('',(0.,1.,0.));
#111 = ORIENTED_EDGE('',*,*,#112,.F.);
#112 = EDGE_CURVE('',#40,#105,#113,.T.);
#113 = CIRCLE('',#114,3.);
#114 = AXIS2_PLACEMENT_3D('',#115,#116,#117);
#115 = CARTESIAN_POINT('',(87.,-3.552713678801E-15,-32.));
#116 = DIRECTION('',(0.,-1.,1.110223024625E-16));
#117 = DIRECTION('',(-4.736951571734E-15,-1.110223024625E-16,-1.));
#118 = CYLINDRICAL_SURFACE('',#119,3.);
#119 = AXIS2_PLACEMENT_3D('',#120,#121,#122);
#120 = CARTESIAN_POINT('',(87.,-3.552713678801E-15,-32.));
#121 = DIRECTION('',(0.,-1.,1.110223024625E-16));
#122 = DIRECTION('',(-4.736951571734E-15,-1.110223024625E-16,-1.));
#123 = ADVANCED_FACE('',(#124,#169,#180,#191,#202,#236,#247),#258,.T.);
#124 = FACE_BOUND('',#125,.T.);
#125 = EDGE_LOOP('',(#126,#127,#128,#136,#145,#153,#162,#168));
#126 = ORIENTED_EDGE('',*,*,#47,.T.);
#127 = ORIENTED_EDGE('',*,*,#112,.T.);
#128 = ORIENTED_EDGE('',*,*,#129,.T.);
#129 = EDGE_CURVE('',#105,#130,#132,.T.);
#130 = VERTEX_POINT('',#131);
#131 = CARTESIAN_POINT('',(90.,3.552713678801E-15,32.));
#132 = LINE('',#133,#134);
#133 = CARTESIAN_POINT('',(90.,-3.552713678801E-15,-32.));
#134 = VECTOR('',#135,1.);
#135 = DIRECTION('',(0.,1.110223024625E-16,1.));
#136 = ORIENTED_EDGE('',*,*,#137,.T.);
#137 = EDGE_CURVE('',#130,#138,#140,.T.);
#138 = VERTEX_POINT('',#139);
#139 = CARTESIAN_POINT('',(87.,3.885780586188E-15,35.));
#140 = CIRCLE('',#141,3.);
#141 = AXIS2_PLACEMENT_3D('',#142,#143,#144);
#142 = CARTESIAN_POINT('',(87.,3.552713678801E-15,32.));
#143 = DIRECTION('',(0.,-1.,1.110223024625E-16));
#144 = DIRECTION('',(1.,-5.259072701473E-31,-4.736951571734E-15));
#145 = ORIENTED_EDGE('',*,*,#146,.T.);
#146 = EDGE_CURVE('',#138,#147,#149,.T.);
#147 = VERTEX_POINT('',#148);
#148 = CARTESIAN_POINT('',(-87.,3.885780586188E-15,35.));
#149 = LINE('',#150,#151);
#150 = CARTESIAN_POINT('',(87.,3.885780586188E-15,35.));
#151 = VECTOR('',#152,1.);
#152 = DIRECTION('',(-1.,0.,0.));
#153 = ORIENTED_EDGE('',*,*,#154,.T.);
#154 = EDGE_CURVE('',#147,#155,#157,.T.);
#155 = VERTEX_POINT('',#156);
#156 = CARTESIAN_POINT('',(-90.,3.552713678801E-15,32.));
#157 = CIRCLE('',#158,3.);
#158 = AXIS2_PLACEMENT_3D('',#159,#160,#161);
#159 = CARTESIAN_POINT('',(-87.,3.552713678801E-15,32.));
#160 = DIRECTION('',(0.,-1.,1.110223024625E-16));
#161 = DIRECTION('',(4.736951571734E-15,1.110223024625E-16,1.));
#162 = ORIENTED_EDGE('',*,*,#163,.T.);
#163 = EDGE_CURVE('',#155,#62,#164,.T.);
#164 = LINE('',#165,#166);
#165 = CARTESIAN_POINT('',(-90.,3.552713678801E-15,32.));
#166 = VECTOR('',#167,1.);
#167 = DIRECTION('',(0.,-1.110223024625E-16,-1.));
#168 = ORIENTED_EDGE('',*,*,#79,.T.);
#169 = FACE_BOUND('',#170,.T.);
#170 = EDGE_LOOP('',(#171));
#171 = ORIENTED_EDGE('',*,*,#172,.T.);
#172 = EDGE_CURVE('',#173,#173,#175,.T.);
#173 = VERTEX_POINT('',#174);
#174 = CARTESIAN_POINT('',(-6.73555739531E-16,-2.442490654175E-15,-22.25
    ));
#175 = CIRCLE('',#176,2.75);
#176 = AXIS2_PLACEMENT_3D('',#177,#178,#179);
#177 = CARTESIAN_POINT('',(0.,-2.6645352591E-15,-25.));
#178 = DIRECTION('',(0.,1.,0.));
#179 = DIRECTION('',(0.,0.,1.));
#180 = FACE_BOUND('',#181,.T.);
#181 = EDGE_LOOP('',(#182));
#182 = ORIENTED_EDGE('',*,*,#183,.T.);
#183 = EDGE_CURVE('',#184,#184,#186,.T.);
#184 = VERTEX_POINT('',#185);
#185 = CARTESIAN_POINT('',(-55.,2.789435349371E-15,25.1));
#186 = CIRCLE('',#187,3.1);
#187 = AXIS2_PLACEMENT_3D('',#188,#189,#190);
#188 = CARTESIAN_POINT('',(-55.,2.442490654175E-15,22.));
#189 = DIRECTION('',(0.,1.,0.));
#190 = DIRECTION('',(0.,0.,1.));
#191 = FACE_BOUND('',#192,.T.);
#192 = EDGE_LOOP('',(#193));
#193 = ORIENTED_EDGE('',*,*,#194,.T.);
#194 = EDGE_CURVE('',#195,#195,#197,.T.);
#195 = VERTEX_POINT('',#196);
#196 = CARTESIAN_POINT('',(-33.,2.789435349371E-15,25.1));
#197 = CIRCLE('',#198,3.1);
#198 = AXIS2_PLACEMENT_3D('',#199,#200,#201);
#199 = CARTESIAN_POINT('',(-33.,2.442490654175E-15,22.));
#200 = DIRECTION('',(0.,1.,0.));
#201 = DIRECTION('',(0.,0.,1.));
#202 = FACE_BOUND('',#203,.T.);
#203 = EDGE_LOOP('',(#204,#214,#222,#230));
#204 = ORIENTED_EDGE('',*,*,#205,.T.);
#205 = EDGE_CURVE('',#206,#208,#210,.T.);
#206 = VERTEX_POINT('',#207);
#207 = CARTESIAN_POINT('',(12.,-3.330669073875E-16,-3.));
#208 = VERTEX_POINT('',#209);
#209 = CARTESIAN_POINT('',(-3.,-3.330669073875E-16,-3.));
#210 = LINE('',#211,#212);
#211 = CARTESIAN_POINT('',(-1.5,-3.330669073875E-16,-3.));
#212 = VECTOR('',#213,1.);
#213 = DIRECTION('',(-1.,0.,0.));
#214 = ORIENTED_EDGE('',*,*,#215,.T.);
#215 = EDGE_CURVE('',#208,#216,#218,.T.);
#216 = VERTEX_POINT('',#217);
#217 = CARTESIAN_POINT('',(-3.,3.330669073875E-16,3.));
#218 = LINE('',#219,#220);
#219 = CARTESIAN_POINT('',(-3.,-1.665334536938E-16,-1.5));
#220 = VECTOR('',#221,1.);
#221 = DIRECTION('',(0.,1.110223024625E-16,1.));
#222 = ORIENTED_EDGE('',*,*,#223,.F.);
#223 = EDGE_CURVE('',#224,#216,#226,.T.);
#224 = VERTEX_POINT('',#225);
#225 = CARTESIAN_POINT('',(12.,3.330669073875E-16,3.));
#226 = LINE('',#227,#228);
#227 = CARTESIAN_POINT('',(-1.5,3.330669073875E-16,3.));
#228 = VECTOR('',#229,1.);
#229 = DIRECTION('',(-1.,0.,0.));
#230 = ORIENTED_EDGE('',*,*,#231,.F.);
#231 = EDGE_CURVE('',#206,#224,#232,.T.);
#232 = LINE('',#233,#234);
#233 = CARTESIAN_POINT('',(12.,-1.665334536938E-16,-1.5));
#234 = VECTOR('',#235,1.);
#235 = DIRECTION('',(0.,1.110223024625E-16,1.));
#236 = FACE_BOUND('',#237,.T.);
#237 = EDGE_LOOP('',(#238));
#238 = ORIENTED_EDGE('',*,*,#239,.T.);
#239 = EDGE_CURVE('',#240,#240,#242,.T.);
#240 = VERTEX_POINT('',#241);
#241 = CARTESIAN_POINT('',(33.,2.789435349371E-15,25.1));
#242 = CIRCLE('',#243,3.1);
#243 = AXIS2_PLACEMENT_3D('',#244,#245,#246);
#244 = CARTESIAN_POINT('',(33.,2.442490654175E-15,22.));
#245 = DIRECTION('',(0.,1.,0.));
#246 = DIRECTION('',(0.,0.,1.));
#247 = FACE_BOUND('',#248,.T.);
#248 = EDGE_LOOP('',(#249));
#249 = ORIENTED_EDGE('',*,*,#250,.T.);
#250 = EDGE_CURVE('',#251,#251,#253,.T.);
#251 = VERTEX_POINT('',#252);
#252 = CARTESIAN_POINT('',(55.,2.789435349371E-15,25.1));
#253 = CIRCLE('',#254,3.1);
#254 = AXIS2_PLACEMENT_3D('',#255,#256,#257);
#255 = CARTESIAN_POINT('',(55.,2.442490654175E-15,22.));
#256 = DIRECTION('',(0.,1.,0.));
#257 = DIRECTION('',(0.,0.,1.));
#258 = PLANE('',#259);
#259 = AXIS2_PLACEMENT_3D('',#260,#261,#262);
#260 = CARTESIAN_POINT('',(2.442048623748E-15,-4.306053085421E-32,
    -3.878547814188E-16));
#261 = DIRECTION('',(0.,-1.,1.110223024625E-16));
#262 = DIRECTION('',(1.,0.,0.));
#263 = ADVANCED_FACE('',(#264,#309,#320,#331,#342,#376,#387),#398,.F.);
#264 = FACE_BOUND('',#265,.F.);
#265 = EDGE_LOOP('',(#266,#267,#268,#276,#285,#293,#302,#308));
#266 = ORIENTED_EDGE('',*,*,#31,.T.);
#267 = ORIENTED_EDGE('',*,*,#95,.T.);
#268 = ORIENTED_EDGE('',*,*,#269,.T.);
#269 = EDGE_CURVE('',#96,#270,#272,.T.);
#270 = VERTEX_POINT('',#271);
#271 = CARTESIAN_POINT('',(90.,5.,32.));
#272 = LINE('',#273,#274);
#273 = CARTESIAN_POINT('',(90.,5.,-32.));
#274 = VECTOR('',#275,1.);
#275 = DIRECTION('',(0.,1.110223024625E-16,1.));
#276 = ORIENTED_EDGE('',*,*,#277,.T.);
#277 = EDGE_CURVE('',#270,#278,#280,.T.);
#278 = VERTEX_POINT('',#279);
#279 = CARTESIAN_POINT('',(87.,5.,35.));
#280 = CIRCLE('',#281,3.);
#281 = AXIS2_PLACEMENT_3D('',#282,#283,#284);
#282 = CARTESIAN_POINT('',(87.,5.,32.));
#283 = DIRECTION('',(0.,-1.,1.110223024625E-16));
#284 = DIRECTION('',(1.,-5.259072701473E-31,-4.736951571734E-15));
#285 = ORIENTED_EDGE('',*,*,#286,.T.);
#286 = EDGE_CURVE('',#278,#287,#289,.T.);
#287 = VERTEX_POINT('',#288);
#288 = CARTESIAN_POINT('',(-87.,5.,35.));
#289 = LINE('',#290,#291);
#290 = CARTESIAN_POINT('',(87.,5.,35.));
#291 = VECTOR('',#292,1.);
#292 = DIRECTION('',(-1.,0.,0.));
#293 = ORIENTED_EDGE('',*,*,#294,.T.);
#294 = EDGE_CURVE('',#287,#295,#297,.T.);
#295 = VERTEX_POINT('',#296);
#296 = CARTESIAN_POINT('',(-90.,5.,32.));
#297 = CIRCLE('',#298,3.);
#298 = AXIS2_PLACEMENT_3D('',#299,#300,#301);
#299 = CARTESIAN_POINT('',(-87.,5.,32.));
#300 = DIRECTION('',(0.,-1.,1.110223024625E-16));
#301 = DIRECTION('',(4.736951571734E-15,1.110223024625E-16,1.));
#302 = ORIENTED_EDGE('',*,*,#303,.T.);
#303 = EDGE_CURVE('',#295,#64,#304,.T.);
#304 = LINE('',#305,#306);
#305 = CARTESIAN_POINT('',(-90.,5.,32.));
#306 = VECTOR('',#307,1.);
#307 = DIRECTION('',(0.,-1.110223024625E-16,-1.));
#308 = ORIENTED_EDGE('',*,*,#71,.T.);
#309 = FACE_BOUND('',#310,.F.);
#310 = EDGE_LOOP('',(#311));
#311 = ORIENTED_EDGE('',*,*,#312,.T.);
#312 = EDGE_CURVE('',#313,#313,#315,.T.);
#313 = VERTEX_POINT('',#314);
#314 = CARTESIAN_POINT('',(-6.73555739531E-16,5.,-22.25));
#315 = CIRCLE('',#316,2.75);
#316 = AXIS2_PLACEMENT_3D('',#317,#318,#319);
#317 = CARTESIAN_POINT('',(0.,5.,-25.));
#318 = DIRECTION('',(0.,1.,0.));
#319 = DIRECTION('',(0.,0.,1.));
#320 = FACE_BOUND('',#321,.F.);
#321 = EDGE_LOOP('',(#322));
#322 = ORIENTED_EDGE('',*,*,#323,.T.);
#323 = EDGE_CURVE('',#324,#324,#326,.T.);
#324 = VERTEX_POINT('',#325);
#325 = CARTESIAN_POINT('',(-55.,5.,25.1));
#326 = CIRCLE('',#327,3.1);
#327 = AXIS2_PLACEMENT_3D('',#328,#329,#330);
#328 = CARTESIAN_POINT('',(-55.,5.,22.));
#329 = DIRECTION('',(0.,1.,0.));
#330 = DIRECTION('',(0.,0.,1.));
#331 = FACE_BOUND('',#332,.F.);
#332 = EDGE_LOOP('',(#333));
#333 = ORIENTED_EDGE('',*,*,#334,.T.);
#334 = EDGE_CURVE('',#335,#335,#337,.T.);
#335 = VERTEX_POINT('',#336);
#336 = CARTESIAN_POINT('',(-33.,5.,25.1));
#337 = CIRCLE('',#338,3.1);
#338 = AXIS2_PLACEMENT_3D('',#339,#340,#341);
#339 = CARTESIAN_POINT('',(-33.,5.,22.));
#340 = DIRECTION('',(0.,1.,0.));
#341 = DIRECTION('',(0.,0.,1.));
#342 = FACE_BOUND('',#343,.F.);
#343 = EDGE_LOOP('',(#344,#354,#362,#370));
#344 = ORIENTED_EDGE('',*,*,#345,.T.);
#345 = EDGE_CURVE('',#346,#348,#350,.T.);
#346 = VERTEX_POINT('',#347);
#347 = CARTESIAN_POINT('',(12.,5.,-3.));
#348 = VERTEX_POINT('',#349);
#349 = CARTESIAN_POINT('',(-3.,5.,-3.));
#350 = LINE('',#351,#352);
#351 = CARTESIAN_POINT('',(-1.5,5.,-3.));
#352 = VECTOR('',#353,1.);
#353 = DIRECTION('',(-1.,0.,0.));
#354 = ORIENTED_EDGE('',*,*,#355,.T.);
#355 = EDGE_CURVE('',#348,#356,#358,.T.);
#356 = VERTEX_POINT('',#357);
#357 = CARTESIAN_POINT('',(-3.,5.,3.));
#358 = LINE('',#359,#360);
#359 = CARTESIAN_POINT('',(-3.,5.,-1.5));
#360 = VECTOR('',#361,1.);
#361 = DIRECTION('',(0.,1.110223024625E-16,1.));
#362 = ORIENTED_EDGE('',*,*,#363,.F.);
#363 = EDGE_CURVE('',#364,#356,#366,.T.);
#364 = VERTEX_POINT('',#365);
#365 = CARTESIAN_POINT('',(12.,5.,3.));
#366 = LINE('',#367,#368);
#367 = CARTESIAN_POINT('',(-1.5,5.,3.));
#368 = VECTOR('',#369,1.);
#369 = DIRECTION('',(-1.,0.,0.));
#370 = ORIENTED_EDGE('',*,*,#371,.F.);
#371 = EDGE_CURVE('',#346,#364,#372,.T.);
#372 = LINE('',#373,#374);
#373 = CARTESIAN_POINT('',(12.,5.,-1.5));
#374 = VECTOR('',#375,1.);
#375 = DIRECTION('',(0.,1.110223024625E-16,1.));
#376 = FACE_BOUND('',#377,.F.);
#377 = EDGE_LOOP('',(#378));
#378 = ORIENTED_EDGE('',*,*,#379,.T.);
#379 = EDGE_CURVE('',#380,#380,#382,.T.);
#380 = VERTEX_POINT('',#381);
#381 = CARTESIAN_POINT('',(33.,5.,25.1));
#382 = CIRCLE('',#383,3.1);
#383 = AXIS2_PLACEMENT_3D('',#384,#385,#386);
#384 = CARTESIAN_POINT('',(33.,5.,22.));
#385 = DIRECTION('',(0.,1.,0.));
#386 = DIRECTION('',(0.,0.,1.));
#387 = FACE_BOUND('',#388,.F.);
#388 = EDGE_LOOP('',(#389));
#389 = ORIENTED_EDGE('',*,*,#390,.T.);
#390 = EDGE_CURVE('',#391,#391,#393,.T.);
#391 = VERTEX_POINT('',#392);
#392 = CARTESIAN_POINT('',(55.,5.,25.1));
#393 = CIRCLE('',#394,3.1);
#394 = AXIS2_PLACEMENT_3D('',#395,#396,#397);
#395 = CARTESIAN_POINT('',(55.,5.,22.));
#396 = DIRECTION('',(0.,1.,0.));
#397 = DIRECTION('',(0.,0.,1.));
#398 = PLANE('',#399);
#399 = AXIS2_PLACEMENT_3D('',#400,#401,#402);
#400 = CARTESIAN_POINT('',(2.442048623748E-15,5.,-3.878547814188E-16));
#401 = DIRECTION('',(0.,-1.,1.110223024625E-16));
#402 = DIRECTION('',(1.,0.,0.));
#403 = ADVANCED_FACE('',(#404),#415,.T.);
#404 = FACE_BOUND('',#405,.T.);
#405 = EDGE_LOOP('',(#406,#412,#413,#414));
#406 = ORIENTED_EDGE('',*,*,#407,.T.);
#407 = EDGE_CURVE('',#155,#295,#408,.T.);
#408 = LINE('',#409,#410);
#409 = CARTESIAN_POINT('',(-90.,3.552713678801E-15,32.));
#410 = VECTOR('',#411,1.);
#411 = DIRECTION('',(0.,1.,0.));
#412 = ORIENTED_EDGE('',*,*,#303,.T.);
#413 = ORIENTED_EDGE('',*,*,#61,.F.);
#414 = ORIENTED_EDGE('',*,*,#163,.F.);
#415 = PLANE('',#416);
#416 = AXIS2_PLACEMENT_3D('',#417,#418,#419);
#417 = CARTESIAN_POINT('',(-90.,3.552713678801E-15,32.));
#418 = DIRECTION('',(-1.,0.,0.));
#419 = DIRECTION('',(0.,-1.110223024625E-16,-1.));
#420 = ADVANCED_FACE('',(#421),#432,.T.);
#421 = FACE_BOUND('',#422,.T.);
#422 = EDGE_LOOP('',(#423,#424,#425,#431));
#423 = ORIENTED_EDGE('',*,*,#104,.T.);
#424 = ORIENTED_EDGE('',*,*,#269,.T.);
#425 = ORIENTED_EDGE('',*,*,#426,.F.);
#426 = EDGE_CURVE('',#130,#270,#427,.T.);
#427 = LINE('',#428,#429);
#428 = CARTESIAN_POINT('',(90.,3.552713678801E-15,32.));
#429 = VECTOR('',#430,1.);
#430 = DIRECTION('',(0.,1.,0.));
#431 = ORIENTED_EDGE('',*,*,#129,.F.);
#432 = PLANE('',#433);
#433 = AXIS2_PLACEMENT_3D('',#434,#435,#436);
#434 = CARTESIAN_POINT('',(90.,-3.552713678801E-15,-32.));
#435 = DIRECTION('',(1.,0.,0.));
#436 = DIRECTION('',(0.,1.110223024625E-16,1.));
#437 = ADVANCED_FACE('',(#438),#449,.T.);
#438 = FACE_BOUND('',#439,.T.);
#439 = EDGE_LOOP('',(#440,#446,#447,#448));
#440 = ORIENTED_EDGE('',*,*,#441,.T.);
#441 = EDGE_CURVE('',#147,#287,#442,.T.);
#442 = LINE('',#443,#444);
#443 = CARTESIAN_POINT('',(-87.,3.885780586188E-15,35.));
#444 = VECTOR('',#445,1.);
#445 = DIRECTION('',(0.,1.,0.));
#446 = ORIENTED_EDGE('',*,*,#294,.T.);
#447 = ORIENTED_EDGE('',*,*,#407,.F.);
#448 = ORIENTED_EDGE('',*,*,#154,.F.);
#449 = CYLINDRICAL_SURFACE('',#450,3.);
#450 = AXIS2_PLACEMENT_3D('',#451,#452,#453);
#451 = CARTESIAN_POINT('',(-87.,3.552713678801E-15,32.));
#452 = DIRECTION('',(0.,-1.,1.110223024625E-16));
#453 = DIRECTION('',(4.736951571734E-15,1.110223024625E-16,1.));
#454 = ADVANCED_FACE('',(#455),#466,.T.);
#455 = FACE_BOUND('',#456,.T.);
#456 = EDGE_LOOP('',(#457,#458,#459,#465));
#457 = ORIENTED_EDGE('',*,*,#426,.T.);
#458 = ORIENTED_EDGE('',*,*,#277,.T.);
#459 = ORIENTED_EDGE('',*,*,#460,.F.);
#460 = EDGE_CURVE('',#138,#278,#461,.T.);
#461 = LINE('',#462,#463);
#462 = CARTESIAN_POINT('',(87.,3.885780586188E-15,35.));
#463 = VECTOR('',#464,1.);
#464 = DIRECTION('',(0.,1.,0.));
#465 = ORIENTED_EDGE('',*,*,#137,.F.);
#466 = CYLINDRICAL_SURFACE('',#467,3.);
#467 = AXIS2_PLACEMENT_3D('',#468,#469,#470);
#468 = CARTESIAN_POINT('',(87.,3.552713678801E-15,32.));
#469 = DIRECTION('',(0.,-1.,1.110223024625E-16));
#470 = DIRECTION('',(1.,-5.259072701473E-31,-4.736951571734E-15));
#471 = ADVANCED_FACE('',(#472),#478,.T.);
#472 = FACE_BOUND('',#473,.T.);
#473 = EDGE_LOOP('',(#474,#475,#476,#477));
#474 = ORIENTED_EDGE('',*,*,#460,.T.);
#475 = ORIENTED_EDGE('',*,*,#286,.T.);
#476 = ORIENTED_EDGE('',*,*,#441,.F.);
#477 = ORIENTED_EDGE('',*,*,#146,.F.);
#478 = PLANE('',#479);
#479 = AXIS2_PLACEMENT_3D('',#480,#481,#482);
#480 = CARTESIAN_POINT('',(87.,3.885780586188E-15,35.));
#481 = DIRECTION('',(0.,0.,1.));
#482 = DIRECTION('',(-1.,0.,0.));
#483 = ADVANCED_FACE('',(#484),#495,.F.);
#484 = FACE_BOUND('',#485,.F.);
#485 = EDGE_LOOP('',(#486,#487,#493,#494));
#486 = ORIENTED_EDGE('',*,*,#312,.F.);
#487 = ORIENTED_EDGE('',*,*,#488,.F.);
#488 = EDGE_CURVE('',#173,#313,#489,.T.);
#489 = LINE('',#490,#491);
#490 = CARTESIAN_POINT('',(-6.73555739531E-16,-2.,-22.25));
#491 = VECTOR('',#492,1.);
#492 = DIRECTION('',(0.,1.,0.));
#493 = ORIENTED_EDGE('',*,*,#172,.T.);
#494 = ORIENTED_EDGE('',*,*,#488,.T.);
#495 = CYLINDRICAL_SURFACE('',#496,2.75);
#496 = AXIS2_PLACEMENT_3D('',#497,#498,#499);
#497 = CARTESIAN_POINT('',(0.,-2.,-25.));
#498 = DIRECTION('',(0.,1.,0.));
#499 = DIRECTION('',(0.,0.,1.));
#500 = ADVANCED_FACE('',(#501),#512,.F.);
#501 = FACE_BOUND('',#502,.F.);
#502 = EDGE_LOOP('',(#503,#504,#510,#511));
#503 = ORIENTED_EDGE('',*,*,#323,.F.);
#504 = ORIENTED_EDGE('',*,*,#505,.F.);
#505 = EDGE_CURVE('',#184,#324,#506,.T.);
#506 = LINE('',#507,#508);
#507 = CARTESIAN_POINT('',(-55.,-0.1,25.1));
#508 = VECTOR('',#509,1.);
#509 = DIRECTION('',(0.,1.,0.));
#510 = ORIENTED_EDGE('',*,*,#183,.T.);
#511 = ORIENTED_EDGE('',*,*,#505,.T.);
#512 = CYLINDRICAL_SURFACE('',#513,3.1);
#513 = AXIS2_PLACEMENT_3D('',#514,#515,#516);
#514 = CARTESIAN_POINT('',(-55.,-0.1,22.));
#515 = DIRECTION('',(0.,1.,0.));
#516 = DIRECTION('',(0.,0.,1.));
#517 = ADVANCED_FACE('',(#518),#529,.F.);
#518 = FACE_BOUND('',#519,.F.);
#519 = EDGE_LOOP('',(#520,#521,#527,#528));
#520 = ORIENTED_EDGE('',*,*,#334,.F.);
#521 = ORIENTED_EDGE('',*,*,#522,.F.);
#522 = EDGE_CURVE('',#195,#335,#523,.T.);
#523 = LINE('',#524,#525);
#524 = CARTESIAN_POINT('',(-33.,-0.1,25.1));
#525 = VECTOR('',#526,1.);
#526 = DIRECTION('',(0.,1.,0.));
#527 = ORIENTED_EDGE('',*,*,#194,.T.);
#528 = ORIENTED_EDGE('',*,*,#522,.T.);
#529 = CYLINDRICAL_SURFACE('',#530,3.1);
#530 = AXIS2_PLACEMENT_3D('',#531,#532,#533);
#531 = CARTESIAN_POINT('',(-33.,-0.1,22.));
#532 = DIRECTION('',(0.,1.,0.));
#533 = DIRECTION('',(0.,0.,1.));
#534 = ADVANCED_FACE('',(#535),#551,.T.);
#535 = FACE_BOUND('',#536,.T.);
#536 = EDGE_LOOP('',(#537,#543,#544,#550));
#537 = ORIENTED_EDGE('',*,*,#538,.F.);
#538 = EDGE_CURVE('',#208,#348,#539,.T.);
#539 = LINE('',#540,#541);
#540 = CARTESIAN_POINT('',(-3.,-0.1,-3.));
#541 = VECTOR('',#542,1.);
#542 = DIRECTION('',(0.,1.,0.));
#543 = ORIENTED_EDGE('',*,*,#205,.F.);
#544 = ORIENTED_EDGE('',*,*,#545,.T.);
#545 = EDGE_CURVE('',#206,#346,#546,.T.);
#546 = LINE('',#547,#548);
#547 = CARTESIAN_POINT('',(12.,-0.1,-3.));
#548 = VECTOR('',#549,1.);
#549 = DIRECTION('',(0.,1.,0.));
#550 = ORIENTED_EDGE('',*,*,#345,.T.);
#551 = PLANE('',#552);
#552 = AXIS2_PLACEMENT_3D('',#553,#554,#555);
#553 = CARTESIAN_POINT('',(-3.,-0.1,-3.));
#554 = DIRECTION('',(0.,0.,1.));
#555 = DIRECTION('',(1.,0.,0.));
#556 = ADVANCED_FACE('',(#557),#568,.F.);
#557 = FACE_BOUND('',#558,.F.);
#558 = EDGE_LOOP('',(#559,#565,#566,#567));
#559 = ORIENTED_EDGE('',*,*,#560,.F.);
#560 = EDGE_CURVE('',#224,#364,#561,.T.);
#561 = LINE('',#562,#563);
#562 = CARTESIAN_POINT('',(12.,-0.1,3.));
#563 = VECTOR('',#564,1.);
#564 = DIRECTION('',(0.,1.,0.));
#565 = ORIENTED_EDGE('',*,*,#231,.F.);
#566 = ORIENTED_EDGE('',*,*,#545,.T.);
#567 = ORIENTED_EDGE('',*,*,#371,.T.);
#568 = PLANE('',#569);
#569 = AXIS2_PLACEMENT_3D('',#570,#571,#572);
#570 = CARTESIAN_POINT('',(12.,-0.1,-3.));
#571 = DIRECTION('',(1.,0.,0.));
#572 = DIRECTION('',(0.,0.,1.));
#573 = ADVANCED_FACE('',(#574),#585,.F.);
#574 = FACE_BOUND('',#575,.F.);
#575 = EDGE_LOOP('',(#576,#582,#583,#584));
#576 = ORIENTED_EDGE('',*,*,#577,.F.);
#577 = EDGE_CURVE('',#216,#356,#578,.T.);
#578 = LINE('',#579,#580);
#579 = CARTESIAN_POINT('',(-3.,-0.1,3.));
#580 = VECTOR('',#581,1.);
#581 = DIRECTION('',(0.,1.,0.));
#582 = ORIENTED_EDGE('',*,*,#223,.F.);
#583 = ORIENTED_EDGE('',*,*,#560,.T.);
#584 = ORIENTED_EDGE('',*,*,#363,.T.);
#585 = PLANE('',#586);
#586 = AXIS2_PLACEMENT_3D('',#587,#588,#589);
#587 = CARTESIAN_POINT('',(-3.,-0.1,3.));
#588 = DIRECTION('',(0.,0.,1.));
#589 = DIRECTION('',(1.,0.,0.));
#590 = ADVANCED_FACE('',(#591),#597,.T.);
#591 = FACE_BOUND('',#592,.T.);
#592 = EDGE_LOOP('',(#593,#594,#595,#596));
#593 = ORIENTED_EDGE('',*,*,#577,.F.);
#594 = ORIENTED_EDGE('',*,*,#215,.F.);
#595 = ORIENTED_EDGE('',*,*,#538,.T.);
#596 = ORIENTED_EDGE('',*,*,#355,.T.);
#597 = PLANE('',#598);
#598 = AXIS2_PLACEMENT_3D('',#599,#600,#601);
#599 = CARTESIAN_POINT('',(-3.,-0.1,-3.));
#600 = DIRECTION('',(1.,0.,0.));
#601 = DIRECTION('',(0.,0.,1.));
#602 = ADVANCED_FACE('',(#603),#614,.F.);
#603 = FACE_BOUND('',#604,.F.);
#604 = EDGE_LOOP('',(#605,#606,#612,#613));
#605 = ORIENTED_EDGE('',*,*,#379,.F.);
#606 = ORIENTED_EDGE('',*,*,#607,.F.);
#607 = EDGE_CURVE('',#240,#380,#608,.T.);
#608 = LINE('',#609,#610);
#609 = CARTESIAN_POINT('',(33.,-0.1,25.1));
#610 = VECTOR('',#611,1.);
#611 = DIRECTION('',(0.,1.,0.));
#612 = ORIENTED_EDGE('',*,*,#239,.T.);
#613 = ORIENTED_EDGE('',*,*,#607,.T.);
#614 = CYLINDRICAL_SURFACE('',#615,3.1);
#615 = AXIS2_PLACEMENT_3D('',#616,#617,#618);
#616 = CARTESIAN_POINT('',(33.,-0.1,22.));
#617 = DIRECTION('',(0.,1.,0.));
#618 = DIRECTION('',(0.,0.,1.));
#619 = ADVANCED_FACE('',(#620),#631,.F.);
#620 = FACE_BOUND('',#621,.F.);
#621 = EDGE_LOOP('',(#622,#623,#629,#630));
#622 = ORIENTED_EDGE('',*,*,#390,.F.);
#623 = ORIENTED_EDGE('',*,*,#624,.F.);
#624 = EDGE_CURVE('',#251,#391,#625,.T.);
#625 = LINE('',#626,#627);
#626 = CARTESIAN_POINT('',(55.,-0.1,25.1));
#627 = VECTOR('',#628,1.);
#628 = DIRECTION('',(0.,1.,0.));
#629 = ORIENTED_EDGE('',*,*,#250,.T.);
#630 = ORIENTED_EDGE('',*,*,#624,.T.);
#631 = CYLINDRICAL_SURFACE('',#632,3.1);
#632 = AXIS2_PLACEMENT_3D('',#633,#634,#635);
#633 = CARTESIAN_POINT('',(55.,-0.1,22.));
#634 = DIRECTION('',(0.,1.,0.));
#635 = DIRECTION('',(0.,0.,1.));
#636 = ( GEOMETRIC_REPRESENTATION_CONTEXT(3) 
GLOBAL_UNCERTAINTY_ASSIGNED_CONTEXT((#640)) GLOBAL_UNIT_ASSIGNED_CONTEXT
((#637,#638,#639)) REPRESENTATION_CONTEXT('Context #1',
  '3D Context with UNIT and UNCERTAINTY') );
#637 = ( LENGTH_UNIT() NAMED_UNIT(*) SI_UNIT(.MILLI.,.METRE.) );
#638 = ( NAMED_UNIT(*) PLANE_ANGLE_UNIT() SI_UNIT($,.RADIAN.) );
#639 = ( NAMED_UNIT(*) SI_UNIT($,.STERADIAN.) SOLID_ANGLE_UNIT() );
#640 = UNCERTAINTY_MEASURE_WITH_UNIT(LENGTH_MEASURE(1.E-07),#637,
  'distance_accuracy_value','confusion accuracy');
#641 = PRODUCT_RELATED_PRODUCT_CATEGORY('part',$,(#7));
ENDSEC;
END-ISO-10303-21;
