ISO-10303-21;
HEADER;
FILE_DESCRIPTION(('FreeCAD Model'),'2;1');
FILE_NAME('Open CASCADE Shape Model','2026-06-29T07:23:30',('FreeCAD'),(
    'FreeCAD'),'Open CASCADE STEP processor 7.8','FreeCAD','Unknown');
FILE_SCHEMA(('AUTOMOTIVE_DESIGN { 1 0 10303 214 1 1 1 1 }'));
ENDSEC;
DATA;
#1 = APPLICATION_PROTOCOL_DEFINITION('international standard',
  'automotive_design',2000,#2);
#2 = APPLICATION_CONTEXT(
  'core data for automotive mechanical design processes');
#3 = SHAPE_DEFINITION_REPRESENTATION(#4,#10);
#4 = PRODUCT_DEFINITION_SHAPE('','',#5);
#5 = PRODUCT_DEFINITION('design','',#6,#9);
#6 = PRODUCT_DEFINITION_FORMATION('','',#7);
#7 = PRODUCT('Open CASCADE STEP translator 7.8 2',
  'Open CASCADE STEP translator 7.8 2','',(#8));
#8 = PRODUCT_CONTEXT('',#2,'mechanical');
#9 = PRODUCT_DEFINITION_CONTEXT('part definition',#2,'design');
#10 = ADVANCED_BREP_SHAPE_REPRESENTATION('',(#11,#15),#640);
#11 = AXIS2_PLACEMENT_3D('',#12,#13,#14);
#12 = CARTESIAN_POINT('',(0.,0.,0.));
#13 = DIRECTION('',(0.,0.,1.));
#14 = DIRECTION('',(1.,0.,-0.));
#15 = MANIFOLD_SOLID_BREP('',#16);
#16 = CLOSED_SHELL('',(#17,#57,#90,#123,#265,#407,#424,#441,#458,#475,
    #487,#504,#526,#543,#560,#572,#589,#606,#623));
#17 = ADVANCED_FACE('',(#18),#52,.T.);
#18 = FACE_BOUND('',#19,.T.);
#19 = EDGE_LOOP('',(#20,#30,#38,#46));
#20 = ORIENTED_EDGE('',*,*,#21,.T.);
#21 = EDGE_CURVE('',#22,#24,#26,.T.);
#22 = VERTEX_POINT('',#23);
#23 = CARTESIAN_POINT('',(-87.,-3.885780586188E-15,-35.));
#24 = VERTEX_POINT('',#25);
#25 = CARTESIAN_POINT('',(-87.,5.,-35.));
#26 = LINE('',#27,#28);
#27 = CARTESIAN_POINT('',(-87.,-3.885780586188E-15,-35.));
#28 = VECTOR('',#29,1.);
#29 = DIRECTION('',(0.,1.,0.));
#30 = ORIENTED_EDGE('',*,*,#31,.T.);
#31 = EDGE_CURVE('',#24,#32,#34,.T.);
#32 = VERTEX_POINT('',#33);
#33 = CARTESIAN_POINT('',(87.,5.,-35.));
#34 = LINE('',#35,#36);
#35 = CARTESIAN_POINT('',(-87.,5.,-35.));
#36 = VECTOR('',#37,1.);
#37 = DIRECTION('',(1.,0.,0.));
#38 = ORIENTED_EDGE('',*,*,#39,.F.);
#39 = EDGE_CURVE('',#40,#32,#42,.T.);
#40 = VERTEX_POINT('',#41);
#41 = CARTESIAN_POINT('',(87.,-3.885780586188E-15,-35.));
#42 = LINE('',#43,#44);
#43 = CARTESIAN_POINT('',(87.,-3.885780586188E-15,-35.));
#44 = VECTOR('',#45,1.);
#45 = DIRECTION('',(0.,1.,0.));
#46 = ORIENTED_EDGE('',*,*,#47,.F.);
#47 = EDGE_CURVE('',#22,#40,#48,.T.);
#48 = LINE('',#49,#50);
#49 = CARTESIAN_POINT('',(-87.,-3.885780586188E-15,-35.));
#50 = VECTOR('',#51,1.);
#51 = DIRECTION('',(1.,0.,0.));
#52 = PLANE('',#53);
#53 = AXIS2_PLACEMENT_3D('',#54,#55,#56);
#54 = CARTESIAN_POINT('',(-87.,-3.885780586188E-15,-35.));
#55 = DIRECTION('',(0.,0.,-1.));
#56 = DIRECTION('',(1.,0.,0.));
#57 = ADVANCED_FACE('',(#58),#85,.T.);
#58 = FACE_BOUND('',#59,.T.);
#59 = EDGE_LOOP('',(#60,#70,#77,#78));
#60 = ORIENTED_EDGE('',*,*,#61,.T.);
#61 = EDGE_CURVE('',#62,#64,#66,.T.);
#62 = VERTEX_POINT('',#63);
#63 = CARTESIAN_POINT('',(-90.,-3.552713678801E-15,-32.));
#64 = VERTEX_POINT('',#65);
#65 = CARTESIAN_POINT('',(-90.,5.,-32.));
#66 = LINE('',#67,#68);
#67 = CARTESIAN_POINT('',(-90.,-3.552713678801E-15,-32.));
#68 = VECTOR('',#69,1.);
#69 = DIRECTION('',(0.,1.,0.));
#70 = ORIENTED_EDGE('',*,*,#71,.T.);
#71 = EDGE_CURVE('',#64,#24,#72,.T.);
#72 = CIRCLE('',#73,3.);
#73 = AXIS2_PLACEMENT_3D('',#74,#75,#76);
#74 = CARTESIAN_POINT('',(-87.,5.,-32.));
#75 = DIRECTION('',(0.,-1.,1.110223024625E-16));
#76 = DIRECTION('',(-1.,5.259072701473E-31,4.736951571734E-15));
#77 = ORIENTED_EDGE('',*,*,#21,.F.);
#78 = ORIENTED_EDGE('',*,*,#79,.F.);
#79 = EDGE_CURVE('',#62,#22,#80,.T.);
#80 = CIRCLE('',#81,3.);
#81 = AXIS2_PLACEMENT_3D('',#82,#83,#84);
#82 = CARTESIAN_POINT('',(-87.,-3.552713678801E-15,-32.));
#83 = DIRECTION('',(0.,-1.,1.110223024625E-16));
#84 = DIRECTION('',(-1.,5.259072701473E-31,4.736951571734E-15));
#85 = CYLINDRICAL_SURFACE('',#86,3.);
#86 = AXIS2_PLACEMENT_3D('',#87,#88,#89);
#87 = CARTESIAN_POINT('',(-87.,-3.552713678801E-15,-32.));
#88 = DIRECTION('',(0.,-1.,1.110223024625E-16));
#89 = DIRECTION('',(-1.,5.259072701473E-31,4.736951571734E-15));
#90 = ADVANCED_FACE('',(#91),#118,.T.);
#91 = FACE_BOUND('',#92,.T.);
#92 = EDGE_LOOP('',(#93,#94,#103,#111));
#93 = ORIENTED_EDGE('',*,*,#39,.T.);
#94 = ORIENTED_EDGE('',*,*,#95,.T.);
#95 = EDGE_CURVE('',#32,#96,#98,.T.);
#96 = VERTEX_POINT('',#97);
#97 = CARTESIAN_POINT('',(90.,5.,-32.));
#98 = CIRCLE('',#99,3.);
#99 = AXIS2_PLACEMENT_3D('',#100,#101,#102);
#100 = CARTESIAN_POINT('',(87.,5.,-32.));
#101 = DIRECTION('',(0.,-1.,1.110223024625E-16));
#102 = DIRECTION('',(-4.736951571734E-15,-1.110223024625E-16,-1.));
#103 = ORIENTED_EDGE('',*,*,#104,.F.);
#104 = EDGE_CURVE('',#105,#96,#107,.T.);
#105 = VERTEX_POINT('',#106);
#106 = CARTESIAN_POINT('',(90.,-3.552713678801E-15,-32.));
#107 = LINE('',#108,#109);
#108 = CARTESIAN_POINT('',(90.,-3.552713678801E-15,-32.));
#109 = VECTOR('',#110,1.);
#110 = DIRECTION('',(0.,1.,0.));
#111 = ORIENTED_EDGE('',*,*,#112,.F.);
#112 = EDGE_CURVE('',#40,#105,#113,.T.);
#113 = CIRCLE('',#114,3.);
#114 = AXIS2_PLACEMENT_3D('',#115,#116,#117);
#115 = CARTESIAN_POINT('',(87.,-3.552713678801E-15,-32.));
#116 = DIRECTION('',(0.,-1.,1.110223024625E-16));
#117 = DIRECTION('',(-4.736951571734E-15,-1.110223024625E-16,-1.));
#118 = CYLINDRICAL_SURFACE('',#119,3.);
#119 = AXIS2_PLACEMENT_3D('',#120,#121,#122);
#120 = CARTESIAN_POINT('',(87.,-3.552713678801E-15,-32.));
#121 = DIRECTION('',(0.,-1.,1.110223024625E-16));
#122 = DIRECTION('',(-4.736951571734E-15,-1.110223024625E-16,-1.));
#123 = ADVANCED_FACE('',(#124,#169,#180,#216,#227,#238,#249),#260,.T.);
#124 = FACE_BOUND('',#125,.T.);
#125 = EDGE_LOOP('',(#126,#127,#128,#136,#145,#153,#162,#168));
#126 = ORIENTED_EDGE('',*,*,#47,.T.);
#127 = ORIENTED_EDGE('',*,*,#112,.T.);
#128 = ORIENTED_EDGE('',*,*,#129,.T.);
#129 = EDGE_CURVE('',#105,#130,#132,.T.);
#130 = VERTEX_POINT('',#131);
#131 = CARTESIAN_POINT('',(90.,3.552713678801E-15,32.));
#132 = LINE('',#133,#134);
#133 = CARTESIAN_POINT('',(90.,-3.552713678801E-15,-32.));
#134 = VECTOR('',#135,1.);
#135 = DIRECTION('',(0.,1.110223024625E-16,1.));
#136 = ORIENTED_EDGE('',*,*,#137,.T.);
#137 = EDGE_CURVE('',#130,#138,#140,.T.);
#138 = VERTEX_POINT('',#139);
#139 = CARTESIAN_POINT('',(87.,3.885780586188E-15,35.));
#140 = CIRCLE('',#141,3.);
#141 = AXIS2_PLACEMENT_3D('',#142,#143,#144);
#142 = CARTESIAN_POINT('',(87.,3.552713678801E-15,32.));
#143 = DIRECTION('',(0.,-1.,1.110223024625E-16));
#144 = DIRECTION('',(1.,-5.259072701473E-31,-4.736951571734E-15));
#145 = ORIENTED_EDGE('',*,*,#146,.T.);
#146 = EDGE_CURVE('',#138,#147,#149,.T.);
#147 = VERTEX_POINT('',#148);
#148 = CARTESIAN_POINT('',(-87.,3.885780586188E-15,35.));
#149 = LINE('',#150,#151);
#150 = CARTESIAN_POINT('',(87.,3.885780586188E-15,35.));
#151 = VECTOR('',#152,1.);
#152 = DIRECTION('',(-1.,0.,0.));
#153 = ORIENTED_EDGE('',*,*,#154,.T.);
#154 = EDGE_CURVE('',#147,#155,#157,.T.);
#155 = VERTEX_POINT('',#156);
#156 = CARTESIAN_POINT('',(-90.,3.552713678801E-15,32.));
#157 = CIRCLE('',#158,3.);
#158 = AXIS2_PLACEMENT_3D('',#159,#160,#161);
#159 = CARTESIAN_POINT('',(-87.,3.552713678801E-15,32.));
#160 = DIRECTION('',(0.,-1.,1.110223024625E-16));
#161 = DIRECTION('',(4.736951571734E-15,1.110223024625E-16,1.));
#162 = ORIENTED_EDGE('',*,*,#163,.T.);
#163 = EDGE_CURVE('',#155,#62,#164,.T.);
#164 = LINE('',#165,#166);
#165 = CARTESIAN_POINT('',(-90.,3.552713678801E-15,32.));
#166 = VECTOR('',#167,1.);
#167 = DIRECTION('',(0.,-1.110223024625E-16,-1.));
#168 = ORIENTED_EDGE('',*,*,#79,.T.);
#169 = FACE_BOUND('',#170,.T.);
#170 = EDGE_LOOP('',(#171));
#171 = ORIENTED_EDGE('',*,*,#172,.T.);
#172 = EDGE_CURVE('',#173,#173,#175,.T.);
#173 = VERTEX_POINT('',#174);
#174 = CARTESIAN_POINT('',(-6.73555739531E-16,-2.442490654175E-15,-22.25
    ));
#175 = CIRCLE('',#176,2.75);
#176 = AXIS2_PLACEMENT_3D('',#177,#178,#179);
#177 = CARTESIAN_POINT('',(0.,-2.6645352591E-15,-25.));
#178 = DIRECTION('',(0.,1.,0.));
#179 = DIRECTION('',(0.,0.,1.));
#180 = FACE_BOUND('',#181,.T.);
#181 = EDGE_LOOP('',(#182,#192,#201,#209));
#182 = ORIENTED_EDGE('',*,*,#183,.T.);
#183 = EDGE_CURVE('',#184,#186,#188,.T.);
#184 = VERTEX_POINT('',#185);
#185 = CARTESIAN_POINT('',(9.576564013119,1.387778780781E-16,
    1.311393382005));
#186 = VERTEX_POINT('',#187);
#187 = CARTESIAN_POINT('',(7.524443153165,-4.857225732735E-16,
    -4.32676234271));
#188 = LINE('',#189,#190);
#189 = CARTESIAN_POINT('',(8.8057045671,-9.295033970362E-17,
    -0.806525539504));
#190 = VECTOR('',#191,1.);
#191 = DIRECTION('',(-0.342020143326,-1.043268383667E-16,-0.939692620786
    ));
#192 = ORIENTED_EDGE('',*,*,#193,.T.);
#193 = EDGE_CURVE('',#186,#194,#196,.T.);
#194 = VERTEX_POINT('',#195);
#195 = CARTESIAN_POINT('',(-7.524443153165,-4.857225732735E-16,
    -4.32676234271));
#196 = CIRCLE('',#197,22.);
#197 = AXIS2_PLACEMENT_3D('',#198,#199,#200);
#198 = CARTESIAN_POINT('',(8.881784197001E-16,-2.775557561563E-15,-25.)
  );
#199 = DIRECTION('',(0.,-1.,0.));
#200 = DIRECTION('',(0.342020143326,0.,0.939692620786));
#201 = ORIENTED_EDGE('',*,*,#202,.T.);
#202 = EDGE_CURVE('',#194,#203,#205,.T.);
#203 = VERTEX_POINT('',#204);
#204 = CARTESIAN_POINT('',(-9.576564013119,1.387778780781E-16,
    1.311393382005));
#205 = LINE('',#206,#207);
#206 = CARTESIAN_POINT('',(-7.779644137123,-4.052005653794E-16,
    -3.625603401861));
#207 = VECTOR('',#208,1.);
#208 = DIRECTION('',(-0.342020143326,1.043268383667E-16,0.939692620786)
  );
#209 = ORIENTED_EDGE('',*,*,#210,.F.);
#210 = EDGE_CURVE('',#184,#203,#211,.T.);
#211 = CIRCLE('',#212,28.);
#212 = AXIS2_PLACEMENT_3D('',#213,#214,#215);
#213 = CARTESIAN_POINT('',(2.22044604925E-15,-2.775557561563E-15,-25.));
#214 = DIRECTION('',(-0.,-1.,0.));
#215 = DIRECTION('',(-0.342020143326,0.,0.939692620786));
#216 = FACE_BOUND('',#217,.T.);
#217 = EDGE_LOOP('',(#218));
#218 = ORIENTED_EDGE('',*,*,#219,.T.);
#219 = EDGE_CURVE('',#220,#220,#222,.T.);
#220 = VERTEX_POINT('',#221);
#221 = CARTESIAN_POINT('',(-55.,2.789435349371E-15,25.1));
#222 = CIRCLE('',#223,3.1);
#223 = AXIS2_PLACEMENT_3D('',#224,#225,#226);
#224 = CARTESIAN_POINT('',(-55.,2.442490654175E-15,22.));
#225 = DIRECTION('',(0.,1.,0.));
#226 = DIRECTION('',(0.,0.,1.));
#227 = FACE_BOUND('',#228,.T.);
#228 = EDGE_LOOP('',(#229));
#229 = ORIENTED_EDGE('',*,*,#230,.T.);
#230 = EDGE_CURVE('',#231,#231,#233,.T.);
#231 = VERTEX_POINT('',#232);
#232 = CARTESIAN_POINT('',(-33.,2.789435349371E-15,25.1));
#233 = CIRCLE('',#234,3.1);
#234 = AXIS2_PLACEMENT_3D('',#235,#236,#237);
#235 = CARTESIAN_POINT('',(-33.,2.442490654175E-15,22.));
#236 = DIRECTION('',(0.,1.,0.));
#237 = DIRECTION('',(0.,0.,1.));
#238 = FACE_BOUND('',#239,.T.);
#239 = EDGE_LOOP('',(#240));
#240 = ORIENTED_EDGE('',*,*,#241,.T.);
#241 = EDGE_CURVE('',#242,#242,#244,.T.);
#242 = VERTEX_POINT('',#243);
#243 = CARTESIAN_POINT('',(33.,2.789435349371E-15,25.1));
#244 = CIRCLE('',#245,3.1);
#245 = AXIS2_PLACEMENT_3D('',#246,#247,#248);
#246 = CARTESIAN_POINT('',(33.,2.442490654175E-15,22.));
#247 = DIRECTION('',(0.,1.,0.));
#248 = DIRECTION('',(0.,0.,1.));
#249 = FACE_BOUND('',#250,.T.);
#250 = EDGE_LOOP('',(#251));
#251 = ORIENTED_EDGE('',*,*,#252,.T.);
#252 = EDGE_CURVE('',#253,#253,#255,.T.);
#253 = VERTEX_POINT('',#254);
#254 = CARTESIAN_POINT('',(55.,2.789435349371E-15,25.1));
#255 = CIRCLE('',#256,3.1);
#256 = AXIS2_PLACEMENT_3D('',#257,#258,#259);
#257 = CARTESIAN_POINT('',(55.,2.442490654175E-15,22.));
#258 = DIRECTION('',(0.,1.,0.));
#259 = DIRECTION('',(0.,0.,1.));
#260 = PLANE('',#261);
#261 = AXIS2_PLACEMENT_3D('',#262,#263,#264);
#262 = CARTESIAN_POINT('',(2.442048623748E-15,-4.306053085421E-32,
    -3.878547814188E-16));
#263 = DIRECTION('',(0.,-1.,1.110223024625E-16));
#264 = DIRECTION('',(1.,0.,0.));
#265 = ADVANCED_FACE('',(#266,#311,#322,#358,#369,#380,#391),#402,.F.);
#266 = FACE_BOUND('',#267,.F.);
#267 = EDGE_LOOP('',(#268,#269,#270,#278,#287,#295,#304,#310));
#268 = ORIENTED_EDGE('',*,*,#31,.T.);
#269 = ORIENTED_EDGE('',*,*,#95,.T.);
#270 = ORIENTED_EDGE('',*,*,#271,.T.);
#271 = EDGE_CURVE('',#96,#272,#274,.T.);
#272 = VERTEX_POINT('',#273);
#273 = CARTESIAN_POINT('',(90.,5.,32.));
#274 = LINE('',#275,#276);
#275 = CARTESIAN_POINT('',(90.,5.,-32.));
#276 = VECTOR('',#277,1.);
#277 = DIRECTION('',(0.,1.110223024625E-16,1.));
#278 = ORIENTED_EDGE('',*,*,#279,.T.);
#279 = EDGE_CURVE('',#272,#280,#282,.T.);
#280 = VERTEX_POINT('',#281);
#281 = CARTESIAN_POINT('',(87.,5.,35.));
#282 = CIRCLE('',#283,3.);
#283 = AXIS2_PLACEMENT_3D('',#284,#285,#286);
#284 = CARTESIAN_POINT('',(87.,5.,32.));
#285 = DIRECTION('',(0.,-1.,1.110223024625E-16));
#286 = DIRECTION('',(1.,-5.259072701473E-31,-4.736951571734E-15));
#287 = ORIENTED_EDGE('',*,*,#288,.T.);
#288 = EDGE_CURVE('',#280,#289,#291,.T.);
#289 = VERTEX_POINT('',#290);
#290 = CARTESIAN_POINT('',(-87.,5.,35.));
#291 = LINE('',#292,#293);
#292 = CARTESIAN_POINT('',(87.,5.,35.));
#293 = VECTOR('',#294,1.);
#294 = DIRECTION('',(-1.,0.,0.));
#295 = ORIENTED_EDGE('',*,*,#296,.T.);
#296 = EDGE_CURVE('',#289,#297,#299,.T.);
#297 = VERTEX_POINT('',#298);
#298 = CARTESIAN_POINT('',(-90.,5.,32.));
#299 = CIRCLE('',#300,3.);
#300 = AXIS2_PLACEMENT_3D('',#301,#302,#303);
#301 = CARTESIAN_POINT('',(-87.,5.,32.));
#302 = DIRECTION('',(0.,-1.,1.110223024625E-16));
#303 = DIRECTION('',(4.736951571734E-15,1.110223024625E-16,1.));
#304 = ORIENTED_EDGE('',*,*,#305,.T.);
#305 = EDGE_CURVE('',#297,#64,#306,.T.);
#306 = LINE('',#307,#308);
#307 = CARTESIAN_POINT('',(-90.,5.,32.));
#308 = VECTOR('',#309,1.);
#309 = DIRECTION('',(0.,-1.110223024625E-16,-1.));
#310 = ORIENTED_EDGE('',*,*,#71,.T.);
#311 = FACE_BOUND('',#312,.F.);
#312 = EDGE_LOOP('',(#313));
#313 = ORIENTED_EDGE('',*,*,#314,.T.);
#314 = EDGE_CURVE('',#315,#315,#317,.T.);
#315 = VERTEX_POINT('',#316);
#316 = CARTESIAN_POINT('',(-6.73555739531E-16,5.,-22.25));
#317 = CIRCLE('',#318,2.75);
#318 = AXIS2_PLACEMENT_3D('',#319,#320,#321);
#319 = CARTESIAN_POINT('',(0.,5.,-25.));
#320 = DIRECTION('',(0.,1.,0.));
#321 = DIRECTION('',(0.,0.,1.));
#322 = FACE_BOUND('',#323,.F.);
#323 = EDGE_LOOP('',(#324,#334,#343,#351));
#324 = ORIENTED_EDGE('',*,*,#325,.T.);
#325 = EDGE_CURVE('',#326,#328,#330,.T.);
#326 = VERTEX_POINT('',#327);
#327 = CARTESIAN_POINT('',(9.576564013119,5.,1.311393382005));
#328 = VERTEX_POINT('',#329);
#329 = CARTESIAN_POINT('',(7.524443153165,5.,-4.32676234271));
#330 = LINE('',#331,#332);
#331 = CARTESIAN_POINT('',(8.8057045671,5.,-0.806525539504));
#332 = VECTOR('',#333,1.);
#333 = DIRECTION('',(-0.342020143326,-1.043268383667E-16,-0.939692620786
    ));
#334 = ORIENTED_EDGE('',*,*,#335,.T.);
#335 = EDGE_CURVE('',#328,#336,#338,.T.);
#336 = VERTEX_POINT('',#337);
#337 = CARTESIAN_POINT('',(-7.524443153165,5.,-4.32676234271));
#338 = CIRCLE('',#339,22.);
#339 = AXIS2_PLACEMENT_3D('',#340,#341,#342);
#340 = CARTESIAN_POINT('',(8.881784197001E-16,5.,-25.));
#341 = DIRECTION('',(0.,-1.,0.));
#342 = DIRECTION('',(0.342020143326,0.,0.939692620786));
#343 = ORIENTED_EDGE('',*,*,#344,.T.);
#344 = EDGE_CURVE('',#336,#345,#347,.T.);
#345 = VERTEX_POINT('',#346);
#346 = CARTESIAN_POINT('',(-9.576564013119,5.,1.311393382005));
#347 = LINE('',#348,#349);
#348 = CARTESIAN_POINT('',(-7.779644137123,5.,-3.625603401861));
#349 = VECTOR('',#350,1.);
#350 = DIRECTION('',(-0.342020143326,1.043268383667E-16,0.939692620786)
  );
#351 = ORIENTED_EDGE('',*,*,#352,.F.);
#352 = EDGE_CURVE('',#326,#345,#353,.T.);
#353 = CIRCLE('',#354,28.);
#354 = AXIS2_PLACEMENT_3D('',#355,#356,#357);
#355 = CARTESIAN_POINT('',(2.22044604925E-15,5.,-25.));
#356 = DIRECTION('',(-0.,-1.,0.));
#357 = DIRECTION('',(-0.342020143326,0.,0.939692620786));
#358 = FACE_BOUND('',#359,.F.);
#359 = EDGE_LOOP('',(#360));
#360 = ORIENTED_EDGE('',*,*,#361,.T.);
#361 = EDGE_CURVE('',#362,#362,#364,.T.);
#362 = VERTEX_POINT('',#363);
#363 = CARTESIAN_POINT('',(-55.,5.,25.1));
#364 = CIRCLE('',#365,3.1);
#365 = AXIS2_PLACEMENT_3D('',#366,#367,#368);
#366 = CARTESIAN_POINT('',(-55.,5.,22.));
#367 = DIRECTION('',(0.,1.,0.));
#368 = DIRECTION('',(0.,0.,1.));
#369 = FACE_BOUND('',#370,.F.);
#370 = EDGE_LOOP('',(#371));
#371 = ORIENTED_EDGE('',*,*,#372,.T.);
#372 = EDGE_CURVE('',#373,#373,#375,.T.);
#373 = VERTEX_POINT('',#374);
#374 = CARTESIAN_POINT('',(-33.,5.,25.1));
#375 = CIRCLE('',#376,3.1);
#376 = AXIS2_PLACEMENT_3D('',#377,#378,#379);
#377 = CARTESIAN_POINT('',(-33.,5.,22.));
#378 = DIRECTION('',(0.,1.,0.));
#379 = DIRECTION('',(0.,0.,1.));
#380 = FACE_BOUND('',#381,.F.);
#381 = EDGE_LOOP('',(#382));
#382 = ORIENTED_EDGE('',*,*,#383,.T.);
#383 = EDGE_CURVE('',#384,#384,#386,.T.);
#384 = VERTEX_POINT('',#385);
#385 = CARTESIAN_POINT('',(33.,5.,25.1));
#386 = CIRCLE('',#387,3.1);
#387 = AXIS2_PLACEMENT_3D('',#388,#389,#390);
#388 = CARTESIAN_POINT('',(33.,5.,22.));
#389 = DIRECTION('',(0.,1.,0.));
#390 = DIRECTION('',(0.,0.,1.));
#391 = FACE_BOUND('',#392,.F.);
#392 = EDGE_LOOP('',(#393));
#393 = ORIENTED_EDGE('',*,*,#394,.T.);
#394 = EDGE_CURVE('',#395,#395,#397,.T.);
#395 = VERTEX_POINT('',#396);
#396 = CARTESIAN_POINT('',(55.,5.,25.1));
#397 = CIRCLE('',#398,3.1);
#398 = AXIS2_PLACEMENT_3D('',#399,#400,#401);
#399 = CARTESIAN_POINT('',(55.,5.,22.));
#400 = DIRECTION('',(0.,1.,0.));
#401 = DIRECTION('',(0.,0.,1.));
#402 = PLANE('',#403);
#403 = AXIS2_PLACEMENT_3D('',#404,#405,#406);
#404 = CARTESIAN_POINT('',(2.442048623748E-15,5.,-3.878547814188E-16));
#405 = DIRECTION('',(0.,-1.,1.110223024625E-16));
#406 = DIRECTION('',(1.,0.,0.));
#407 = ADVANCED_FACE('',(#408),#419,.T.);
#408 = FACE_BOUND('',#409,.T.);
#409 = EDGE_LOOP('',(#410,#416,#417,#418));
#410 = ORIENTED_EDGE('',*,*,#411,.T.);
#411 = EDGE_CURVE('',#155,#297,#412,.T.);
#412 = LINE('',#413,#414);
#413 = CARTESIAN_POINT('',(-90.,3.552713678801E-15,32.));
#414 = VECTOR('',#415,1.);
#415 = DIRECTION('',(0.,1.,0.));
#416 = ORIENTED_EDGE('',*,*,#305,.T.);
#417 = ORIENTED_EDGE('',*,*,#61,.F.);
#418 = ORIENTED_EDGE('',*,*,#163,.F.);
#419 = PLANE('',#420);
#420 = AXIS2_PLACEMENT_3D('',#421,#422,#423);
#421 = CARTESIAN_POINT('',(-90.,3.552713678801E-15,32.));
#422 = DIRECTION('',(-1.,0.,0.));
#423 = DIRECTION('',(0.,-1.110223024625E-16,-1.));
#424 = ADVANCED_FACE('',(#425),#436,.T.);
#425 = FACE_BOUND('',#426,.T.);
#426 = EDGE_LOOP('',(#427,#428,#429,#435));
#427 = ORIENTED_EDGE('',*,*,#104,.T.);
#428 = ORIENTED_EDGE('',*,*,#271,.T.);
#429 = ORIENTED_EDGE('',*,*,#430,.F.);
#430 = EDGE_CURVE('',#130,#272,#431,.T.);
#431 = LINE('',#432,#433);
#432 = CARTESIAN_POINT('',(90.,3.552713678801E-15,32.));
#433 = VECTOR('',#434,1.);
#434 = DIRECTION('',(0.,1.,0.));
#435 = ORIENTED_EDGE('',*,*,#129,.F.);
#436 = PLANE('',#437);
#437 = AXIS2_PLACEMENT_3D('',#438,#439,#440);
#438 = CARTESIAN_POINT('',(90.,-3.552713678801E-15,-32.));
#439 = DIRECTION('',(1.,0.,0.));
#440 = DIRECTION('',(0.,1.110223024625E-16,1.));
#441 = ADVANCED_FACE('',(#442),#453,.T.);
#442 = FACE_BOUND('',#443,.T.);
#443 = EDGE_LOOP('',(#444,#450,#451,#452));
#444 = ORIENTED_EDGE('',*,*,#445,.T.);
#445 = EDGE_CURVE('',#147,#289,#446,.T.);
#446 = LINE('',#447,#448);
#447 = CARTESIAN_POINT('',(-87.,3.885780586188E-15,35.));
#448 = VECTOR('',#449,1.);
#449 = DIRECTION('',(0.,1.,0.));
#450 = ORIENTED_EDGE('',*,*,#296,.T.);
#451 = ORIENTED_EDGE('',*,*,#411,.F.);
#452 = ORIENTED_EDGE('',*,*,#154,.F.);
#453 = CYLINDRICAL_SURFACE('',#454,3.);
#454 = AXIS2_PLACEMENT_3D('',#455,#456,#457);
#455 = CARTESIAN_POINT('',(-87.,3.552713678801E-15,32.));
#456 = DIRECTION('',(0.,-1.,1.110223024625E-16));
#457 = DIRECTION('',(4.736951571734E-15,1.110223024625E-16,1.));
#458 = ADVANCED_FACE('',(#459),#470,.T.);
#459 = FACE_BOUND('',#460,.T.);
#460 = EDGE_LOOP('',(#461,#462,#463,#469));
#461 = ORIENTED_EDGE('',*,*,#430,.T.);
#462 = ORIENTED_EDGE('',*,*,#279,.T.);
#463 = ORIENTED_EDGE('',*,*,#464,.F.);
#464 = EDGE_CURVE('',#138,#280,#465,.T.);
#465 = LINE('',#466,#467);
#466 = CARTESIAN_POINT('',(87.,3.885780586188E-15,35.));
#467 = VECTOR('',#468,1.);
#468 = DIRECTION('',(0.,1.,0.));
#469 = ORIENTED_EDGE('',*,*,#137,.F.);
#470 = CYLINDRICAL_SURFACE('',#471,3.);
#471 = AXIS2_PLACEMENT_3D('',#472,#473,#474);
#472 = CARTESIAN_POINT('',(87.,3.552713678801E-15,32.));
#473 = DIRECTION('',(0.,-1.,1.110223024625E-16));
#474 = DIRECTION('',(1.,-5.259072701473E-31,-4.736951571734E-15));
#475 = ADVANCED_FACE('',(#476),#482,.T.);
#476 = FACE_BOUND('',#477,.T.);
#477 = EDGE_LOOP('',(#478,#479,#480,#481));
#478 = ORIENTED_EDGE('',*,*,#464,.T.);
#479 = ORIENTED_EDGE('',*,*,#288,.T.);
#480 = ORIENTED_EDGE('',*,*,#445,.F.);
#481 = ORIENTED_EDGE('',*,*,#146,.F.);
#482 = PLANE('',#483);
#483 = AXIS2_PLACEMENT_3D('',#484,#485,#486);
#484 = CARTESIAN_POINT('',(87.,3.885780586188E-15,35.));
#485 = DIRECTION('',(0.,0.,1.));
#486 = DIRECTION('',(-1.,0.,0.));
#487 = ADVANCED_FACE('',(#488),#499,.F.);
#488 = FACE_BOUND('',#489,.F.);
#489 = EDGE_LOOP('',(#490,#491,#497,#498));
#490 = ORIENTED_EDGE('',*,*,#314,.F.);
#491 = ORIENTED_EDGE('',*,*,#492,.F.);
#492 = EDGE_CURVE('',#173,#315,#493,.T.);
#493 = LINE('',#494,#495);
#494 = CARTESIAN_POINT('',(-6.73555739531E-16,-2.,-22.25));
#495 = VECTOR('',#496,1.);
#496 = DIRECTION('',(0.,1.,0.));
#497 = ORIENTED_EDGE('',*,*,#172,.T.);
#498 = ORIENTED_EDGE('',*,*,#492,.T.);
#499 = CYLINDRICAL_SURFACE('',#500,2.75);
#500 = AXIS2_PLACEMENT_3D('',#501,#502,#503);
#501 = CARTESIAN_POINT('',(0.,-2.,-25.));
#502 = DIRECTION('',(0.,1.,0.));
#503 = DIRECTION('',(0.,0.,1.));
#504 = ADVANCED_FACE('',(#505),#521,.T.);
#505 = FACE_BOUND('',#506,.T.);
#506 = EDGE_LOOP('',(#507,#508,#514,#515));
#507 = ORIENTED_EDGE('',*,*,#183,.F.);
#508 = ORIENTED_EDGE('',*,*,#509,.T.);
#509 = EDGE_CURVE('',#184,#326,#510,.T.);
#510 = LINE('',#511,#512);
#511 = CARTESIAN_POINT('',(9.576564013119,-0.1,1.311393382005));
#512 = VECTOR('',#513,1.);
#513 = DIRECTION('',(0.,1.,0.));
#514 = ORIENTED_EDGE('',*,*,#325,.T.);
#515 = ORIENTED_EDGE('',*,*,#516,.F.);
#516 = EDGE_CURVE('',#186,#328,#517,.T.);
#517 = LINE('',#518,#519);
#518 = CARTESIAN_POINT('',(7.524443153165,-0.1,-4.32676234271));
#519 = VECTOR('',#520,1.);
#520 = DIRECTION('',(0.,1.,0.));
#521 = PLANE('',#522);
#522 = AXIS2_PLACEMENT_3D('',#523,#524,#525);
#523 = CARTESIAN_POINT('',(9.576564013119,-0.1,1.311393382005));
#524 = DIRECTION('',(-0.939692620786,0.,0.342020143326));
#525 = DIRECTION('',(-0.342020143326,0.,-0.939692620786));
#526 = ADVANCED_FACE('',(#527),#538,.F.);
#527 = FACE_BOUND('',#528,.T.);
#528 = EDGE_LOOP('',(#529,#530,#536,#537));
#529 = ORIENTED_EDGE('',*,*,#210,.T.);
#530 = ORIENTED_EDGE('',*,*,#531,.T.);
#531 = EDGE_CURVE('',#203,#345,#532,.T.);
#532 = LINE('',#533,#534);
#533 = CARTESIAN_POINT('',(-9.576564013119,-0.1,1.311393382005));
#534 = VECTOR('',#535,1.);
#535 = DIRECTION('',(0.,1.,0.));
#536 = ORIENTED_EDGE('',*,*,#352,.F.);
#537 = ORIENTED_EDGE('',*,*,#509,.F.);
#538 = CYLINDRICAL_SURFACE('',#539,28.);
#539 = AXIS2_PLACEMENT_3D('',#540,#541,#542);
#540 = CARTESIAN_POINT('',(2.22044604925E-15,-0.1,-25.));
#541 = DIRECTION('',(0.,-1.,0.));
#542 = DIRECTION('',(-0.342020143326,0.,0.939692620786));
#543 = ADVANCED_FACE('',(#544),#555,.T.);
#544 = FACE_BOUND('',#545,.T.);
#545 = EDGE_LOOP('',(#546,#547,#553,#554));
#546 = ORIENTED_EDGE('',*,*,#202,.F.);
#547 = ORIENTED_EDGE('',*,*,#548,.T.);
#548 = EDGE_CURVE('',#194,#336,#549,.T.);
#549 = LINE('',#550,#551);
#550 = CARTESIAN_POINT('',(-7.524443153165,-0.1,-4.32676234271));
#551 = VECTOR('',#552,1.);
#552 = DIRECTION('',(0.,1.,0.));
#553 = ORIENTED_EDGE('',*,*,#344,.T.);
#554 = ORIENTED_EDGE('',*,*,#531,.F.);
#555 = PLANE('',#556);
#556 = AXIS2_PLACEMENT_3D('',#557,#558,#559);
#557 = CARTESIAN_POINT('',(-7.524443153165,-0.1,-4.32676234271));
#558 = DIRECTION('',(0.939692620786,0.,0.342020143326));
#559 = DIRECTION('',(-0.342020143326,0.,0.939692620786));
#560 = ADVANCED_FACE('',(#561),#567,.T.);
#561 = FACE_BOUND('',#562,.T.);
#562 = EDGE_LOOP('',(#563,#564,#565,#566));
#563 = ORIENTED_EDGE('',*,*,#193,.F.);
#564 = ORIENTED_EDGE('',*,*,#516,.T.);
#565 = ORIENTED_EDGE('',*,*,#335,.T.);
#566 = ORIENTED_EDGE('',*,*,#548,.F.);
#567 = CYLINDRICAL_SURFACE('',#568,22.);
#568 = AXIS2_PLACEMENT_3D('',#569,#570,#571);
#569 = CARTESIAN_POINT('',(8.881784197001E-16,-0.1,-25.));
#570 = DIRECTION('',(0.,-1.,0.));
#571 = DIRECTION('',(0.342020143326,0.,0.939692620786));
#572 = ADVANCED_FACE('',(#573),#584,.F.);
#573 = FACE_BOUND('',#574,.F.);
#574 = EDGE_LOOP('',(#575,#576,#582,#583));
#575 = ORIENTED_EDGE('',*,*,#361,.F.);
#576 = ORIENTED_EDGE('',*,*,#577,.F.);
#577 = EDGE_CURVE('',#220,#362,#578,.T.);
#578 = LINE('',#579,#580);
#579 = CARTESIAN_POINT('',(-55.,-0.1,25.1));
#580 = VECTOR('',#581,1.);
#581 = DIRECTION('',(0.,1.,0.));
#582 = ORIENTED_EDGE('',*,*,#219,.T.);
#583 = ORIENTED_EDGE('',*,*,#577,.T.);
#584 = CYLINDRICAL_SURFACE('',#585,3.1);
#585 = AXIS2_PLACEMENT_3D('',#586,#587,#588);
#586 = CARTESIAN_POINT('',(-55.,-0.1,22.));
#587 = DIRECTION('',(0.,1.,0.));
#588 = DIRECTION('',(0.,0.,1.));
#589 = ADVANCED_FACE('',(#590),#601,.F.);
#590 = FACE_BOUND('',#591,.F.);
#591 = EDGE_LOOP('',(#592,#593,#599,#600));
#592 = ORIENTED_EDGE('',*,*,#372,.F.);
#593 = ORIENTED_EDGE('',*,*,#594,.F.);
#594 = EDGE_CURVE('',#231,#373,#595,.T.);
#595 = LINE('',#596,#597);
#596 = CARTESIAN_POINT('',(-33.,-0.1,25.1));
#597 = VECTOR('',#598,1.);
#598 = DIRECTION('',(0.,1.,0.));
#599 = ORIENTED_EDGE('',*,*,#230,.T.);
#600 = ORIENTED_EDGE('',*,*,#594,.T.);
#601 = CYLINDRICAL_SURFACE('',#602,3.1);
#602 = AXIS2_PLACEMENT_3D('',#603,#604,#605);
#603 = CARTESIAN_POINT('',(-33.,-0.1,22.));
#604 = DIRECTION('',(0.,1.,0.));
#605 = DIRECTION('',(0.,0.,1.));
#606 = ADVANCED_FACE('',(#607),#618,.F.);
#607 = FACE_BOUND('',#608,.F.);
#608 = EDGE_LOOP('',(#609,#610,#616,#617));
#609 = ORIENTED_EDGE('',*,*,#383,.F.);
#610 = ORIENTED_EDGE('',*,*,#611,.F.);
#611 = EDGE_CURVE('',#242,#384,#612,.T.);
#612 = LINE('',#613,#614);
#613 = CARTESIAN_POINT('',(33.,-0.1,25.1));
#614 = VECTOR('',#615,1.);
#615 = DIRECTION('',(0.,1.,0.));
#616 = ORIENTED_EDGE('',*,*,#241,.T.);
#617 = ORIENTED_EDGE('',*,*,#611,.T.);
#618 = CYLINDRICAL_SURFACE('',#619,3.1);
#619 = AXIS2_PLACEMENT_3D('',#620,#621,#622);
#620 = CARTESIAN_POINT('',(33.,-0.1,22.));
#621 = DIRECTION('',(0.,1.,0.));
#622 = DIRECTION('',(0.,0.,1.));
#623 = ADVANCED_FACE('',(#624),#635,.F.);
#624 = FACE_BOUND('',#625,.F.);
#625 = EDGE_LOOP('',(#626,#627,#633,#634));
#626 = ORIENTED_EDGE('',*,*,#394,.F.);
#627 = ORIENTED_EDGE('',*,*,#628,.F.);
#628 = EDGE_CURVE('',#253,#395,#629,.T.);
#629 = LINE('',#630,#631);
#630 = CARTESIAN_POINT('',(55.,-0.1,25.1));
#631 = VECTOR('',#632,1.);
#632 = DIRECTION('',(0.,1.,0.));
#633 = ORIENTED_EDGE('',*,*,#252,.T.);
#634 = ORIENTED_EDGE('',*,*,#628,.T.);
#635 = CYLINDRICAL_SURFACE('',#636,3.1);
#636 = AXIS2_PLACEMENT_3D('',#637,#638,#639);
#637 = CARTESIAN_POINT('',(55.,-0.1,22.));
#638 = DIRECTION('',(0.,1.,0.));
#639 = DIRECTION('',(0.,0.,1.));
#640 = ( GEOMETRIC_REPRESENTATION_CONTEXT(3) 
GLOBAL_UNCERTAINTY_ASSIGNED_CONTEXT((#644)) GLOBAL_UNIT_ASSIGNED_CONTEXT
((#641,#642,#643)) REPRESENTATION_CONTEXT('Context #1',
  '3D Context with UNIT and UNCERTAINTY') );
#641 = ( LENGTH_UNIT() NAMED_UNIT(*) SI_UNIT(.MILLI.,.METRE.) );
#642 = ( NAMED_UNIT(*) PLANE_ANGLE_UNIT() SI_UNIT($,.RADIAN.) );
#643 = ( NAMED_UNIT(*) SI_UNIT($,.STERADIAN.) SOLID_ANGLE_UNIT() );
#644 = UNCERTAINTY_MEASURE_WITH_UNIT(LENGTH_MEASURE(1.E-07),#641,
  'distance_accuracy_value','confusion accuracy');
#645 = PRODUCT_RELATED_PRODUCT_CATEGORY('part',$,(#7));
ENDSEC;
END-ISO-10303-21;
